<?xml version="1.0" encoding="UTF-8" standalone="no"?>
<!-- Created with Inkscape (http://www.inkscape.org/) -->

<svg
   xmlns:dc="http://purl.org/dc/elements/1.1/"
   xmlns:cc="http://creativecommons.org/ns#"
   xmlns:rdf="http://www.w3.org/1999/02/22-rdf-syntax-ns#"
   xmlns:svg="http://www.w3.org/2000/svg"
   xmlns="http://www.w3.org/2000/svg"
   xmlns:sodipodi="http://sodipodi.sourceforge.net/DTD/sodipodi-0.dtd"
   xmlns:inkscape="http://www.inkscape.org/namespaces/inkscape"
   width="250.64581"
   height="208.11467"
   id="svg3053"
   version="1.1"
   inkscape:version="0.48.4 r9939"
   sodipodi:docname="digraph4.svg">
  <defs
     id="defs3055">
    <marker
       inkscape:stockid="Arrow1Mend"
       orient="auto"
       refY="0"
       refX="0"
       id="Arrow1Mend"
       style="overflow:visible">
      <path
         id="path4101"
         d="M 0,0 5,-5 -12.5,0 5,5 0,0 z"
         style="fill-rule:evenodd;stroke:#000000;stroke-width:1pt"
         transform="matrix(-0.4,0,0,-0.4,-4,0)"
         inkscape:connector-curvature="0" />
    </marker>
    <marker
       inkscape:stockid="Arrow1Mend"
       orient="auto"
       refY="0"
       refX="0"
       id="marker3073"
       style="overflow:visible">
      <path
         id="path3075"
         d="M 0,0 5,-5 -12.5,0 5,5 0,0 z"
         style="fill-rule:evenodd;stroke:#000000;stroke-width:1pt"
         transform="matrix(-0.4,0,0,-0.4,-4,0)"
         inkscape:connector-curvature="0" />
    </marker>
    <marker
       inkscape:stockid="Arrow1Mend"
       orient="auto"
       refY="0"
       refX="0"
       id="marker3077"
       style="overflow:visible">
      <path
         id="path3079"
         d="M 0,0 5,-5 -12.5,0 5,5 0,0 z"
         style="fill-rule:evenodd;stroke:#000000;stroke-width:1pt"
         transform="matrix(-0.4,0,0,-0.4,-4,0)"
         inkscape:connector-curvature="0" />
    </marker>
    <marker
       inkscape:stockid="Arrow1Mend"
       orient="auto"
       refY="0"
       refX="0"
       id="marker3081"
       style="overflow:visible">
      <path
         id="path3083"
         d="M 0,0 5,-5 -12.5,0 5,5 0,0 z"
         style="fill-rule:evenodd;stroke:#000000;stroke-width:1pt"
         transform="matrix(-0.4,0,0,-0.4,-4,0)"
         inkscape:connector-curvature="0" />
    </marker>
    <marker
       inkscape:stockid="Arrow1Mend"
       orient="auto"
       refY="0"
       refX="0"
       id="marker3085"
       style="overflow:visible">
      <path
         id="path3087"
         d="M 0,0 5,-5 -12.5,0 5,5 0,0 z"
         style="fill-rule:evenodd;stroke:#000000;stroke-width:1pt"
         transform="matrix(-0.4,0,0,-0.4,-4,0)"
         inkscape:connector-curvature="0" />
    </marker>
    <marker
       inkscape:stockid="Arrow1Mend"
       orient="auto"
       refY="0"
       refX="0"
       id="marker3089"
       style="overflow:visible">
      <path
         id="path3091"
         d="M 0,0 5,-5 -12.5,0 5,5 0,0 z"
         style="fill-rule:evenodd;stroke:#000000;stroke-width:1pt"
         transform="matrix(-0.4,0,0,-0.4,-4,0)"
         inkscape:connector-curvature="0" />
    </marker>
    <marker
       inkscape:stockid="Arrow1Mend"
       orient="auto"
       refY="0"
       refX="0"
       id="marker3093"
       style="overflow:visible">
      <path
         id="path3095"
         d="M 0,0 5,-5 -12.5,0 5,5 0,0 z"
         style="fill-rule:evenodd;stroke:#000000;stroke-width:1pt"
         transform="matrix(-0.4,0,0,-0.4,-4,0)"
         inkscape:connector-curvature="0" />
    </marker>
    <marker
       inkscape:stockid="Arrow1Mend"
       orient="auto"
       refY="0"
       refX="0"
       id="marker3097"
       style="overflow:visible">
      <path
         id="path3099"
         d="M 0,0 5,-5 -12.5,0 5,5 0,0 z"
         style="fill-rule:evenodd;stroke:#000000;stroke-width:1pt"
         transform="matrix(-0.4,0,0,-0.4,-4,0)"
         inkscape:connector-curvature="0" />
    </marker>
    <marker
       inkscape:stockid="Arrow1Mend"
       orient="auto"
       refY="0"
       refX="0"
       id="marker3101"
       style="overflow:visible">
      <path
         id="path3103"
         d="M 0,0 5,-5 -12.5,0 5,5 0,0 z"
         style="fill-rule:evenodd;stroke:#000000;stroke-width:1pt"
         transform="matrix(-0.4,0,0,-0.4,-4,0)"
         inkscape:connector-curvature="0" />
    </marker>
    <marker
       inkscape:stockid="Arrow1Mend"
       orient="auto"
       refY="0"
       refX="0"
       id="marker3105"
       style="overflow:visible">
      <path
         id="path3107"
         d="M 0,0 5,-5 -12.5,0 5,5 0,0 z"
         style="fill-rule:evenodd;stroke:#000000;stroke-width:1pt"
         transform="matrix(-0.4,0,0,-0.4,-4,0)"
         inkscape:connector-curvature="0" />
    </marker>
    <marker
       inkscape:stockid="Arrow1Mend"
       orient="auto"
       refY="0"
       refX="0"
       id="marker3109"
       style="overflow:visible">
      <path
         id="path3111"
         d="M 0,0 5,-5 -12.5,0 5,5 0,0 z"
         style="fill-rule:evenodd;stroke:#000000;stroke-width:1pt"
         transform="matrix(-0.4,0,0,-0.4,-4,0)"
         inkscape:connector-curvature="0" />
    </marker>
    <marker
       inkscape:stockid="Arrow1Mend"
       orient="auto"
       refY="0"
       refX="0"
       id="marker3113"
       style="overflow:visible">
      <path
         id="path3115"
         d="M 0,0 5,-5 -12.5,0 5,5 0,0 z"
         style="fill-rule:evenodd;stroke:#000000;stroke-width:1pt"
         transform="matrix(-0.4,0,0,-0.4,-4,0)"
         inkscape:connector-curvature="0" />
    </marker>
    <marker
       inkscape:stockid="Arrow1Mend"
       orient="auto"
       refY="0"
       refX="0"
       id="marker3117"
       style="overflow:visible">
      <path
         id="path3119"
         d="M 0,0 5,-5 -12.5,0 5,5 0,0 z"
         style="fill-rule:evenodd;stroke:#000000;stroke-width:1pt"
         transform="matrix(-0.4,0,0,-0.4,-4,0)"
         inkscape:connector-curvature="0" />
    </marker>
    <marker
       inkscape:stockid="Arrow1Mend"
       orient="auto"
       refY="0"
       refX="0"
       id="marker3121"
       style="overflow:visible">
      <path
         id="path3123"
         d="M 0,0 5,-5 -12.5,0 5,5 0,0 z"
         style="fill-rule:evenodd;stroke:#000000;stroke-width:1pt"
         transform="matrix(-0.4,0,0,-0.4,-4,0)"
         inkscape:connector-curvature="0" />
    </marker>
    <marker
       inkscape:stockid="Arrow1Mend"
       orient="auto"
       refY="0"
       refX="0"
       id="marker3125"
       style="overflow:visible">
      <path
         id="path3127"
         d="M 0,0 5,-5 -12.5,0 5,5 0,0 z"
         style="fill-rule:evenodd;stroke:#000000;stroke-width:1pt"
         transform="matrix(-0.4,0,0,-0.4,-4,0)"
         inkscape:connector-curvature="0" />
    </marker>
    <marker
       inkscape:stockid="Arrow1Mend"
       orient="auto"
       refY="0"
       refX="0"
       id="marker3129"
       style="overflow:visible">
      <path
         id="path3131"
         d="M 0,0 5,-5 -12.5,0 5,5 0,0 z"
         style="fill-rule:evenodd;stroke:#000000;stroke-width:1pt"
         transform="matrix(-0.4,0,0,-0.4,-4,0)"
         inkscape:connector-curvature="0" />
    </marker>
    <marker
       inkscape:stockid="Arrow1Mend"
       orient="auto"
       refY="0"
       refX="0"
       id="marker3133"
       style="overflow:visible">
      <path
         id="path3135"
         d="M 0,0 5,-5 -12.5,0 5,5 0,0 z"
         style="fill-rule:evenodd;stroke:#000000;stroke-width:1pt"
         transform="matrix(-0.4,0,0,-0.4,-4,0)"
         inkscape:connector-curvature="0" />
    </marker>
    <marker
       inkscape:stockid="Arrow1Mend"
       orient="auto"
       refY="0"
       refX="0"
       id="marker3137"
       style="overflow:visible">
      <path
         id="path3139"
         d="M 0,0 5,-5 -12.5,0 5,5 0,0 z"
         style="fill-rule:evenodd;stroke:#000000;stroke-width:1pt"
         transform="matrix(-0.4,0,0,-0.4,-4,0)"
         inkscape:connector-curvature="0" />
    </marker>
    <marker
       inkscape:stockid="Arrow1Mstart"
       orient="auto"
       refY="0"
       refX="0"
       id="Arrow1Mstart"
       style="overflow:visible">
      <path
         id="path4098"
         d="M 0,0 5,-5 -12.5,0 5,5 0,0 z"
         style="fill-rule:evenodd;stroke:#000000;stroke-width:1pt"
         transform="matrix(0.4,0,0,0.4,4,0)"
         inkscape:connector-curvature="0" />
    </marker>
    <marker
       inkscape:stockid="Arrow1Mend"
       orient="auto"
       refY="0"
       refX="0"
       id="marker3143"
       style="overflow:visible">
      <path
         id="path3145"
         d="M 0,0 5,-5 -12.5,0 5,5 0,0 z"
         style="fill-rule:evenodd;stroke:#000000;stroke-width:1pt"
         transform="matrix(-0.4,0,0,-0.4,-4,0)"
         inkscape:connector-curvature="0" />
    </marker>
    <marker
       inkscape:stockid="Arrow1Mstart"
       orient="auto"
       refY="0"
       refX="0"
       id="marker3147"
       style="overflow:visible">
      <path
         id="path3149"
         d="M 0,0 5,-5 -12.5,0 5,5 0,0 z"
         style="fill-rule:evenodd;stroke:#000000;stroke-width:1pt"
         transform="matrix(0.4,0,0,0.4,4,0)"
         inkscape:connector-curvature="0" />
    </marker>
    <marker
       inkscape:stockid="Arrow1Mend"
       orient="auto"
       refY="0"
       refX="0"
       id="marker3151"
       style="overflow:visible">
      <path
         id="path3153"
         d="M 0,0 5,-5 -12.5,0 5,5 0,0 z"
         style="fill-rule:evenodd;stroke:#000000;stroke-width:1pt"
         transform="matrix(-0.4,0,0,-0.4,-4,0)"
         inkscape:connector-curvature="0" />
    </marker>
  </defs>
  <sodipodi:namedview
     id="base"
     pagecolor="#ffffff"
     bordercolor="#666666"
     borderopacity="1.0"
     inkscape:pageopacity="0.0"
     inkscape:pageshadow="2"
     inkscape:zoom="1.979899"
     inkscape:cx="157.31027"
     inkscape:cy="74.685628"
     inkscape:document-units="px"
     inkscape:current-layer="layer1"
     showgrid="false"
     inkscape:window-width="1364"
     inkscape:window-height="710"
     inkscape:window-x="1"
     inkscape:window-y="1"
     inkscape:window-maximized="1"
     fit-margin-top="0"
     fit-margin-left="0"
     fit-margin-right="0"
     fit-margin-bottom="0" />
  <metadata
     id="metadata3058">
    <rdf:RDF>
      <cc:Work
         rdf:about="">
        <dc:format>image/svg+xml</dc:format>
        <dc:type
           rdf:resource="http://purl.org/dc/dcmitype/StillImage" />
        <dc:title></dc:title>
      </cc:Work>
    </rdf:RDF>
  </metadata>
  <g
     inkscape:label="Layer 1"
     inkscape:groupmode="layer"
     id="layer1"
     transform="translate(-160.54688,-101.80472)">
    <path
       style="fill:none;stroke:#000000;stroke-width:1px;stroke-linecap:butt;stroke-linejoin:miter;stroke-opacity:1;marker-end:url(#marker3151)"
       d="m 175.26147,114.94062 103.03556,26.76904"
       id="path5669"
       inkscape:connector-curvature="0" />
    <path
       style="fill:none;stroke:#000000;stroke-width:1px;stroke-linecap:butt;stroke-linejoin:miter;stroke-opacity:1;marker-end:url(#Arrow1Mend)"
       d="m 193.31761,236.22948 -12.14286,23.57143"
       id="path6564"
       inkscape:connector-curvature="0" />
    <path
       style="fill:none;stroke:#000000;stroke-width:1px;stroke-linecap:butt;stroke-linejoin:miter;stroke-opacity:1;marker-end:url(#Arrow1Mend)"
       d="M 174.74618,274.80091 219.03189,260.5152"
       id="path6750"
       inkscape:connector-curvature="0" />
    <path
       style="fill:none;stroke:#000000;stroke-width:1px;stroke-linecap:butt;stroke-linejoin:miter;stroke-opacity:1;marker-end:url(#Arrow1Mend)"
       d="m 294.74618,147.65805 -52.85714,93.57143"
       id="path7308"
       inkscape:connector-curvature="0" />
    <path
       style="fill:none;stroke:#000000;stroke-width:1px;stroke-linecap:butt;stroke-linejoin:miter;stroke-opacity:1;marker-end:url(#Arrow1Mend)"
       d="m 294.74618,147.65805 44.28571,82.85715"
       id="path7494"
       inkscape:connector-curvature="0" />
    <path
       style="fill:none;stroke:#000000;stroke-width:1px;stroke-linecap:butt;stroke-linejoin:miter;stroke-opacity:1;marker-end:url(#Arrow1Mend)"
       d="m 342.60332,247.65806 0.71429,32.14285"
       id="path7866"
       inkscape:connector-curvature="0" />
    <path
       style="fill:none;stroke:#000000;stroke-width:1px;stroke-linecap:butt;stroke-linejoin:miter;stroke-opacity:1;marker-end:url(#Arrow1Mend)"
       d="m 344.03189,244.80091 37.14286,0.71429"
       id="path8052"
       inkscape:connector-curvature="0" />
    <path
       style="fill:none;stroke:#000000;stroke-width:1;stroke-linecap:butt;stroke-linejoin:miter;stroke-miterlimit:4;stroke-opacity:1;stroke-dasharray:none;marker-start:url(#marker3147);marker-end:none"
       d="M 384.49911,285.98703 348.9732,251.52794"
       id="path8424"
       inkscape:connector-curvature="0" />
    <path
       style="fill:none;stroke:#000000;stroke-width:1px;stroke-linecap:butt;stroke-linejoin:miter;stroke-opacity:1;marker-end:url(#Arrow1Mend)"
       d="m 342.60332,295.5152 38.57143,0"
       id="path8610"
       inkscape:connector-curvature="0" />
    <path
       style="fill:none;stroke:#000000;stroke-width:1px;stroke-linecap:butt;stroke-linejoin:miter;stroke-opacity:1;marker-end:url(#Arrow1Mend)"
       d="m 340.46047,154.8009 -30.71429,-5.71428"
       id="path6378"
       inkscape:connector-curvature="0" />
    <path
       style="fill:none;stroke:#000000;stroke-width:1px;stroke-linecap:butt;stroke-linejoin:miter;stroke-opacity:1;marker-end:url(#Arrow1Mend)"
       d="m 172.60332,116.94376 13.57143,34.28571"
       id="path4716"
       inkscape:connector-curvature="0" />
    <path
       style="fill:none;stroke:#000000;stroke-width:1px;stroke-linecap:butt;stroke-linejoin:miter;stroke-opacity:1;marker-end:url(#Arrow1Mend)"
       d="m 243.31761,176.22947 -57.14286,-50"
       id="path5084"
       inkscape:connector-curvature="0" />
    <path
       style="fill:none;stroke:#000000;stroke-width:1px;stroke-linecap:butt;stroke-linejoin:miter;stroke-opacity:1;marker-end:url(#Arrow1Mend)"
       d="m 174.03189,114.8009 -0.71428,142.14287"
       id="path4532"
       inkscape:connector-curvature="0" />
    <path
       sodipodi:type="arc"
       style="fill:#ffffff;fill-opacity:1;fill-rule:nonzero;stroke:#000000;stroke-width:2;stroke-linecap:square;stroke-linejoin:miter;stroke-miterlimit:4;stroke-opacity:1;stroke-dasharray:none"
       id="path2985"
       sodipodi:cx="121.72338"
       sodipodi:cy="88.676651"
       sodipodi:rx="17.67767"
       sodipodi:ry="18.182745"
       d="m 139.40105,88.676651 c 0,10.042053 -7.91456,18.182749 -17.67767,18.182749 -9.76311,0 -17.67767,-8.140696 -17.67767,-18.182749 0,-10.042053 7.91456,-18.182745 17.67767,-18.182745 9.76311,0 17.67767,8.140692 17.67767,18.182745 z"
       transform="matrix(0.73012957,0,0,0.70984819,85.320715,52.470272)" />
    <text
       xml:space="preserve"
       style="font-size:14px;font-style:normal;font-variant:normal;font-weight:normal;font-stretch:normal;line-height:125%;letter-spacing:0px;word-spacing:0px;fill:#000000;fill-opacity:1;stroke:none;font-family:DejaVu Sans;-inkscape-font-specification:DejaVu Sans"
       x="169.70978"
       y="120.00355"
       id="text2987"
       sodipodi:linespacing="125%"><tspan
         sodipodi:role="line"
         id="tspan2989"
         x="169.70978"
         y="120.00355">0</tspan></text>
    <path
       sodipodi:type="arc"
       style="fill:#ffffff;fill-opacity:1;fill-rule:nonzero;stroke:#000000;stroke-width:2;stroke-linecap:square;stroke-linejoin:miter;stroke-miterlimit:4;stroke-opacity:1;stroke-dasharray:none"
       id="path2985-6"
       sodipodi:cx="121.72338"
       sodipodi:cy="88.676651"
       sodipodi:rx="17.67767"
       sodipodi:ry="18.182745"
       d="m 139.40105,88.676651 c 0,10.042053 -7.91456,18.182749 -17.67767,18.182749 -9.76311,0 -17.67767,-8.140696 -17.67767,-18.182749 0,-10.042053 7.91456,-18.182745 17.67767,-18.182745 9.76311,0 17.67767,8.140692 17.67767,18.182745 z"
       transform="matrix(0.73012957,0,0,0.70984819,105.80476,103.72808)" />
    <text
       xml:space="preserve"
       style="font-size:14px;font-style:normal;font-variant:normal;font-weight:normal;font-stretch:normal;line-height:125%;letter-spacing:0px;word-spacing:0px;fill:#000000;fill-opacity:1;stroke:none;font-family:DejaVu Sans;-inkscape-font-specification:DejaVu Sans"
       x="190.19385"
       y="171.26137"
       id="text2987-3"
       sodipodi:linespacing="125%"><tspan
         sodipodi:role="line"
         id="tspan2989-3"
         x="190.19385"
         y="171.26137">1</tspan></text>
    <path
       sodipodi:type="arc"
       style="fill:#ffffff;fill-opacity:1;fill-rule:nonzero;stroke:#000000;stroke-width:2;stroke-linecap:square;stroke-linejoin:miter;stroke-miterlimit:4;stroke-opacity:1;stroke-dasharray:none"
       id="path2985-8"
       sodipodi:cx="121.72338"
       sodipodi:cy="88.676651"
       sodipodi:rx="17.67767"
       sodipodi:ry="18.182745"
       d="m 139.40105,88.676651 c 0,10.042053 -7.91456,18.182749 -17.67767,18.182749 -9.76311,0 -17.67767,-8.140696 -17.67767,-18.182749 0,-10.042053 7.91456,-18.182745 17.67767,-18.182745 9.76311,0 17.67767,8.140692 17.67767,18.182745 z"
       transform="matrix(0.73012957,0,0,0.70984819,154.88382,112.84048)" />
    <text
       xml:space="preserve"
       style="font-size:14px;font-style:normal;font-variant:normal;font-weight:normal;font-stretch:normal;line-height:125%;letter-spacing:0px;word-spacing:0px;fill:#000000;fill-opacity:1;stroke:none;font-family:DejaVu Sans;-inkscape-font-specification:DejaVu Sans"
       x="239.27289"
       y="180.37376"
       id="text2987-5"
       sodipodi:linespacing="125%"><tspan
         sodipodi:role="line"
         id="tspan2989-1"
         x="239.27289"
         y="180.37376">2</tspan></text>
    <path
       sodipodi:type="arc"
       style="fill:#ffffff;fill-opacity:1;fill-rule:nonzero;stroke:#000000;stroke-width:2;stroke-linecap:square;stroke-linejoin:miter;stroke-miterlimit:4;stroke-opacity:1;stroke-dasharray:none"
       id="path2985-5"
       sodipodi:cx="121.72338"
       sodipodi:cy="88.676651"
       sodipodi:rx="17.67767"
       sodipodi:ry="18.182745"
       d="m 139.40105,88.676651 c 0,10.042053 -7.91456,18.182749 -17.67767,18.182749 -9.76311,0 -17.67767,-8.140696 -17.67767,-18.182749 0,-10.042053 7.91456,-18.182745 17.67767,-18.182745 9.76311,0 17.67767,8.140692 17.67767,18.182745 z"
       transform="matrix(0.73012957,0,0,0.70984819,105.24276,173.08198)" />
    <text
       xml:space="preserve"
       style="font-size:14px;font-style:normal;font-variant:normal;font-weight:normal;font-stretch:normal;line-height:125%;letter-spacing:0px;word-spacing:0px;fill:#000000;fill-opacity:1;stroke:none;font-family:DejaVu Sans;-inkscape-font-specification:DejaVu Sans"
       x="189.63184"
       y="240.61525"
       id="text2987-0"
       sodipodi:linespacing="125%"><tspan
         sodipodi:role="line"
         id="tspan2989-5"
         x="189.63184"
         y="240.61525">3</tspan></text>
    <path
       sodipodi:type="arc"
       style="fill:#ffffff;fill-opacity:1;fill-rule:nonzero;stroke:#000000;stroke-width:2;stroke-linecap:square;stroke-linejoin:miter;stroke-miterlimit:4;stroke-opacity:1;stroke-dasharray:none"
       id="path2985-0"
       sodipodi:cx="121.72338"
       sodipodi:cy="88.676651"
       sodipodi:rx="17.67767"
       sodipodi:ry="18.182745"
       d="m 139.40105,88.676651 c 0,10.042053 -7.91456,18.182749 -17.67767,18.182749 -9.76311,0 -17.67767,-8.140696 -17.67767,-18.182749 0,-10.042053 7.91456,-18.182745 17.67767,-18.182745 9.76311,0 17.67767,8.140692 17.67767,18.182745 z"
       transform="matrix(0.73012957,0,0,0.70984819,145.52631,192.42717)" />
    <text
       xml:space="preserve"
       style="font-size:14px;font-style:normal;font-variant:normal;font-weight:normal;font-stretch:normal;line-height:125%;letter-spacing:0px;word-spacing:0px;fill:#000000;fill-opacity:1;stroke:none;font-family:DejaVu Sans;-inkscape-font-specification:DejaVu Sans"
       x="229.91541"
       y="259.96045"
       id="text2987-54"
       sodipodi:linespacing="125%"><tspan
         sodipodi:role="line"
         id="tspan2989-7"
         x="229.91541"
         y="259.96045">4</tspan></text>
    <path
       sodipodi:type="arc"
       style="fill:#ffffff;fill-opacity:1;fill-rule:nonzero;stroke:#000000;stroke-width:2;stroke-linecap:square;stroke-linejoin:miter;stroke-miterlimit:4;stroke-opacity:1;stroke-dasharray:none"
       id="path2985-4"
       sodipodi:cx="121.72338"
       sodipodi:cy="88.676651"
       sodipodi:rx="17.67767"
       sodipodi:ry="18.182745"
       d="m 139.40105,88.676651 c 0,10.042053 -7.91456,18.182749 -17.67767,18.182749 -9.76311,0 -17.67767,-8.140696 -17.67767,-18.182749 0,-10.042053 7.91456,-18.182745 17.67767,-18.182745 9.76311,0 17.67767,8.140692 17.67767,18.182745 z"
       transform="matrix(0.73012957,0,0,0.70984819,86.193445,211.62006)" />
    <text
       xml:space="preserve"
       style="font-size:14px;font-style:normal;font-variant:normal;font-weight:normal;font-stretch:normal;line-height:125%;letter-spacing:0px;word-spacing:0px;fill:#000000;fill-opacity:1;stroke:none;font-family:DejaVu Sans;-inkscape-font-specification:DejaVu Sans"
       x="170.58252"
       y="279.15335"
       id="text2987-02"
       sodipodi:linespacing="125%"><tspan
         sodipodi:role="line"
         id="tspan2989-0"
         x="170.58252"
         y="279.15335">5</tspan></text>
    <path
       sodipodi:type="arc"
       style="fill:#ffffff;fill-opacity:1;fill-rule:nonzero;stroke:#000000;stroke-width:2;stroke-linecap:square;stroke-linejoin:miter;stroke-miterlimit:4;stroke-opacity:1;stroke-dasharray:none"
       id="path2985-3"
       sodipodi:cx="121.72338"
       sodipodi:cy="88.676651"
       sodipodi:rx="17.67767"
       sodipodi:ry="18.182745"
       d="m 139.40105,88.676651 c 0,10.042053 -7.91456,18.182749 -17.67767,18.182749 -9.76311,0 -17.67767,-8.140696 -17.67767,-18.182749 0,-10.042053 7.91456,-18.182745 17.67767,-18.182745 9.76311,0 17.67767,8.140692 17.67767,18.182745 z"
       transform="matrix(0.73012957,0,0,0.70984819,204.952,83.596825)" />
    <text
       xml:space="preserve"
       style="font-size:14px;font-style:normal;font-variant:normal;font-weight:normal;font-stretch:normal;line-height:125%;letter-spacing:0px;word-spacing:0px;fill:#000000;fill-opacity:1;stroke:none;font-family:DejaVu Sans;-inkscape-font-specification:DejaVu Sans"
       x="289.34106"
       y="151.1301"
       id="text2987-2"
       sodipodi:linespacing="125%"><tspan
         sodipodi:role="line"
         id="tspan2989-10"
         x="289.34106"
         y="151.1301">6</tspan></text>
    <path
       sodipodi:type="arc"
       style="fill:#ffffff;fill-opacity:1;fill-rule:nonzero;stroke:#000000;stroke-width:2;stroke-linecap:square;stroke-linejoin:miter;stroke-miterlimit:4;stroke-opacity:1;stroke-dasharray:none"
       id="path2985-30"
       sodipodi:cx="121.72338"
       sodipodi:cy="88.676651"
       sodipodi:rx="17.67767"
       sodipodi:ry="18.182745"
       d="m 139.40105,88.676651 c 0,10.042053 -7.91456,18.182749 -17.67767,18.182749 -9.76311,0 -17.67767,-8.140696 -17.67767,-18.182749 0,-10.042053 7.91456,-18.182745 17.67767,-18.182745 9.76311,0 17.67767,8.140692 17.67767,18.182745 z"
       transform="matrix(0.73012957,0,0,0.70984819,252.40527,93.097909)" />
    <text
       xml:space="preserve"
       style="font-size:14px;font-style:normal;font-variant:normal;font-weight:normal;font-stretch:normal;line-height:125%;letter-spacing:0px;word-spacing:0px;fill:#000000;fill-opacity:1;stroke:none;font-family:DejaVu Sans;-inkscape-font-specification:DejaVu Sans"
       x="336.79437"
       y="160.63118"
       id="text2987-9"
       sodipodi:linespacing="125%"><tspan
         sodipodi:role="line"
         id="tspan2989-30"
         x="336.79437"
         y="160.63118">7</tspan></text>
    <path
       sodipodi:type="arc"
       style="fill:#ffffff;fill-opacity:1;fill-rule:nonzero;stroke:#000000;stroke-width:2;stroke-linecap:square;stroke-linejoin:miter;stroke-miterlimit:4;stroke-opacity:1;stroke-dasharray:none"
       id="path2985-44"
       sodipodi:cx="121.72338"
       sodipodi:cy="88.676651"
       sodipodi:rx="17.67767"
       sodipodi:ry="18.182745"
       d="m 139.40105,88.676651 c 0,10.042053 -7.91456,18.182749 -17.67767,18.182749 -9.76311,0 -17.67767,-8.140696 -17.67767,-18.182749 0,-10.042053 7.91456,-18.182745 17.67767,-18.182745 9.76311,0 17.67767,8.140692 17.67767,18.182745 z"
       transform="matrix(0.73012957,0,0,0.70984819,306.88171,93.567089)" />
    <text
       xml:space="preserve"
       style="font-size:14px;font-style:normal;font-variant:normal;font-weight:normal;font-stretch:normal;line-height:125%;letter-spacing:0px;word-spacing:0px;fill:#000000;fill-opacity:1;stroke:none;font-family:DejaVu Sans;-inkscape-font-specification:DejaVu Sans"
       x="391.27081"
       y="161.10036"
       id="text2987-05"
       sodipodi:linespacing="125%"><tspan
         sodipodi:role="line"
         id="tspan2989-08"
         x="391.27081"
         y="161.10036">8</tspan></text>
    <path
       sodipodi:type="arc"
       style="fill:#ffffff;fill-opacity:1;fill-rule:nonzero;stroke:#000000;stroke-width:2;stroke-linecap:square;stroke-linejoin:miter;stroke-miterlimit:4;stroke-opacity:1;stroke-dasharray:none"
       id="path2985-83"
       sodipodi:cx="121.72338"
       sodipodi:cy="88.676651"
       sodipodi:rx="17.67767"
       sodipodi:ry="18.182745"
       d="m 139.40105,88.676651 c 0,10.042053 -7.91456,18.182749 -17.67767,18.182749 -9.76311,0 -17.67767,-8.140696 -17.67767,-18.182749 0,-10.042053 7.91456,-18.182745 17.67767,-18.182745 9.76311,0 17.67767,8.140692 17.67767,18.182745 z"
       transform="matrix(0.73012957,0,0,0.70984819,255.13986,183.74551)" />
    <text
       xml:space="preserve"
       style="font-size:14px;font-style:normal;font-variant:normal;font-weight:normal;font-stretch:normal;line-height:125%;letter-spacing:0px;word-spacing:0px;fill:#000000;fill-opacity:1;stroke:none;font-family:DejaVu Sans;-inkscape-font-specification:DejaVu Sans"
       x="339.52893"
       y="251.27878"
       id="text2987-8"
       sodipodi:linespacing="125%"><tspan
         sodipodi:role="line"
         id="tspan2989-36"
         x="339.52893"
         y="251.27878">9</tspan></text>
    <path
       sodipodi:type="arc"
       style="fill:#ffffff;fill-opacity:1;fill-rule:nonzero;stroke:#000000;stroke-width:2;stroke-linecap:square;stroke-linejoin:miter;stroke-miterlimit:4;stroke-opacity:1;stroke-dasharray:none"
       id="path2985-35"
       sodipodi:cx="121.72338"
       sodipodi:cy="88.676651"
       sodipodi:rx="17.67767"
       sodipodi:ry="18.182745"
       d="m 139.40105,88.676651 c 0,10.042053 -7.91456,18.182749 -17.67767,18.182749 -9.76311,0 -17.67767,-8.140696 -17.67767,-18.182749 0,-10.042053 7.91456,-18.182745 17.67767,-18.182745 9.76311,0 17.67767,8.140692 17.67767,18.182745 z"
       transform="matrix(0.73012957,0,0,0.70984819,308.67794,183.08198)" />
    <text
       xml:space="preserve"
       style="font-size:14px;font-style:normal;font-variant:normal;font-weight:normal;font-stretch:normal;line-height:125%;letter-spacing:0px;word-spacing:0px;fill:#000000;fill-opacity:1;stroke:none;font-family:DejaVu Sans;-inkscape-font-specification:DejaVu Sans"
       x="388.0163"
       y="250.61526"
       id="text2987-1"
       sodipodi:linespacing="125%"><tspan
         sodipodi:role="line"
         id="tspan2989-53"
         x="388.0163"
         y="250.61526">10</tspan></text>
    <path
       sodipodi:type="arc"
       style="fill:#ffffff;fill-opacity:1;fill-rule:nonzero;stroke:#000000;stroke-width:2;stroke-linecap:square;stroke-linejoin:miter;stroke-miterlimit:4;stroke-opacity:1;stroke-dasharray:none"
       id="path2985-82"
       sodipodi:cx="121.72338"
       sodipodi:cy="88.676651"
       sodipodi:rx="17.67767"
       sodipodi:ry="18.182745"
       d="m 139.40105,88.676651 c 0,10.042053 -7.91456,18.182749 -17.67767,18.182749 -9.76311,0 -17.67767,-8.140696 -17.67767,-18.182749 0,-10.042053 7.91456,-18.182745 17.67767,-18.182745 9.76311,0 17.67767,8.140692 17.67767,18.182745 z"
       transform="matrix(0.73012957,0,0,0.70984819,255.13986,232.63022)" />
    <text
       xml:space="preserve"
       style="font-size:14px;font-style:normal;font-variant:normal;font-weight:normal;font-stretch:normal;line-height:125%;letter-spacing:0px;word-spacing:0px;fill:#000000;fill-opacity:1;stroke:none;font-family:DejaVu Sans;-inkscape-font-specification:DejaVu Sans"
       x="334.47821"
       y="300.16348"
       id="text2987-7"
       sodipodi:linespacing="125%"><tspan
         sodipodi:role="line"
         id="tspan2989-07"
         x="334.47821"
         y="300.16348">11</tspan></text>
    <path
       sodipodi:type="arc"
       style="fill:#ffffff;fill-opacity:1;fill-rule:nonzero;stroke:#000000;stroke-width:2;stroke-linecap:square;stroke-linejoin:miter;stroke-miterlimit:4;stroke-opacity:1;stroke-dasharray:none"
       id="path2985-05"
       sodipodi:cx="121.72338"
       sodipodi:cy="88.676651"
       sodipodi:rx="17.67767"
       sodipodi:ry="18.182745"
       d="m 139.40105,88.676651 c 0,10.042053 -7.91456,18.182749 -17.67767,18.182749 -9.76311,0 -17.67767,-8.140696 -17.67767,-18.182749 0,-10.042053 7.91456,-18.182745 17.67767,-18.182745 9.76311,0 17.67767,8.140692 17.67767,18.182745 z"
       transform="matrix(0.73012957,0,0,0.70984819,307.89186,233.34451)" />
    <text
       xml:space="preserve"
       style="font-size:14px;font-style:normal;font-variant:normal;font-weight:normal;font-stretch:normal;line-height:125%;letter-spacing:0px;word-spacing:0px;fill:#000000;fill-opacity:1;stroke:none;font-family:DejaVu Sans;-inkscape-font-specification:DejaVu Sans"
       x="387.23022"
       y="300.87778"
       id="text2987-91"
       sodipodi:linespacing="125%"><tspan
         sodipodi:role="line"
         id="tspan2989-6"
         x="387.23022"
         y="300.87778">12</tspan></text>
    <path
       style="fill:none;stroke:#000000;stroke-width:1px;stroke-linecap:butt;stroke-linejoin:miter;stroke-opacity:1;marker-start:url(#Arrow1Mstart);marker-end:none"
       d="m 204.03189,222.65806 30,-33.57144"
       id="path5268"
       inkscape:connector-curvature="0" />
    <path
       style="fill:none;stroke:#000000;stroke-width:1px;stroke-linecap:butt;stroke-linejoin:miter;stroke-opacity:1;marker-start:url(#Arrow1Mstart);marker-end:none"
       d="m 357.60332,155.51519 22.14286,0"
       id="path5640"
       inkscape:connector-curvature="0" />
  </g>
</svg>
