<?xml version="1.0" encoding="UTF-8" standalone="no"?>
<!-- Created with Inkscape (http://www.inkscape.org/) -->

<svg
   xmlns:dc="http://purl.org/dc/elements/1.1/"
   xmlns:cc="http://creativecommons.org/ns#"
   xmlns:rdf="http://www.w3.org/1999/02/22-rdf-syntax-ns#"
   xmlns:svg="http://www.w3.org/2000/svg"
   xmlns="http://www.w3.org/2000/svg"
   xmlns:sodipodi="http://sodipodi.sourceforge.net/DTD/sodipodi-0.dtd"
   xmlns:inkscape="http://www.inkscape.org/namespaces/inkscape"
   width="307.90625"
   height="214.09375"
   id="svg12899"
   version="1.1"
   inkscape:version="0.48.4 r9939"
   sodipodi:docname="digraph7.svg">
  <defs
     id="defs12901">
    <marker
       inkscape:stockid="Arrow1Mend"
       orient="auto"
       refY="0"
       refX="0"
       id="Arrow1Mend"
       style="overflow:visible">
      <path
         id="path4101"
         d="M 0,0 5,-5 -12.5,0 5,5 0,0 z"
         style="fill-rule:evenodd;stroke:#000000;stroke-width:1pt"
         transform="matrix(-0.4,0,0,-0.4,-4,0)"
         inkscape:connector-curvature="0" />
    </marker>
    <marker
       inkscape:stockid="Arrow1Mend"
       orient="auto"
       refY="0"
       refX="0"
       id="marker12758"
       style="overflow:visible">
      <path
         id="path12760"
         d="M 0,0 5,-5 -12.5,0 5,5 0,0 z"
         style="fill-rule:evenodd;stroke:#000000;stroke-width:1pt"
         transform="matrix(-0.4,0,0,-0.4,-4,0)"
         inkscape:connector-curvature="0" />
    </marker>
    <marker
       inkscape:stockid="Arrow1Mend"
       orient="auto"
       refY="0"
       refX="0"
       id="marker12762"
       style="overflow:visible">
      <path
         id="path12764"
         d="M 0,0 5,-5 -12.5,0 5,5 0,0 z"
         style="fill-rule:evenodd;stroke:#000000;stroke-width:1pt"
         transform="matrix(-0.4,0,0,-0.4,-4,0)"
         inkscape:connector-curvature="0" />
    </marker>
    <marker
       inkscape:stockid="Arrow1Mend"
       orient="auto"
       refY="0"
       refX="0"
       id="marker12766"
       style="overflow:visible">
      <path
         id="path12768"
         d="M 0,0 5,-5 -12.5,0 5,5 0,0 z"
         style="fill-rule:evenodd;stroke:#000000;stroke-width:1pt"
         transform="matrix(-0.4,0,0,-0.4,-4,0)"
         inkscape:connector-curvature="0" />
    </marker>
    <marker
       inkscape:stockid="Arrow1Mend"
       orient="auto"
       refY="0"
       refX="0"
       id="marker12770"
       style="overflow:visible">
      <path
         id="path12772"
         d="M 0,0 5,-5 -12.5,0 5,5 0,0 z"
         style="fill-rule:evenodd;stroke:#000000;stroke-width:1pt"
         transform="matrix(-0.4,0,0,-0.4,-4,0)"
         inkscape:connector-curvature="0" />
    </marker>
    <marker
       inkscape:stockid="Arrow1Mend"
       orient="auto"
       refY="0"
       refX="0"
       id="marker12774"
       style="overflow:visible">
      <path
         id="path12776"
         d="M 0,0 5,-5 -12.5,0 5,5 0,0 z"
         style="fill-rule:evenodd;stroke:#000000;stroke-width:1pt"
         transform="matrix(-0.4,0,0,-0.4,-4,0)"
         inkscape:connector-curvature="0" />
    </marker>
    <marker
       inkscape:stockid="Arrow1Mend"
       orient="auto"
       refY="0"
       refX="0"
       id="marker12778"
       style="overflow:visible">
      <path
         id="path12780"
         d="M 0,0 5,-5 -12.5,0 5,5 0,0 z"
         style="fill-rule:evenodd;stroke:#000000;stroke-width:1pt"
         transform="matrix(-0.4,0,0,-0.4,-4,0)"
         inkscape:connector-curvature="0" />
    </marker>
    <marker
       inkscape:stockid="Arrow1Mend"
       orient="auto"
       refY="0"
       refX="0"
       id="marker12782"
       style="overflow:visible">
      <path
         id="path12784"
         d="M 0,0 5,-5 -12.5,0 5,5 0,0 z"
         style="fill-rule:evenodd;stroke:#000000;stroke-width:1pt"
         transform="matrix(-0.4,0,0,-0.4,-4,0)"
         inkscape:connector-curvature="0" />
    </marker>
    <marker
       inkscape:stockid="Arrow1Mend"
       orient="auto"
       refY="0"
       refX="0"
       id="marker12786"
       style="overflow:visible">
      <path
         id="path12788"
         d="M 0,0 5,-5 -12.5,0 5,5 0,0 z"
         style="fill-rule:evenodd;stroke:#000000;stroke-width:1pt"
         transform="matrix(-0.4,0,0,-0.4,-4,0)"
         inkscape:connector-curvature="0" />
    </marker>
    <marker
       inkscape:stockid="Arrow1Mend"
       orient="auto"
       refY="0"
       refX="0"
       id="marker12790"
       style="overflow:visible">
      <path
         id="path12792"
         d="M 0,0 5,-5 -12.5,0 5,5 0,0 z"
         style="fill-rule:evenodd;stroke:#000000;stroke-width:1pt"
         transform="matrix(-0.4,0,0,-0.4,-4,0)"
         inkscape:connector-curvature="0" />
    </marker>
    <marker
       inkscape:stockid="Arrow1Mend"
       orient="auto"
       refY="0"
       refX="0"
       id="marker12794"
       style="overflow:visible">
      <path
         id="path12796"
         d="M 0,0 5,-5 -12.5,0 5,5 0,0 z"
         style="fill-rule:evenodd;stroke:#000000;stroke-width:1pt"
         transform="matrix(-0.4,0,0,-0.4,-4,0)"
         inkscape:connector-curvature="0" />
    </marker>
    <marker
       inkscape:stockid="Arrow1Mend"
       orient="auto"
       refY="0"
       refX="0"
       id="marker12798"
       style="overflow:visible">
      <path
         id="path12800"
         d="M 0,0 5,-5 -12.5,0 5,5 0,0 z"
         style="fill-rule:evenodd;stroke:#000000;stroke-width:1pt"
         transform="matrix(-0.4,0,0,-0.4,-4,0)"
         inkscape:connector-curvature="0" />
    </marker>
    <marker
       inkscape:stockid="Arrow1Mend"
       orient="auto"
       refY="0"
       refX="0"
       id="marker12802"
       style="overflow:visible">
      <path
         id="path12804"
         d="M 0,0 5,-5 -12.5,0 5,5 0,0 z"
         style="fill-rule:evenodd;stroke:#000000;stroke-width:1pt"
         transform="matrix(-0.4,0,0,-0.4,-4,0)"
         inkscape:connector-curvature="0" />
    </marker>
    <marker
       inkscape:stockid="Arrow1Mend"
       orient="auto"
       refY="0"
       refX="0"
       id="marker12806"
       style="overflow:visible">
      <path
         id="path12808"
         d="M 0,0 5,-5 -12.5,0 5,5 0,0 z"
         style="fill-rule:evenodd;stroke:#000000;stroke-width:1pt"
         transform="matrix(-0.4,0,0,-0.4,-4,0)"
         inkscape:connector-curvature="0" />
    </marker>
    <marker
       inkscape:stockid="Arrow1Mend"
       orient="auto"
       refY="0"
       refX="0"
       id="marker12810"
       style="overflow:visible">
      <path
         id="path12812"
         d="M 0,0 5,-5 -12.5,0 5,5 0,0 z"
         style="fill-rule:evenodd;stroke:#000000;stroke-width:1pt"
         transform="matrix(-0.4,0,0,-0.4,-4,0)"
         inkscape:connector-curvature="0" />
    </marker>
    <marker
       inkscape:stockid="Arrow1Mend"
       orient="auto"
       refY="0"
       refX="0"
       id="marker12814"
       style="overflow:visible">
      <path
         id="path12816"
         d="M 0,0 5,-5 -12.5,0 5,5 0,0 z"
         style="fill-rule:evenodd;stroke:#000000;stroke-width:1pt"
         transform="matrix(-0.4,0,0,-0.4,-4,0)"
         inkscape:connector-curvature="0" />
    </marker>
    <marker
       inkscape:stockid="Arrow1Mend"
       orient="auto"
       refY="0"
       refX="0"
       id="marker12818"
       style="overflow:visible">
      <path
         id="path12820"
         d="M 0,0 5,-5 -12.5,0 5,5 0,0 z"
         style="fill-rule:evenodd;stroke:#000000;stroke-width:1pt"
         transform="matrix(-0.4,0,0,-0.4,-4,0)"
         inkscape:connector-curvature="0" />
    </marker>
    <marker
       inkscape:stockid="Arrow1Mend"
       orient="auto"
       refY="0"
       refX="0"
       id="marker12822"
       style="overflow:visible">
      <path
         id="path12824"
         d="M 0,0 5,-5 -12.5,0 5,5 0,0 z"
         style="fill-rule:evenodd;stroke:#000000;stroke-width:1pt"
         transform="matrix(-0.4,0,0,-0.4,-4,0)"
         inkscape:connector-curvature="0" />
    </marker>
    <marker
       inkscape:stockid="Arrow1Mstart"
       orient="auto"
       refY="0"
       refX="0"
       id="Arrow1Mstart"
       style="overflow:visible">
      <path
         id="path4098"
         d="M 0,0 5,-5 -12.5,0 5,5 0,0 z"
         style="fill-rule:evenodd;stroke:#000000;stroke-width:1pt"
         transform="matrix(0.4,0,0,0.4,4,0)"
         inkscape:connector-curvature="0" />
    </marker>
    <marker
       inkscape:stockid="Arrow1Mend"
       orient="auto"
       refY="0"
       refX="0"
       id="marker12828"
       style="overflow:visible">
      <path
         id="path12830"
         d="M 0,0 5,-5 -12.5,0 5,5 0,0 z"
         style="fill-rule:evenodd;stroke:#000000;stroke-width:1pt"
         transform="matrix(-0.4,0,0,-0.4,-4,0)"
         inkscape:connector-curvature="0" />
    </marker>
    <marker
       inkscape:stockid="Arrow1Mstart"
       orient="auto"
       refY="0"
       refX="0"
       id="marker12832"
       style="overflow:visible">
      <path
         id="path12834"
         d="M 0,0 5,-5 -12.5,0 5,5 0,0 z"
         style="fill-rule:evenodd;stroke:#000000;stroke-width:1pt"
         transform="matrix(0.4,0,0,0.4,4,0)"
         inkscape:connector-curvature="0" />
    </marker>
    <marker
       inkscape:stockid="Arrow1Mend"
       orient="auto"
       refY="0"
       refX="0"
       id="marker12836"
       style="overflow:visible">
      <path
         id="path12838"
         d="M 0,0 5,-5 -12.5,0 5,5 0,0 z"
         style="fill-rule:evenodd;stroke:#000000;stroke-width:1pt"
         transform="matrix(-0.4,0,0,-0.4,-4,0)"
         inkscape:connector-curvature="0" />
    </marker>
  </defs>
  <sodipodi:namedview
     id="base"
     pagecolor="#ffffff"
     bordercolor="#666666"
     borderopacity="1.0"
     inkscape:pageopacity="0.0"
     inkscape:pageshadow="2"
     inkscape:zoom="0.98994949"
     inkscape:cx="218.875"
     inkscape:cy="50.730382"
     inkscape:document-units="px"
     inkscape:current-layer="layer1"
     showgrid="false"
     inkscape:window-width="1364"
     inkscape:window-height="710"
     inkscape:window-x="1"
     inkscape:window-y="1"
     inkscape:window-maximized="1"
     fit-margin-top="0"
     fit-margin-left="0"
     fit-margin-right="0"
     fit-margin-bottom="0" />
  <metadata
     id="metadata12904">
    <rdf:RDF>
      <cc:Work
         rdf:about="">
        <dc:format>image/svg+xml</dc:format>
        <dc:type
           rdf:resource="http://purl.org/dc/dcmitype/StillImage" />
        <dc:title></dc:title>
      </cc:Work>
    </rdf:RDF>
  </metadata>
  <g
     inkscape:label="Layer 1"
     inkscape:groupmode="layer"
     id="layer1"
     transform="translate(-156.125,-45.75)">
    <rect
       style="fill:#cccccc;fill-opacity:1;fill-rule:nonzero;stroke:#cccccc;stroke-width:0.72761655;stroke-linecap:square;stroke-linejoin:miter;stroke-miterlimit:4;stroke-opacity:1;stroke-dasharray:none"
       id="rect14009"
       width="30.576962"
       height="32.597267"
       x="329.13293"
       y="77.408478"
       ry="3.8653779" />
    <rect
       style="fill:#cccccc;fill-opacity:1;fill-rule:nonzero;stroke:#cccccc;stroke-width:0.67021096;stroke-linecap:square;stroke-linejoin:miter;stroke-miterlimit:4;stroke-opacity:1;stroke-dasharray:none"
       id="rect14007"
       width="30.634365"
       height="31.644518"
       x="156.46967"
       y="91.623436"
       ry="3.5927246" />
    <rect
       style="fill:#cccccc;fill-opacity:1;fill-rule:nonzero;stroke:#cccccc;stroke-width:0.84853512;stroke-linecap:square;stroke-linejoin:miter;stroke-miterlimit:4;stroke-opacity:1;stroke-dasharray:none"
       id="rect14011"
       width="102.17686"
       height="190.06015"
       x="208.0157"
       y="46.174515"
       ry="4.5275822" />
    <path
       style="fill:none;stroke:#000000;stroke-width:1px;stroke-linecap:butt;stroke-linejoin:miter;stroke-opacity:1;marker-end:url(#marker12836)"
       d="M 223.24371,61.402536 176.7767,91.707112"
       id="path13141"
       inkscape:connector-curvature="0" />
    <rect
       style="fill:#cccccc;fill-opacity:1;fill-rule:nonzero;stroke:#cccccc;stroke-width:0.84051859;stroke-linecap:square;stroke-linejoin:miter;stroke-miterlimit:4;stroke-opacity:1;stroke-dasharray:none"
       id="rect13139"
       width="87.032608"
       height="28.443754"
       x="375.6564"
       y="89.586761"
       ry="5.3902669" />
    <rect
       style="fill:#cccccc;fill-opacity:1;fill-rule:nonzero;stroke:#cccccc;stroke-width:0.67775398;stroke-linecap:square;stroke-linejoin:miter;stroke-miterlimit:4;stroke-opacity:1;stroke-dasharray:none"
       id="rect13118"
       width="84.164902"
       height="82.144592"
       x="379.53445"
       y="177.36833"
       ry="6.508625" />
    <path
       style="fill:none;stroke:#000000;stroke-width:1px;stroke-linecap:butt;stroke-linejoin:miter;stroke-opacity:1;marker-end:url(#Arrow1Mend)"
       d="m 243.82524,182.69139 -12.14286,23.57143"
       id="path6564"
       inkscape:connector-curvature="0" />
    <path
       style="fill:none;stroke:#000000;stroke-width:1px;stroke-linecap:butt;stroke-linejoin:miter;stroke-opacity:1;marker-end:url(#Arrow1Mend)"
       d="m 225.25381,221.26282 44.28571,-14.28571"
       id="path6750"
       inkscape:connector-curvature="0" />
    <path
       style="fill:none;stroke:#000000;stroke-width:1px;stroke-linecap:butt;stroke-linejoin:miter;stroke-opacity:1;marker-end:url(#Arrow1Mend)"
       d="M 284.53952,200.54854 260.25381,186.26282"
       id="path6936"
       inkscape:connector-curvature="0" />
    <path
       style="fill:none;stroke:#000000;stroke-width:1px;stroke-linecap:butt;stroke-linejoin:miter;stroke-opacity:1;marker-end:url(#Arrow1Mend)"
       d="m 286.68238,201.97711 7.85714,-62.85714"
       id="path7122"
       inkscape:connector-curvature="0" />
    <path
       style="fill:none;stroke:#000000;stroke-width:1px;stroke-linecap:butt;stroke-linejoin:miter;stroke-opacity:1;marker-end:url(#Arrow1Mend)"
       d="M 345.25381,94.119968 292.39667,187.69139"
       id="path7308"
       inkscape:connector-curvature="0" />
    <path
       style="fill:none;stroke:#000000;stroke-width:1px;stroke-linecap:butt;stroke-linejoin:miter;stroke-opacity:1;marker-end:url(#Arrow1Mend)"
       d="m 345.25381,94.119968 44.28571,82.857142"
       id="path7494"
       inkscape:connector-curvature="0" />
    <path
       style="fill:none;stroke:#000000;stroke-width:1px;stroke-linecap:butt;stroke-linejoin:miter;stroke-opacity:1;marker-end:url(#Arrow1Mend)"
       d="m 446.68238,104.11997 -48.57143,72.85714"
       id="path7680"
       inkscape:connector-curvature="0" />
    <path
       style="fill:none;stroke:#000000;stroke-width:1px;stroke-linecap:butt;stroke-linejoin:miter;stroke-opacity:1;marker-end:url(#Arrow1Mend)"
       d="m 393.11095,194.11997 0.71429,32.14285"
       id="path7866"
       inkscape:connector-curvature="0" />
    <path
       style="fill:none;stroke:#000000;stroke-width:1px;stroke-linecap:butt;stroke-linejoin:miter;stroke-opacity:1;marker-end:url(#Arrow1Mend)"
       d="m 394.53952,191.26282 37.14286,0.71429"
       id="path8052"
       inkscape:connector-curvature="0" />
    <path
       style="fill:none;stroke:#000000;stroke-width:1px;stroke-linecap:butt;stroke-linejoin:miter;stroke-opacity:1;marker-end:url(#Arrow1Mend)"
       d="m 445.9681,191.97711 0.71428,33.57143"
       id="path8238"
       inkscape:connector-curvature="0" />
    <path
       style="fill:none;stroke:#000000;stroke-width:1px;stroke-linecap:butt;stroke-linejoin:miter;stroke-opacity:1;marker-end:url(#Arrow1Mend)"
       d="m 445.25381,243.40568 -40,-39.28571"
       id="path8424"
       inkscape:connector-curvature="0" />
    <path
       style="fill:none;stroke:#000000;stroke-width:1px;stroke-linecap:butt;stroke-linejoin:miter;stroke-opacity:1;marker-end:url(#Arrow1Mend)"
       d="m 393.11095,241.97711 38.57143,0"
       id="path8610"
       inkscape:connector-curvature="0" />
    <path
       style="fill:none;stroke:#000000;stroke-width:1px;stroke-linecap:butt;stroke-linejoin:miter;stroke-opacity:1;marker-end:url(#Arrow1Mend)"
       d="M 393.82524,242.69139 299.53952,209.11997"
       id="path8796"
       inkscape:connector-curvature="0" />
    <path
       style="fill:none;stroke:#000000;stroke-width:1px;stroke-linecap:butt;stroke-linejoin:miter;stroke-opacity:1;marker-end:url(#Arrow1Mend)"
       d="M 390.9681,101.26282 360.25381,95.548538"
       id="path6378"
       inkscape:connector-curvature="0" />
    <path
       style="fill:none;stroke:#000000;stroke-width:1px;stroke-linecap:butt;stroke-linejoin:miter;stroke-opacity:1;marker-end:url(#Arrow1Mend)"
       d="M 345.25381,93.405678 240.9681,64.834248"
       id="path4900"
       inkscape:connector-curvature="0" />
    <path
       style="fill:none;stroke:#000000;stroke-width:1px;stroke-linecap:butt;stroke-linejoin:miter;stroke-opacity:1;marker-end:url(#Arrow1Mend)"
       d="M 293.82524,122.69139 236.68238,72.691388"
       id="path5084"
       inkscape:connector-curvature="0" />
    <path
       style="fill:none;stroke:#000000;stroke-width:1px;stroke-linecap:butt;stroke-linejoin:miter;stroke-opacity:1;marker-end:url(#Arrow1Mend)"
       d="M 224.53952,61.262818 223.82524,203.40568"
       id="path4532"
       inkscape:connector-curvature="0" />
    <path
       sodipodi:type="arc"
       style="fill:#ffffff;fill-opacity:1;fill-rule:nonzero;stroke:#000000;stroke-width:2;stroke-linecap:square;stroke-linejoin:miter;stroke-miterlimit:4;stroke-opacity:1;stroke-dasharray:none"
       id="path2985"
       sodipodi:cx="121.72338"
       sodipodi:cy="88.676651"
       sodipodi:rx="17.67767"
       sodipodi:ry="18.182745"
       d="m 139.40105,88.676651 c 0,10.042053 -7.91456,18.182749 -17.67767,18.182749 -9.76311,0 -17.67767,-8.140696 -17.67767,-18.182749 0,-10.042053 7.91456,-18.182745 17.67767,-18.182745 9.76311,0 17.67767,8.140692 17.67767,18.182745 z"
       transform="matrix(0.73012957,0,0,0.70984819,135.82834,-1.0678125)" />
    <text
       xml:space="preserve"
       style="font-size:14px;font-style:normal;font-variant:normal;font-weight:normal;font-stretch:normal;line-height:125%;letter-spacing:0px;word-spacing:0px;fill:#000000;fill-opacity:1;stroke:none;font-family:DejaVu Sans;-inkscape-font-specification:DejaVu Sans"
       x="220.21744"
       y="66.465462"
       id="text2987"
       sodipodi:linespacing="125%"><tspan
         sodipodi:role="line"
         id="tspan2989"
         x="220.21744"
         y="66.465462">0</tspan></text>
    <path
       sodipodi:type="arc"
       style="fill:#ffffff;fill-opacity:1;fill-rule:nonzero;stroke:#000000;stroke-width:2;stroke-linecap:square;stroke-linejoin:miter;stroke-miterlimit:4;stroke-opacity:1;stroke-dasharray:none"
       id="path2985-6"
       sodipodi:cx="121.72338"
       sodipodi:cy="88.676651"
       sodipodi:rx="17.67767"
       sodipodi:ry="18.182745"
       d="m 139.40105,88.676651 c 0,10.042053 -7.91456,18.182749 -17.67767,18.182749 -9.76311,0 -17.67767,-8.140696 -17.67767,-18.182749 0,-10.042053 7.91456,-18.182745 17.67767,-18.182745 9.76311,0 17.67767,8.140692 17.67767,18.182745 z"
       transform="matrix(0.73012957,0,0,0.70984819,83.581407,44.129082)" />
    <text
       xml:space="preserve"
       style="font-size:14px;font-style:normal;font-variant:normal;font-weight:normal;font-stretch:normal;line-height:125%;letter-spacing:0px;word-spacing:0px;fill:#000000;fill-opacity:1;stroke:none;font-family:DejaVu Sans;-inkscape-font-specification:DejaVu Sans"
       x="167.97049"
       y="111.66235"
       id="text2987-3"
       sodipodi:linespacing="125%"><tspan
         sodipodi:role="line"
         id="tspan2989-3"
         x="167.97049"
         y="111.66235">1</tspan></text>
    <path
       sodipodi:type="arc"
       style="fill:#ffffff;fill-opacity:1;fill-rule:nonzero;stroke:#000000;stroke-width:2;stroke-linecap:square;stroke-linejoin:miter;stroke-miterlimit:4;stroke-opacity:1;stroke-dasharray:none"
       id="path2985-8"
       sodipodi:cx="121.72338"
       sodipodi:cy="88.676651"
       sodipodi:rx="17.67767"
       sodipodi:ry="18.182745"
       d="m 139.40105,88.676651 c 0,10.042053 -7.91456,18.182749 -17.67767,18.182749 -9.76311,0 -17.67767,-8.140696 -17.67767,-18.182749 0,-10.042053 7.91456,-18.182745 17.67767,-18.182745 9.76311,0 17.67767,8.140692 17.67767,18.182745 z"
       transform="matrix(0.73012957,0,0,0.70984819,205.39145,59.302398)" />
    <text
       xml:space="preserve"
       style="font-size:14px;font-style:normal;font-variant:normal;font-weight:normal;font-stretch:normal;line-height:125%;letter-spacing:0px;word-spacing:0px;fill:#000000;fill-opacity:1;stroke:none;font-family:DejaVu Sans;-inkscape-font-specification:DejaVu Sans"
       x="289.78052"
       y="126.83567"
       id="text2987-5"
       sodipodi:linespacing="125%"><tspan
         sodipodi:role="line"
         id="tspan2989-1"
         x="289.78052"
         y="126.83567">2</tspan></text>
    <path
       sodipodi:type="arc"
       style="fill:#ffffff;fill-opacity:1;fill-rule:nonzero;stroke:#000000;stroke-width:2;stroke-linecap:square;stroke-linejoin:miter;stroke-miterlimit:4;stroke-opacity:1;stroke-dasharray:none"
       id="path2985-5"
       sodipodi:cx="121.72338"
       sodipodi:cy="88.676651"
       sodipodi:rx="17.67767"
       sodipodi:ry="18.182745"
       d="m 139.40105,88.676651 c 0,10.042053 -7.91456,18.182749 -17.67767,18.182749 -9.76311,0 -17.67767,-8.140696 -17.67767,-18.182749 0,-10.042053 7.91456,-18.182745 17.67767,-18.182745 9.76311,0 17.67767,8.140692 17.67767,18.182745 z"
       transform="matrix(0.73012957,0,0,0.70984819,155.75039,119.5439)" />
    <text
       xml:space="preserve"
       style="font-size:14px;font-style:normal;font-variant:normal;font-weight:normal;font-stretch:normal;line-height:125%;letter-spacing:0px;word-spacing:0px;fill:#000000;fill-opacity:1;stroke:none;font-family:DejaVu Sans;-inkscape-font-specification:DejaVu Sans"
       x="240.13947"
       y="187.07716"
       id="text2987-0"
       sodipodi:linespacing="125%"><tspan
         sodipodi:role="line"
         id="tspan2989-5"
         x="240.13947"
         y="187.07716">3</tspan></text>
    <path
       sodipodi:type="arc"
       style="fill:#ffffff;fill-opacity:1;fill-rule:nonzero;stroke:#000000;stroke-width:2;stroke-linecap:square;stroke-linejoin:miter;stroke-miterlimit:4;stroke-opacity:1;stroke-dasharray:none"
       id="path2985-0"
       sodipodi:cx="121.72338"
       sodipodi:cy="88.676651"
       sodipodi:rx="17.67767"
       sodipodi:ry="18.182745"
       d="m 139.40105,88.676651 c 0,10.042053 -7.91456,18.182749 -17.67767,18.182749 -9.76311,0 -17.67767,-8.140696 -17.67767,-18.182749 0,-10.042053 7.91456,-18.182745 17.67767,-18.182745 9.76311,0 17.67767,8.140692 17.67767,18.182745 z"
       transform="matrix(0.73012957,0,0,0.70984819,196.03394,138.88909)" />
    <text
       xml:space="preserve"
       style="font-size:14px;font-style:normal;font-variant:normal;font-weight:normal;font-stretch:normal;line-height:125%;letter-spacing:0px;word-spacing:0px;fill:#000000;fill-opacity:1;stroke:none;font-family:DejaVu Sans;-inkscape-font-specification:DejaVu Sans"
       x="280.42303"
       y="206.42236"
       id="text2987-54"
       sodipodi:linespacing="125%"><tspan
         sodipodi:role="line"
         id="tspan2989-7"
         x="280.42303"
         y="206.42236">4</tspan></text>
    <path
       sodipodi:type="arc"
       style="fill:#ffffff;fill-opacity:1;fill-rule:nonzero;stroke:#000000;stroke-width:2;stroke-linecap:square;stroke-linejoin:miter;stroke-miterlimit:4;stroke-opacity:1;stroke-dasharray:none"
       id="path2985-4"
       sodipodi:cx="121.72338"
       sodipodi:cy="88.676651"
       sodipodi:rx="17.67767"
       sodipodi:ry="18.182745"
       d="m 139.40105,88.676651 c 0,10.042053 -7.91456,18.182749 -17.67767,18.182749 -9.76311,0 -17.67767,-8.140696 -17.67767,-18.182749 0,-10.042053 7.91456,-18.182745 17.67767,-18.182745 9.76311,0 17.67767,8.140692 17.67767,18.182745 z"
       transform="matrix(0.73012957,0,0,0.70984819,136.70107,158.08197)" />
    <text
       xml:space="preserve"
       style="font-size:14px;font-style:normal;font-variant:normal;font-weight:normal;font-stretch:normal;line-height:125%;letter-spacing:0px;word-spacing:0px;fill:#000000;fill-opacity:1;stroke:none;font-family:DejaVu Sans;-inkscape-font-specification:DejaVu Sans"
       x="221.09015"
       y="225.61526"
       id="text2987-02"
       sodipodi:linespacing="125%"><tspan
         sodipodi:role="line"
         id="tspan2989-0"
         x="221.09015"
         y="225.61526">5</tspan></text>
    <path
       sodipodi:type="arc"
       style="fill:#ffffff;fill-opacity:1;fill-rule:nonzero;stroke:#000000;stroke-width:2;stroke-linecap:square;stroke-linejoin:miter;stroke-miterlimit:4;stroke-opacity:1;stroke-dasharray:none"
       id="path2985-3"
       sodipodi:cx="121.72338"
       sodipodi:cy="88.676651"
       sodipodi:rx="17.67767"
       sodipodi:ry="18.182745"
       d="m 139.40105,88.676651 c 0,10.042053 -7.91456,18.182749 -17.67767,18.182749 -9.76311,0 -17.67767,-8.140696 -17.67767,-18.182749 0,-10.042053 7.91456,-18.182745 17.67767,-18.182745 9.76311,0 17.67767,8.140692 17.67767,18.182745 z"
       transform="matrix(0.73012957,0,0,0.70984819,255.45963,30.058741)" />
    <text
       xml:space="preserve"
       style="font-size:14px;font-style:normal;font-variant:normal;font-weight:normal;font-stretch:normal;line-height:125%;letter-spacing:0px;word-spacing:0px;fill:#000000;fill-opacity:1;stroke:none;font-family:DejaVu Sans;-inkscape-font-specification:DejaVu Sans"
       x="339.84869"
       y="97.592003"
       id="text2987-2"
       sodipodi:linespacing="125%"><tspan
         sodipodi:role="line"
         id="tspan2989-10"
         x="339.84869"
         y="97.592003">6</tspan></text>
    <path
       sodipodi:type="arc"
       style="fill:#ffffff;fill-opacity:1;fill-rule:nonzero;stroke:#000000;stroke-width:2;stroke-linecap:square;stroke-linejoin:miter;stroke-miterlimit:4;stroke-opacity:1;stroke-dasharray:none"
       id="path2985-30"
       sodipodi:cx="121.72338"
       sodipodi:cy="88.676651"
       sodipodi:rx="17.67767"
       sodipodi:ry="18.182745"
       d="m 139.40105,88.676651 c 0,10.042053 -7.91456,18.182749 -17.67767,18.182749 -9.76311,0 -17.67767,-8.140696 -17.67767,-18.182749 0,-10.042053 7.91456,-18.182745 17.67767,-18.182745 9.76311,0 17.67767,8.140692 17.67767,18.182745 z"
       transform="matrix(0.73012957,0,0,0.70984819,302.9129,39.559823)" />
    <text
       xml:space="preserve"
       style="font-size:14px;font-style:normal;font-variant:normal;font-weight:normal;font-stretch:normal;line-height:125%;letter-spacing:0px;word-spacing:0px;fill:#000000;fill-opacity:1;stroke:none;font-family:DejaVu Sans;-inkscape-font-specification:DejaVu Sans"
       x="387.30197"
       y="107.09309"
       id="text2987-9"
       sodipodi:linespacing="125%"><tspan
         sodipodi:role="line"
         id="tspan2989-30"
         x="387.30197"
         y="107.09309">7</tspan></text>
    <path
       sodipodi:type="arc"
       style="fill:#ffffff;fill-opacity:1;fill-rule:nonzero;stroke:#000000;stroke-width:2;stroke-linecap:square;stroke-linejoin:miter;stroke-miterlimit:4;stroke-opacity:1;stroke-dasharray:none"
       id="path2985-44"
       sodipodi:cx="121.72338"
       sodipodi:cy="88.676651"
       sodipodi:rx="17.67767"
       sodipodi:ry="18.182745"
       d="m 139.40105,88.676651 c 0,10.042053 -7.91456,18.182749 -17.67767,18.182749 -9.76311,0 -17.67767,-8.140696 -17.67767,-18.182749 0,-10.042053 7.91456,-18.182745 17.67767,-18.182745 9.76311,0 17.67767,8.140692 17.67767,18.182745 z"
       transform="matrix(0.73012957,0,0,0.70984819,357.38934,40.029004)" />
    <text
       xml:space="preserve"
       style="font-size:14px;font-style:normal;font-variant:normal;font-weight:normal;font-stretch:normal;line-height:125%;letter-spacing:0px;word-spacing:0px;fill:#000000;fill-opacity:1;stroke:none;font-family:DejaVu Sans;-inkscape-font-specification:DejaVu Sans"
       x="441.77841"
       y="107.56226"
       id="text2987-05"
       sodipodi:linespacing="125%"><tspan
         sodipodi:role="line"
         id="tspan2989-08"
         x="441.77841"
         y="107.56226">8</tspan></text>
    <path
       sodipodi:type="arc"
       style="fill:#ffffff;fill-opacity:1;fill-rule:nonzero;stroke:#000000;stroke-width:2;stroke-linecap:square;stroke-linejoin:miter;stroke-miterlimit:4;stroke-opacity:1;stroke-dasharray:none"
       id="path2985-83"
       sodipodi:cx="121.72338"
       sodipodi:cy="88.676651"
       sodipodi:rx="17.67767"
       sodipodi:ry="18.182745"
       d="m 139.40105,88.676651 c 0,10.042053 -7.91456,18.182749 -17.67767,18.182749 -9.76311,0 -17.67767,-8.140696 -17.67767,-18.182749 0,-10.042053 7.91456,-18.182745 17.67767,-18.182745 9.76311,0 17.67767,8.140692 17.67767,18.182745 z"
       transform="matrix(0.73012957,0,0,0.70984819,305.64749,130.20743)" />
    <text
       xml:space="preserve"
       style="font-size:14px;font-style:normal;font-variant:normal;font-weight:normal;font-stretch:normal;line-height:125%;letter-spacing:0px;word-spacing:0px;fill:#000000;fill-opacity:1;stroke:none;font-family:DejaVu Sans;-inkscape-font-specification:DejaVu Sans"
       x="390.03653"
       y="197.74068"
       id="text2987-8"
       sodipodi:linespacing="125%"><tspan
         sodipodi:role="line"
         id="tspan2989-36"
         x="390.03653"
         y="197.74068">9</tspan></text>
    <path
       sodipodi:type="arc"
       style="fill:#ffffff;fill-opacity:1;fill-rule:nonzero;stroke:#000000;stroke-width:2;stroke-linecap:square;stroke-linejoin:miter;stroke-miterlimit:4;stroke-opacity:1;stroke-dasharray:none"
       id="path2985-35"
       sodipodi:cx="121.72338"
       sodipodi:cy="88.676651"
       sodipodi:rx="17.67767"
       sodipodi:ry="18.182745"
       d="m 139.40105,88.676651 c 0,10.042053 -7.91456,18.182749 -17.67767,18.182749 -9.76311,0 -17.67767,-8.140696 -17.67767,-18.182749 0,-10.042053 7.91456,-18.182745 17.67767,-18.182745 9.76311,0 17.67767,8.140692 17.67767,18.182745 z"
       transform="matrix(0.73012957,0,0,0.70984819,359.18557,129.5439)" />
    <text
       xml:space="preserve"
       style="font-size:14px;font-style:normal;font-variant:normal;font-weight:normal;font-stretch:normal;line-height:125%;letter-spacing:0px;word-spacing:0px;fill:#000000;fill-opacity:1;stroke:none;font-family:DejaVu Sans;-inkscape-font-specification:DejaVu Sans"
       x="438.5239"
       y="197.07716"
       id="text2987-1"
       sodipodi:linespacing="125%"><tspan
         sodipodi:role="line"
         id="tspan2989-53"
         x="438.5239"
         y="197.07716">10</tspan></text>
    <path
       sodipodi:type="arc"
       style="fill:#ffffff;fill-opacity:1;fill-rule:nonzero;stroke:#000000;stroke-width:2;stroke-linecap:square;stroke-linejoin:miter;stroke-miterlimit:4;stroke-opacity:1;stroke-dasharray:none"
       id="path2985-82"
       sodipodi:cx="121.72338"
       sodipodi:cy="88.676651"
       sodipodi:rx="17.67767"
       sodipodi:ry="18.182745"
       d="m 139.40105,88.676651 c 0,10.042053 -7.91456,18.182749 -17.67767,18.182749 -9.76311,0 -17.67767,-8.140696 -17.67767,-18.182749 0,-10.042053 7.91456,-18.182745 17.67767,-18.182745 9.76311,0 17.67767,8.140692 17.67767,18.182745 z"
       transform="matrix(0.73012957,0,0,0.70984819,305.64749,179.09213)" />
    <text
       xml:space="preserve"
       style="font-size:14px;font-style:normal;font-variant:normal;font-weight:normal;font-stretch:normal;line-height:125%;letter-spacing:0px;word-spacing:0px;fill:#000000;fill-opacity:1;stroke:none;font-family:DejaVu Sans;-inkscape-font-specification:DejaVu Sans"
       x="384.98581"
       y="246.6254"
       id="text2987-7"
       sodipodi:linespacing="125%"><tspan
         sodipodi:role="line"
         id="tspan2989-07"
         x="384.98581"
         y="246.6254">11</tspan></text>
    <path
       sodipodi:type="arc"
       style="fill:#ffffff;fill-opacity:1;fill-rule:nonzero;stroke:#000000;stroke-width:2;stroke-linecap:square;stroke-linejoin:miter;stroke-miterlimit:4;stroke-opacity:1;stroke-dasharray:none"
       id="path2985-05"
       sodipodi:cx="121.72338"
       sodipodi:cy="88.676651"
       sodipodi:rx="17.67767"
       sodipodi:ry="18.182745"
       d="m 139.40105,88.676651 c 0,10.042053 -7.91456,18.182749 -17.67767,18.182749 -9.76311,0 -17.67767,-8.140696 -17.67767,-18.182749 0,-10.042053 7.91456,-18.182745 17.67767,-18.182745 9.76311,0 17.67767,8.140692 17.67767,18.182745 z"
       transform="matrix(0.73012957,0,0,0.70984819,358.39949,179.80642)" />
    <text
       xml:space="preserve"
       style="font-size:14px;font-style:normal;font-variant:normal;font-weight:normal;font-stretch:normal;line-height:125%;letter-spacing:0px;word-spacing:0px;fill:#000000;fill-opacity:1;stroke:none;font-family:DejaVu Sans;-inkscape-font-specification:DejaVu Sans"
       x="437.73782"
       y="247.33969"
       id="text2987-91"
       sodipodi:linespacing="125%"><tspan
         sodipodi:role="line"
         id="tspan2989-6"
         x="437.73782"
         y="247.33969">12</tspan></text>
    <path
       style="fill:none;stroke:#000000;stroke-width:1px;stroke-linecap:butt;stroke-linejoin:miter;stroke-opacity:1;marker-start:url(#Arrow1Mstart);marker-end:url(#Arrow1Mend)"
       d="m 254.53952,169.11997 30,-33.57143"
       id="path5268"
       inkscape:connector-curvature="0" />
    <path
       style="fill:none;stroke:#000000;stroke-width:1px;stroke-linecap:butt;stroke-linejoin:miter;stroke-opacity:1;marker-start:url(#Arrow1Mstart);marker-end:url(#Arrow1Mend)"
       d="m 408.11095,101.97711 22.14286,0"
       id="path5640"
       inkscape:connector-curvature="0" />
  </g>
</svg>
