<?xml version="1.0" encoding="UTF-8" standalone="no"?>
<!-- Created with Inkscape (http://www.inkscape.org/) -->

<svg
   xmlns:dc="http://purl.org/dc/elements/1.1/"
   xmlns:cc="http://creativecommons.org/ns#"
   xmlns:rdf="http://www.w3.org/1999/02/22-rdf-syntax-ns#"
   xmlns:svg="http://www.w3.org/2000/svg"
   xmlns="http://www.w3.org/2000/svg"
   xmlns:sodipodi="http://sodipodi.sourceforge.net/DTD/sodipodi-0.dtd"
   xmlns:inkscape="http://www.inkscape.org/namespaces/inkscape"
   width="484.78244"
   height="293.22195"
   id="svg3093"
   version="1.1"
   inkscape:version="0.48.4 r9939"
   sodipodi:docname="digraph6.svg">
  <defs
     id="defs3095">
    <marker
       inkscape:stockid="Arrow1Mstart"
       orient="auto"
       refY="0"
       refX="0"
       id="Arrow1Mstart"
       style="overflow:visible">
      <path
         id="path3926"
         d="M 0,0 5,-5 -12.5,0 5,5 0,0 z"
         style="fill-rule:evenodd;stroke:#000000;stroke-width:1pt"
         transform="matrix(0.4,0,0,0.4,4,0)"
         inkscape:connector-curvature="0" />
    </marker>
    <marker
       inkscape:stockid="Arrow1Mend"
       orient="auto"
       refY="0"
       refX="0"
       id="Arrow1Mend"
       style="overflow:visible">
      <path
         id="path3929"
         d="M 0,0 5,-5 -12.5,0 5,5 0,0 z"
         style="fill-rule:evenodd;stroke:#000000;stroke-width:1pt"
         transform="matrix(-0.4,0,0,-0.4,-4,0)"
         inkscape:connector-curvature="0" />
    </marker>
  </defs>
  <sodipodi:namedview
     id="base"
     pagecolor="#ffffff"
     bordercolor="#666666"
     borderopacity="1.0"
     inkscape:pageopacity="0.0"
     inkscape:pageshadow="2"
     inkscape:zoom="0.7"
     inkscape:cx="192.94432"
     inkscape:cy="143.44673"
     inkscape:document-units="px"
     inkscape:current-layer="layer1"
     showgrid="false"
     inkscape:snap-grids="false"
     inkscape:window-width="1364"
     inkscape:window-height="710"
     inkscape:window-x="1"
     inkscape:window-y="1"
     inkscape:window-maximized="1"
     fit-margin-top="0"
     fit-margin-left="0"
     fit-margin-right="0"
     fit-margin-bottom="0">
    <inkscape:grid
       type="xygrid"
       id="grid3144"
       empspacing="5"
       visible="true"
       enabled="true"
       snapvisiblegridlinesonly="true"
       originx="-20.431278px"
       originy="-659.39598px" />
  </sodipodi:namedview>
  <metadata
     id="metadata3098">
    <rdf:RDF>
      <cc:Work
         rdf:about="">
        <dc:format>image/svg+xml</dc:format>
        <dc:type
           rdf:resource="http://purl.org/dc/dcmitype/StillImage" />
        <dc:title />
      </cc:Work>
    </rdf:RDF>
  </metadata>
  <g
     inkscape:label="Layer 1"
     inkscape:groupmode="layer"
     id="layer1"
     transform="translate(-20.431278,-99.744224)">
    <path
       style="fill:none;stroke:#000000;stroke-width:0.74978524px;stroke-linecap:butt;stroke-linejoin:miter;stroke-opacity:1;marker-end:url(#Arrow1Mend)"
       d="m 369.10287,217.39336 -45.83525,13.21636"
       id="path10164"
       inkscape:connector-curvature="0" />
    <path
       style="fill:none;stroke:#000000;stroke-width:0.74978524px;stroke-linecap:butt;stroke-linejoin:miter;stroke-opacity:1;marker-end:url(#Arrow1Mend)"
       d="m 312.85052,235.01518 -20.83421,63.87909"
       id="path10350"
       inkscape:connector-curvature="0" />
    <path
       style="fill:none;stroke:#000000;stroke-width:0.74978524px;stroke-linecap:butt;stroke-linejoin:miter;stroke-opacity:1;marker-end:url(#Arrow1Mend)"
       d="m 310.7671,236.11654 30.20959,60.57501"
       id="path10536"
       inkscape:connector-curvature="0" />
    <path
       style="fill:none;stroke:#000000;stroke-width:0.74978524px;stroke-linecap:butt;stroke-linejoin:miter;stroke-opacity:1;marker-end:url(#Arrow1Mend)"
       d="m 293.05802,313.212 69.79459,58.37229"
       id="path10722"
       inkscape:connector-curvature="0" />
    <path
       style="fill:none;stroke:#000000;stroke-width:0.74978524px;stroke-linecap:butt;stroke-linejoin:miter;stroke-opacity:1;marker-end:url(#Arrow1Mend)"
       d="m 344.10182,312.11064 21.87592,56.16955"
       id="path10908"
       inkscape:connector-curvature="0" />
    <path
       style="fill:none;stroke:#000000;stroke-width:0.74978524px;stroke-linecap:butt;stroke-linejoin:miter;stroke-opacity:1;marker-end:url(#Arrow1Mend)"
       d="M 437.85574,232.81245 483.691,264.752"
       id="path9606"
       inkscape:connector-curvature="0" />
    <path
       style="fill:none;stroke:#000000;stroke-width:0.74978524px;stroke-linecap:butt;stroke-linejoin:miter;stroke-opacity:1;marker-end:url(#Arrow1Mend)"
       d="m 494.10809,277.96836 1.04171,46.25728"
       id="path9792"
       inkscape:connector-curvature="0" />
    <path
       style="fill:none;stroke:#000000;stroke-width:0.74978524px;stroke-linecap:butt;stroke-linejoin:miter;stroke-opacity:1;marker-end:url(#Arrow1Mend)"
       d="M 494.10809,338.54337 449.31456,311.00928"
       id="path9978"
       inkscape:connector-curvature="0" />
    <path
       style="fill:none;stroke:#000000;stroke-width:0.74978524px;stroke-linecap:butt;stroke-linejoin:miter;stroke-opacity:1;marker-end:url(#Arrow1Mend)"
       d="m 369.10287,216.29199 55.21064,13.21637"
       id="path8862"
       inkscape:connector-curvature="0" />
    <path
       style="fill:none;stroke:#000000;stroke-width:0.74978524px;stroke-linecap:butt;stroke-linejoin:miter;stroke-opacity:1;marker-end:url(#Arrow1Mend)"
       d="m 436.81403,235.01518 0,58.37227"
       id="path9048"
       inkscape:connector-curvature="0" />
    <path
       style="fill:none;stroke:#000000;stroke-width:0.74978524px;stroke-linecap:butt;stroke-linejoin:miter;stroke-opacity:1;marker-end:url(#Arrow1Mend)"
       d="m 437.85574,309.90792 -1.04171,57.27091"
       id="path9234"
       inkscape:connector-curvature="0" />
    <path
       style="fill:none;stroke:#000000;stroke-width:0.74978524px;stroke-linecap:butt;stroke-linejoin:miter;stroke-opacity:1;marker-end:url(#Arrow1Mend)"
       d="m 437.85574,382.59792 -52.08551,0"
       id="path9420"
       inkscape:connector-curvature="0" />
    <path
       style="fill:none;stroke:#000000;stroke-width:0.74978524px;stroke-linecap:butt;stroke-linejoin:miter;stroke-opacity:1;marker-end:url(#Arrow1Mend)"
       d="M 373.26971,381.49656 372.228,231.71108"
       id="path8676"
       inkscape:connector-curvature="0" />
    <path
       style="fill:none;stroke:#000000;stroke-width:0.74978524px;stroke-linecap:butt;stroke-linejoin:miter;stroke-opacity:1;marker-end:url(#Arrow1Mend)"
       d="m 31.327016,300.12072 38.303219,18.69076"
       id="path7490"
       inkscape:connector-curvature="0" />
    <path
       style="fill:none;stroke:#000000;stroke-width:0.74978524px;stroke-linecap:butt;stroke-linejoin:miter;stroke-opacity:1;marker-end:url(#Arrow1Mend)"
       d="M 82.152438,272.86335 99.830853,228.47279"
       id="path7676"
       inkscape:connector-curvature="0" />
    <path
       style="fill:none;stroke:#000000;stroke-width:0.74978524px;stroke-linecap:butt;stroke-linejoin:miter;stroke-opacity:1;marker-end:url(#Arrow1Mend)"
       d="m 80.679241,324.26295 0,-38.93909"
       id="path7862"
       inkscape:connector-curvature="0" />
    <path
       style="fill:none;stroke:#000000;stroke-width:0.74978524px;stroke-linecap:butt;stroke-linejoin:miter;stroke-opacity:1;marker-end:url(#Arrow1Mend)"
       d="m 83.625642,271.30579 27.990818,0"
       id="path8048"
       inkscape:connector-curvature="0" />
    <path
       style="fill:none;stroke:#000000;stroke-width:0.74978524px;stroke-linecap:butt;stroke-linejoin:miter;stroke-opacity:1;marker-end:url(#Arrow1Mend)"
       d="m 124.13866,271.30579 0,39.71787"
       id="path8234"
       inkscape:connector-curvature="0" />
    <path
       style="fill:none;stroke:#000000;stroke-width:0.74978524px;stroke-linecap:butt;stroke-linejoin:miter;stroke-opacity:1;marker-end:url(#Arrow1Mend)"
       d="m 121.92886,325.82051 -27.99081,0"
       id="path8420"
       inkscape:connector-curvature="0" />
    <path
       style="fill:none;stroke:#000000;stroke-width:0.74978524px;stroke-linecap:butt;stroke-linejoin:miter;stroke-opacity:1;marker-end:url(#Arrow1Mend)"
       d="M 158.02228,246.38477 113.82625,218.34863"
       id="path7304"
       inkscape:connector-curvature="0" />
    <path
       style="fill:none;stroke:#000000;stroke-width:0.74978524px;stroke-linecap:butt;stroke-linejoin:miter;stroke-opacity:1;marker-end:url(#Arrow1Mend)"
       d="M 103.51385,215.2335 61.527631,237.81817"
       id="path5786"
       inkscape:connector-curvature="0" />
    <path
       style="fill:none;stroke:#000000;stroke-width:0.74978524px;stroke-linecap:butt;stroke-linejoin:miter;stroke-opacity:1;marker-end:url(#Arrow1Mend)"
       d="m 51.215226,245.60599 -19.88821,41.27543"
       id="path5972"
       inkscape:connector-curvature="0" />
    <path
       style="fill:none;stroke:#000000;stroke-width:0.74978524px;stroke-linecap:butt;stroke-linejoin:miter;stroke-opacity:1;marker-end:url(#Arrow1Mend)"
       d="m 30.590417,299.34194 16.205207,49.06325"
       id="path6160"
       inkscape:connector-curvature="0" />
    <path
       style="fill:none;stroke:#000000;stroke-width:0.74978524px;stroke-linecap:butt;stroke-linejoin:miter;stroke-opacity:1;marker-end:url(#Arrow1Mend)"
       d="m 52.688427,362.42325 39.776419,14.79686"
       id="path6346"
       inkscape:connector-curvature="0" />
    <path
       style="fill:none;stroke:#000000;stroke-width:0.74978524px;stroke-linecap:butt;stroke-linejoin:miter;stroke-opacity:1;marker-end:url(#Arrow1Mend)"
       d="m 104.98705,380.33524 40.51302,-14.79686"
       id="path6532"
       inkscape:connector-curvature="0" />
    <path
       style="fill:none;stroke:#000000;stroke-width:0.74978524px;stroke-linecap:butt;stroke-linejoin:miter;stroke-opacity:1;marker-end:url(#Arrow1Mend)"
       d="m 155.81248,360.8657 23.57121,-49.06326"
       id="path6718"
       inkscape:connector-curvature="0" />
    <path
       style="fill:none;stroke:#000000;stroke-width:0.74978524px;stroke-linecap:butt;stroke-linejoin:miter;stroke-opacity:1;marker-end:url(#Arrow1Mend)"
       d="M 180.85689,297.78437 163.17848,257.28772"
       id="path6904"
       inkscape:connector-curvature="0" />
    <path
       style="fill:none;stroke:#000000;stroke-width:0.74978524px;stroke-linecap:butt;stroke-linejoin:miter;stroke-opacity:1;marker-end:url(#Arrow1Mend)"
       d="m 179.38369,300.12072 45.66922,-26.47859"
       id="path5228"
       inkscape:connector-curvature="0" />
    <path
       style="fill:none;stroke:#000000;stroke-width:0.74978524px;stroke-linecap:butt;stroke-linejoin:miter;stroke-opacity:1;marker-end:url(#Arrow1Mend)"
       d="m 234.62871,268.19066 -0.73659,50.62082"
       id="path5414"
       inkscape:connector-curvature="0" />
    <path
       style="fill:none;stroke:#000000;stroke-width:0.74978524px;stroke-linecap:butt;stroke-linejoin:miter;stroke-opacity:1;marker-end:url(#Arrow1Mend)"
       d="M 232.41891,331.27199 190.43269,306.35097"
       id="path5600"
       inkscape:connector-curvature="0" />
    <path
       style="fill:none;stroke:#000000;stroke-width:0.74978524px;stroke-linecap:butt;stroke-linejoin:miter;stroke-opacity:1;marker-end:url(#Arrow1Mend)"
       d="m 387.5343,155.42385 18.41501,-33.48762"
       id="path4586"
       inkscape:connector-curvature="0" />
    <path
       style="fill:none;stroke:#000000;stroke-width:0.74978524px;stroke-linecap:butt;stroke-linejoin:miter;stroke-opacity:1;marker-end:url(#Arrow1Mend)"
       d="m 411.84211,110.25451 22.09801,33.48761"
       id="path4772"
       inkscape:connector-curvature="0" />
    <path
       style="fill:none;stroke:#000000;stroke-width:0.74978524px;stroke-linecap:butt;stroke-linejoin:miter;stroke-opacity:1;marker-end:url(#Arrow1Mend)"
       d="m 439.09632,156.20263 -38.30321,0"
       id="path4958"
       inkscape:connector-curvature="0" />
    <path
       sodipodi:type="arc"
       style="fill:#ffffff;fill-opacity:1;fill-rule:nonzero;stroke:#000000;stroke-width:2;stroke-linecap:square;stroke-linejoin:miter;stroke-miterlimit:4;stroke-opacity:1;stroke-dasharray:none"
       id="path2985"
       sodipodi:cx="121.72338"
       sodipodi:cy="88.676651"
       sodipodi:rx="17.67767"
       sodipodi:ry="18.182745"
       d="m 139.40105,88.676651 c 0,10.042053 -7.91456,18.182749 -17.67767,18.182749 -9.76311,0 -17.67767,-8.140696 -17.67767,-18.182749 0,-10.042053 7.91456,-18.182745 17.67767,-18.182745 9.76311,0 17.67767,8.140692 17.67767,18.182745 z"
       transform="matrix(0.5324084,0,0,0.54726074,50.005347,62.047839)" />
    <path
       sodipodi:type="arc"
       style="fill:#ffffff;fill-opacity:1;fill-rule:nonzero;stroke:#000000;stroke-width:2;stroke-linecap:square;stroke-linejoin:miter;stroke-miterlimit:4;stroke-opacity:1;stroke-dasharray:none"
       id="path2985-5"
       sodipodi:cx="121.72338"
       sodipodi:cy="88.676651"
       sodipodi:rx="17.67767"
       sodipodi:ry="18.182745"
       d="m 139.40105,88.676651 c 0,10.042053 -7.91456,18.182749 -17.67767,18.182749 -9.76311,0 -17.67767,-8.140696 -17.67767,-18.182749 0,-10.042053 7.91456,-18.182745 17.67767,-18.182745 9.76311,0 17.67767,8.140692 17.67767,18.182745 z"
       transform="matrix(0.5324084,0,0,0.54726074,199.77844,61.709603)" />
    <path
       sodipodi:type="arc"
       style="fill:#ffffff;fill-opacity:1;fill-rule:nonzero;stroke:#000000;stroke-width:2;stroke-linecap:square;stroke-linejoin:miter;stroke-miterlimit:4;stroke-opacity:1;stroke-dasharray:none"
       id="path2985-1"
       sodipodi:cx="121.72338"
       sodipodi:cy="88.676651"
       sodipodi:rx="17.67767"
       sodipodi:ry="18.182745"
       d="m 139.40105,88.676651 c 0,10.042053 -7.91456,18.182749 -17.67767,18.182749 -9.76311,0 -17.67767,-8.140696 -17.67767,-18.182749 0,-10.042053 7.91456,-18.182745 17.67767,-18.182745 9.76311,0 17.67767,8.140692 17.67767,18.182745 z"
       transform="matrix(0.5324084,0,0,0.54726074,199.08625,107.61076)" />
    <path
       style="fill:none;stroke:#000000;stroke-width:0.74978524px;stroke-linecap:butt;stroke-linejoin:miter;stroke-opacity:1;marker-start:url(#Arrow1Mstart);marker-end:url(#Arrow1Mend)"
       d="m 264.52576,122.71501 c 0,6.48985 0,12.9797 0,19.46955"
       id="path3146"
       inkscape:connector-curvature="0" />
    <path
       sodipodi:type="arc"
       style="fill:#ffffff;fill-opacity:1;fill-rule:nonzero;stroke:#000000;stroke-width:2;stroke-linecap:square;stroke-linejoin:miter;stroke-miterlimit:4;stroke-opacity:1;stroke-dasharray:none"
       id="path2985-0"
       sodipodi:cx="121.72338"
       sodipodi:cy="88.676651"
       sodipodi:rx="17.67767"
       sodipodi:ry="18.182745"
       d="m 139.40105,88.676651 c 0,10.042053 -7.91456,18.182749 -17.67767,18.182749 -9.76311,0 -17.67767,-8.140696 -17.67767,-18.182749 0,-10.042053 7.91456,-18.182745 17.67767,-18.182745 9.76311,0 17.67767,8.140692 17.67767,18.182745 z"
       transform="matrix(0.5324084,0,0,0.54726074,347.03556,62.504039)" />
    <path
       sodipodi:type="arc"
       style="fill:#ffffff;fill-opacity:1;fill-rule:nonzero;stroke:#000000;stroke-width:2;stroke-linecap:square;stroke-linejoin:miter;stroke-miterlimit:4;stroke-opacity:1;stroke-dasharray:none"
       id="path2985-7"
       sodipodi:cx="121.72338"
       sodipodi:cy="88.676651"
       sodipodi:rx="17.67767"
       sodipodi:ry="18.182745"
       d="m 139.40105,88.676651 c 0,10.042053 -7.91456,18.182749 -17.67767,18.182749 -9.76311,0 -17.67767,-8.140696 -17.67767,-18.182749 0,-10.042053 7.91456,-18.182745 17.67767,-18.182745 9.76311,0 17.67767,8.140692 17.67767,18.182745 z"
       transform="matrix(0.5324084,0,0,0.54726074,323.46435,107.67338)" />
    <path
       sodipodi:type="arc"
       style="fill:#ffffff;fill-opacity:1;fill-rule:nonzero;stroke:#000000;stroke-width:2;stroke-linecap:square;stroke-linejoin:miter;stroke-miterlimit:4;stroke-opacity:1;stroke-dasharray:none"
       id="path2985-2"
       sodipodi:cx="121.72338"
       sodipodi:cy="88.676651"
       sodipodi:rx="17.67767"
       sodipodi:ry="18.182745"
       d="m 139.40105,88.676651 c 0,10.042053 -7.91456,18.182749 -17.67767,18.182749 -9.76311,0 -17.67767,-8.140696 -17.67767,-18.182749 0,-10.042053 7.91456,-18.182745 17.67767,-18.182745 9.76311,0 17.67767,8.140692 17.67767,18.182745 z"
       transform="matrix(0.5324084,0,0,0.54726074,375.02637,107.67338)" />
    <path
       sodipodi:type="arc"
       style="fill:#ffffff;fill-opacity:1;fill-rule:nonzero;stroke:#000000;stroke-width:2;stroke-linecap:square;stroke-linejoin:miter;stroke-miterlimit:4;stroke-opacity:1;stroke-dasharray:none"
       id="path2985-55"
       sodipodi:cx="121.72338"
       sodipodi:cy="88.676651"
       sodipodi:rx="17.67767"
       sodipodi:ry="18.182745"
       d="m 139.40105,88.676651 c 0,10.042053 -7.91456,18.182749 -17.67767,18.182749 -9.76311,0 -17.67767,-8.140696 -17.67767,-18.182749 0,-10.042053 7.91456,-18.182745 17.67767,-18.182745 9.76311,0 17.67767,8.140692 17.67767,18.182745 z"
       transform="matrix(0.5324084,0,0,0.54726074,-12.973175,197.01413)" />
    <path
       sodipodi:type="arc"
       style="fill:#ffffff;fill-opacity:1;fill-rule:nonzero;stroke:#000000;stroke-width:2;stroke-linecap:square;stroke-linejoin:miter;stroke-miterlimit:4;stroke-opacity:1;stroke-dasharray:none"
       id="path2985-4"
       sodipodi:cx="121.72338"
       sodipodi:cy="88.676651"
       sodipodi:rx="17.67767"
       sodipodi:ry="18.182745"
       d="m 139.40105,88.676651 c 0,10.042053 -7.91456,18.182749 -17.67767,18.182749 -9.76311,0 -17.67767,-8.140696 -17.67767,-18.182749 0,-10.042053 7.91456,-18.182745 17.67767,-18.182745 9.76311,0 17.67767,8.140692 17.67767,18.182745 z"
       transform="matrix(0.5324084,0,0,0.54726074,37.852249,167.43607)" />
    <path
       sodipodi:type="arc"
       style="fill:#ffffff;fill-opacity:1;fill-rule:nonzero;stroke:#000000;stroke-width:2;stroke-linecap:square;stroke-linejoin:miter;stroke-miterlimit:4;stroke-opacity:1;stroke-dasharray:none"
       id="path2985-27"
       sodipodi:cx="121.72338"
       sodipodi:cy="88.676651"
       sodipodi:rx="17.67767"
       sodipodi:ry="18.182745"
       d="m 139.40105,88.676651 c 0,10.042053 -7.91456,18.182749 -17.67767,18.182749 -9.76311,0 -17.67767,-8.140696 -17.67767,-18.182749 0,-10.042053 7.91456,-18.182745 17.67767,-18.182745 9.76311,0 17.67767,8.140692 17.67767,18.182745 z"
       transform="matrix(0.5324084,0,0,0.54726074,92.33106,197.7616)" />
    <path
       sodipodi:type="arc"
       style="fill:#ffffff;fill-opacity:1;fill-rule:nonzero;stroke:#000000;stroke-width:2;stroke-linecap:square;stroke-linejoin:miter;stroke-miterlimit:4;stroke-opacity:1;stroke-dasharray:none"
       id="path2985-05"
       sodipodi:cx="121.72338"
       sodipodi:cy="88.676651"
       sodipodi:rx="17.67767"
       sodipodi:ry="18.182745"
       d="m 139.40105,88.676651 c 0,10.042053 -7.91456,18.182749 -17.67767,18.182749 -9.76311,0 -17.67767,-8.140696 -17.67767,-18.182749 0,-10.042053 7.91456,-18.182745 17.67767,-18.182745 9.76311,0 17.67767,8.140692 17.67767,18.182745 z"
       transform="matrix(0.5324084,0,0,0.54726074,-34.423425,251.5445)" />
    <path
       sodipodi:type="arc"
       style="fill:#ffffff;fill-opacity:1;fill-rule:nonzero;stroke:#000000;stroke-width:2;stroke-linecap:square;stroke-linejoin:miter;stroke-miterlimit:4;stroke-opacity:1;stroke-dasharray:none"
       id="path2985-73"
       sodipodi:cx="121.72338"
       sodipodi:cy="88.676651"
       sodipodi:rx="17.67767"
       sodipodi:ry="18.182745"
       d="m 139.40105,88.676651 c 0,10.042053 -7.91456,18.182749 -17.67767,18.182749 -9.76311,0 -17.67767,-8.140696 -17.67767,-18.182749 0,-10.042053 7.91456,-18.182745 17.67767,-18.182745 9.76311,0 17.67767,8.140692 17.67767,18.182745 z"
       transform="matrix(0.5324084,0,0,0.54726074,115.93189,250.76572)" />
    <path
       sodipodi:type="arc"
       style="fill:#ffffff;fill-opacity:1;fill-rule:nonzero;stroke:#000000;stroke-width:2;stroke-linecap:square;stroke-linejoin:miter;stroke-miterlimit:4;stroke-opacity:1;stroke-dasharray:none"
       id="path2985-26"
       sodipodi:cx="121.72338"
       sodipodi:cy="88.676651"
       sodipodi:rx="17.67767"
       sodipodi:ry="18.182745"
       d="m 139.40105,88.676651 c 0,10.042053 -7.91456,18.182749 -17.67767,18.182749 -9.76311,0 -17.67767,-8.140696 -17.67767,-18.182749 0,-10.042053 7.91456,-18.182745 17.67767,-18.182745 9.76311,0 17.67767,8.140692 17.67767,18.182745 z"
       transform="matrix(0.5324084,0,0,0.54726074,-12.943563,313.81574)" />
    <path
       sodipodi:type="arc"
       style="fill:#ffffff;fill-opacity:1;fill-rule:nonzero;stroke:#000000;stroke-width:2;stroke-linecap:square;stroke-linejoin:miter;stroke-miterlimit:4;stroke-opacity:1;stroke-dasharray:none"
       id="path2985-16"
       sodipodi:cx="121.72338"
       sodipodi:cy="88.676651"
       sodipodi:rx="17.67767"
       sodipodi:ry="18.182745"
       d="m 139.40105,88.676651 c 0,10.042053 -7.91456,18.182749 -17.67767,18.182749 -9.76311,0 -17.67767,-8.140696 -17.67767,-18.182749 0,-10.042053 7.91456,-18.182745 17.67767,-18.182745 9.76311,0 17.67767,8.140692 17.67767,18.182745 z"
       transform="matrix(0.5324084,0,0,0.54726074,90.946701,312.24252)" />
    <path
       sodipodi:type="arc"
       style="fill:#ffffff;fill-opacity:1;fill-rule:nonzero;stroke:#000000;stroke-width:2;stroke-linecap:square;stroke-linejoin:miter;stroke-miterlimit:4;stroke-opacity:1;stroke-dasharray:none"
       id="path2985-733"
       sodipodi:cx="121.72338"
       sodipodi:cy="88.676651"
       sodipodi:rx="17.67767"
       sodipodi:ry="18.182745"
       d="m 139.40105,88.676651 c 0,10.042053 -7.91456,18.182749 -17.67767,18.182749 -9.76311,0 -17.67767,-8.140696 -17.67767,-18.182749 0,-10.042053 7.91456,-18.182745 17.67767,-18.182745 9.76311,0 17.67767,8.140692 17.67767,18.182745 z"
       transform="matrix(0.5324084,0,0,0.54726074,39.384676,331.6651)" />
    <path
       sodipodi:type="arc"
       style="fill:#ffffff;fill-opacity:1;fill-rule:nonzero;stroke:#000000;stroke-width:2;stroke-linecap:square;stroke-linejoin:miter;stroke-miterlimit:4;stroke-opacity:1;stroke-dasharray:none"
       id="path2985-9"
       sodipodi:cx="121.72338"
       sodipodi:cy="88.676651"
       sodipodi:rx="17.67767"
       sodipodi:ry="18.182745"
       d="m 139.40105,88.676651 c 0,10.042053 -7.91456,18.182749 -17.67767,18.182749 -9.76311,0 -17.67767,-8.140696 -17.67767,-18.182749 0,-10.042053 7.91456,-18.182745 17.67767,-18.182745 9.76311,0 17.67767,8.140692 17.67767,18.182745 z"
       transform="matrix(0.5324084,0,0,0.54726074,169.6593,219.59879)" />
    <path
       sodipodi:type="arc"
       style="fill:#ffffff;fill-opacity:1;fill-rule:nonzero;stroke:#000000;stroke-width:2;stroke-linecap:square;stroke-linejoin:miter;stroke-miterlimit:4;stroke-opacity:1;stroke-dasharray:none"
       id="path2985-96"
       sodipodi:cx="121.72338"
       sodipodi:cy="88.676651"
       sodipodi:rx="17.67767"
       sodipodi:ry="18.182745"
       d="m 139.40105,88.676651 c 0,10.042053 -7.91456,18.182749 -17.67767,18.182749 -9.76311,0 -17.67767,-8.140696 -17.67767,-18.182749 0,-10.042053 7.91456,-18.182745 17.67767,-18.182745 9.76311,0 17.67767,8.140692 17.67767,18.182745 z"
       transform="matrix(0.5324084,0,0,0.54726074,168.9523,283.47456)" />
    <path
       sodipodi:type="arc"
       style="fill:#ffffff;fill-opacity:1;fill-rule:nonzero;stroke:#000000;stroke-width:2;stroke-linecap:square;stroke-linejoin:miter;stroke-miterlimit:4;stroke-opacity:1;stroke-dasharray:none"
       id="path2985-47"
       sodipodi:cx="121.72338"
       sodipodi:cy="88.676651"
       sodipodi:rx="17.67767"
       sodipodi:ry="18.182745"
       d="m 139.40105,88.676651 c 0,10.042053 -7.91456,18.182749 -17.67767,18.182749 -9.76311,0 -17.67767,-8.140696 -17.67767,-18.182749 0,-10.042053 7.91456,-18.182745 17.67767,-18.182745 9.76311,0 17.67767,8.140692 17.67767,18.182745 z"
       transform="matrix(0.5324084,0,0,0.54726074,16.609291,223.55532)" />
    <path
       sodipodi:type="arc"
       style="fill:#ffffff;fill-opacity:1;fill-rule:nonzero;stroke:#000000;stroke-width:2;stroke-linecap:square;stroke-linejoin:miter;stroke-miterlimit:4;stroke-opacity:1;stroke-dasharray:none"
       id="path2985-3"
       sodipodi:cx="121.72338"
       sodipodi:cy="88.676651"
       sodipodi:rx="17.67767"
       sodipodi:ry="18.182745"
       d="m 139.40105,88.676651 c 0,10.042053 -7.91456,18.182749 -17.67767,18.182749 -9.76311,0 -17.67767,-8.140696 -17.67767,-18.182749 0,-10.042053 7.91456,-18.182745 17.67767,-18.182745 9.76311,0 17.67767,8.140692 17.67767,18.182745 z"
       transform="matrix(0.5324084,0,0,0.54726074,60.068711,223.55532)" />
    <path
       sodipodi:type="arc"
       style="fill:#ffffff;fill-opacity:1;fill-rule:nonzero;stroke:#000000;stroke-width:2;stroke-linecap:square;stroke-linejoin:miter;stroke-miterlimit:4;stroke-opacity:1;stroke-dasharray:none"
       id="path2985-056"
       sodipodi:cx="121.72338"
       sodipodi:cy="88.676651"
       sodipodi:rx="17.67767"
       sodipodi:ry="18.182745"
       d="m 139.40105,88.676651 c 0,10.042053 -7.91456,18.182749 -17.67767,18.182749 -9.76311,0 -17.67767,-8.140696 -17.67767,-18.182749 0,-10.042053 7.91456,-18.182745 17.67767,-18.182745 9.76311,0 17.67767,8.140692 17.67767,18.182745 z"
       transform="matrix(0.5324084,0,0,0.54726074,16.60929,276.51248)" />
    <path
       sodipodi:type="arc"
       style="fill:#ffffff;fill-opacity:1;fill-rule:nonzero;stroke:#000000;stroke-width:2;stroke-linecap:square;stroke-linejoin:miter;stroke-miterlimit:4;stroke-opacity:1;stroke-dasharray:none"
       id="path2985-12"
       sodipodi:cx="121.72338"
       sodipodi:cy="88.676651"
       sodipodi:rx="17.67767"
       sodipodi:ry="18.182745"
       d="m 139.40105,88.676651 c 0,10.042053 -7.91456,18.182749 -17.67767,18.182749 -9.76311,0 -17.67767,-8.140696 -17.67767,-18.182749 0,-10.042053 7.91456,-18.182745 17.67767,-18.182745 9.76311,0 17.67767,8.140692 17.67767,18.182745 z"
       transform="matrix(0.5324084,0,0,0.54726074,58.595511,277.29126)" />
    <path
       sodipodi:type="arc"
       style="fill:#ffffff;fill-opacity:1;fill-rule:nonzero;stroke:#000000;stroke-width:2;stroke-linecap:square;stroke-linejoin:miter;stroke-miterlimit:4;stroke-opacity:1;stroke-dasharray:none"
       id="path2985-8"
       sodipodi:cx="121.72338"
       sodipodi:cy="88.676651"
       sodipodi:rx="17.67767"
       sodipodi:ry="18.182745"
       d="m 139.40105,88.676651 c 0,10.042053 -7.91456,18.182749 -17.67767,18.182749 -9.76311,0 -17.67767,-8.140696 -17.67767,-18.182749 0,-10.042053 7.91456,-18.182745 17.67767,-18.182745 9.76311,0 17.67767,8.140692 17.67767,18.182745 z"
       transform="matrix(0.5324084,0,0,0.54726074,305.35663,169.22956)" />
    <path
       sodipodi:type="arc"
       style="fill:#ffffff;fill-opacity:1;fill-rule:nonzero;stroke:#000000;stroke-width:2;stroke-linecap:square;stroke-linejoin:miter;stroke-miterlimit:4;stroke-opacity:1;stroke-dasharray:none"
       id="path2985-80"
       sodipodi:cx="121.72338"
       sodipodi:cy="88.676651"
       sodipodi:rx="17.67767"
       sodipodi:ry="18.182745"
       d="m 139.40105,88.676651 c 0,10.042053 -7.91456,18.182749 -17.67767,18.182749 -9.76311,0 -17.67767,-8.140696 -17.67767,-18.182749 0,-10.042053 7.91456,-18.182745 17.67767,-18.182745 9.76311,0 17.67767,8.140692 17.67767,18.182745 z"
       transform="matrix(0.5324084,0,0,0.54726074,247.34393,186.65292)" />
    <path
       sodipodi:type="arc"
       style="fill:#ffffff;fill-opacity:1;fill-rule:nonzero;stroke:#000000;stroke-width:2;stroke-linecap:square;stroke-linejoin:miter;stroke-miterlimit:4;stroke-opacity:1;stroke-dasharray:none"
       id="path2985-23"
       sodipodi:cx="121.72338"
       sodipodi:cy="88.676651"
       sodipodi:rx="17.67767"
       sodipodi:ry="18.182745"
       d="m 139.40105,88.676651 c 0,10.042053 -7.91456,18.182749 -17.67767,18.182749 -9.76311,0 -17.67767,-8.140696 -17.67767,-18.182749 0,-10.042053 7.91456,-18.182745 17.67767,-18.182745 9.76311,0 17.67767,8.140692 17.67767,18.182745 z"
       transform="matrix(0.5324084,0,0,0.54726074,372.13451,185.55156)" />
    <path
       sodipodi:type="arc"
       style="fill:#ffffff;fill-opacity:1;fill-rule:nonzero;stroke:#000000;stroke-width:2;stroke-linecap:square;stroke-linejoin:miter;stroke-miterlimit:4;stroke-opacity:1;stroke-dasharray:none"
       id="path2985-71"
       sodipodi:cx="121.72338"
       sodipodi:cy="88.676651"
       sodipodi:rx="17.67767"
       sodipodi:ry="18.182745"
       d="m 139.40105,88.676651 c 0,10.042053 -7.91456,18.182749 -17.67767,18.182749 -9.76311,0 -17.67767,-8.140696 -17.67767,-18.182749 0,-10.042053 7.91456,-18.182745 17.67767,-18.182745 9.76311,0 17.67767,8.140692 17.67767,18.182745 z"
       transform="matrix(0.5324084,0,0,0.54726074,228.37105,264.05197)" />
    <path
       sodipodi:type="arc"
       style="fill:#ffffff;fill-opacity:1;fill-rule:nonzero;stroke:#000000;stroke-width:2;stroke-linecap:square;stroke-linejoin:miter;stroke-miterlimit:4;stroke-opacity:1;stroke-dasharray:none"
       id="path2985-95"
       sodipodi:cx="121.72338"
       sodipodi:cy="88.676651"
       sodipodi:rx="17.67767"
       sodipodi:ry="18.182745"
       d="m 139.40105,88.676651 c 0,10.042053 -7.91456,18.182749 -17.67767,18.182749 -9.76311,0 -17.67767,-8.140696 -17.67767,-18.182749 0,-10.042053 7.91456,-18.182745 17.67767,-18.182745 9.76311,0 17.67767,8.140692 17.67767,18.182745 z"
       transform="matrix(0.5324084,0,0,0.54726074,279.82838,262.95061)" />
    <path
       sodipodi:type="arc"
       style="fill:#ffffff;fill-opacity:1;fill-rule:nonzero;stroke:#000000;stroke-width:2;stroke-linecap:square;stroke-linejoin:miter;stroke-miterlimit:4;stroke-opacity:1;stroke-dasharray:none"
       id="path2985-164"
       sodipodi:cx="121.72338"
       sodipodi:cy="88.676651"
       sodipodi:rx="17.67767"
       sodipodi:ry="18.182745"
       d="m 139.40105,88.676651 c 0,10.042053 -7.91456,18.182749 -17.67767,18.182749 -9.76311,0 -17.67767,-8.140696 -17.67767,-18.182749 0,-10.042053 7.91456,-18.182745 17.67767,-18.182745 9.76311,0 17.67767,8.140692 17.67767,18.182745 z"
       transform="matrix(0.5324084,0,0,0.54726074,372.69237,259.83549)" />
    <path
       sodipodi:type="arc"
       style="fill:#ffffff;fill-opacity:1;fill-rule:nonzero;stroke:#000000;stroke-width:2;stroke-linecap:square;stroke-linejoin:miter;stroke-miterlimit:4;stroke-opacity:1;stroke-dasharray:none"
       id="path2985-6"
       sodipodi:cx="121.72338"
       sodipodi:cy="88.676651"
       sodipodi:rx="17.67767"
       sodipodi:ry="18.182745"
       d="m 139.40105,88.676651 c 0,10.042053 -7.91456,18.182749 -17.67767,18.182749 -9.76311,0 -17.67767,-8.140696 -17.67767,-18.182749 0,-10.042053 7.91456,-18.182745 17.67767,-18.182745 9.76311,0 17.67767,8.140692 17.67767,18.182745 z"
       transform="matrix(0.5324084,0,0,0.54726074,309.03963,332.77373)" />
    <path
       sodipodi:type="arc"
       style="fill:#ffffff;fill-opacity:1;fill-rule:nonzero;stroke:#000000;stroke-width:2;stroke-linecap:square;stroke-linejoin:miter;stroke-miterlimit:4;stroke-opacity:1;stroke-dasharray:none"
       id="path2985-92"
       sodipodi:cx="121.72338"
       sodipodi:cy="88.676651"
       sodipodi:rx="17.67767"
       sodipodi:ry="18.182745"
       d="m 139.40105,88.676651 c 0,10.042053 -7.91456,18.182749 -17.67767,18.182749 -9.76311,0 -17.67767,-8.140696 -17.67767,-18.182749 0,-10.042053 7.91456,-18.182745 17.67767,-18.182745 9.76311,0 17.67767,8.140692 17.67767,18.182745 z"
       transform="matrix(0.5324084,0,0,0.54726074,373.12386,333.93044)" />
    <path
       sodipodi:type="arc"
       style="fill:#ffffff;fill-opacity:1;fill-rule:nonzero;stroke:#000000;stroke-width:2;stroke-linecap:square;stroke-linejoin:miter;stroke-miterlimit:4;stroke-opacity:1;stroke-dasharray:none"
       id="path2985-052"
       sodipodi:cx="121.72338"
       sodipodi:cy="88.676651"
       sodipodi:rx="17.67767"
       sodipodi:ry="18.182745"
       d="m 139.40105,88.676651 c 0,10.042053 -7.91456,18.182749 -17.67767,18.182749 -9.76311,0 -17.67767,-8.140696 -17.67767,-18.182749 0,-10.042053 7.91456,-18.182745 17.67767,-18.182745 9.76311,0 17.67767,8.140692 17.67767,18.182745 z"
       transform="matrix(0.5324084,0,0,0.54726074,428.25044,228.25932)" />
    <path
       sodipodi:type="arc"
       style="fill:#ffffff;fill-opacity:1;fill-rule:nonzero;stroke:#000000;stroke-width:2;stroke-linecap:square;stroke-linejoin:miter;stroke-miterlimit:4;stroke-opacity:1;stroke-dasharray:none"
       id="path2985-38"
       sodipodi:cx="121.72338"
       sodipodi:cy="88.676651"
       sodipodi:rx="17.67767"
       sodipodi:ry="18.182745"
       d="m 139.40105,88.676651 c 0,10.042053 -7.91456,18.182749 -17.67767,18.182749 -9.76311,0 -17.67767,-8.140696 -17.67767,-18.182749 0,-10.042053 7.91456,-18.182745 17.67767,-18.182745 9.76311,0 17.67767,8.140692 17.67767,18.182745 z"
       transform="matrix(0.5324084,0,0,0.54726074,430.46024,289.0043)" />
  </g>
</svg>
