<?xml version="1.0" encoding="UTF-8" standalone="no"?>
<!-- Created with Inkscape (http://www.inkscape.org/) -->

<svg
   xmlns:dc="http://purl.org/dc/elements/1.1/"
   xmlns:cc="http://creativecommons.org/ns#"
   xmlns:rdf="http://www.w3.org/1999/02/22-rdf-syntax-ns#"
   xmlns:svg="http://www.w3.org/2000/svg"
   xmlns="http://www.w3.org/2000/svg"
   xmlns:sodipodi="http://sodipodi.sourceforge.net/DTD/sodipodi-0.dtd"
   xmlns:inkscape="http://www.inkscape.org/namespaces/inkscape"
   width="579.62299"
   height="210.09758"
   id="svg2"
   version="1.1"
   inkscape:version="0.48.4 r9939"
   sodipodi:docname="graph1.svg">
  <defs
     id="defs4" />
  <sodipodi:namedview
     id="base"
     pagecolor="#ffffff"
     bordercolor="#666666"
     borderopacity="1.0"
     inkscape:pageopacity="0.0"
     inkscape:pageshadow="2"
     inkscape:zoom="1.4"
     inkscape:cx="341.98204"
     inkscape:cy="112.45869"
     inkscape:document-units="px"
     inkscape:current-layer="layer1"
     showgrid="false"
     inkscape:window-width="1364"
     inkscape:window-height="710"
     inkscape:window-x="1"
     inkscape:window-y="1"
     inkscape:window-maximized="1"
     inkscape:snap-grids="false"
     fit-margin-top="0"
     fit-margin-left="0"
     fit-margin-right="0"
     fit-margin-bottom="0">
    <inkscape:grid
       type="xygrid"
       id="grid3155"
       empspacing="5"
       visible="true"
       enabled="true"
       snapvisiblegridlinesonly="true"
       originx="-33.017956px"
       originy="-811.37209px" />
  </sodipodi:namedview>
  <metadata
     id="metadata7">
    <rdf:RDF>
      <cc:Work
         rdf:about="">
        <dc:format>image/svg+xml</dc:format>
        <dc:type
           rdf:resource="http://purl.org/dc/dcmitype/StillImage" />
        <dc:title></dc:title>
      </cc:Work>
    </rdf:RDF>
  </metadata>
  <g
     inkscape:label="Layer 1"
     inkscape:groupmode="layer"
     id="layer1"
     transform="translate(-33.017956,-30.892519)">
    <path
       style="fill:none;stroke:#000000;stroke-width:2;stroke-linecap:butt;stroke-linejoin:miter;stroke-miterlimit:4;stroke-opacity:1;stroke-dasharray:none"
       d="m 387.71429,223.79075 54.28571,0 50.71429,-25"
       id="path4190"
       inkscape:connector-curvature="0" />
    <path
       style="fill:none;stroke:#000000;stroke-width:2;stroke-linecap:butt;stroke-linejoin:miter;stroke-miterlimit:4;stroke-opacity:1;stroke-dasharray:none"
       d="m 441.28571,83.79075 0,144.28572 157.14286,-0.71429 0.71429,-133.57143"
       id="path4188"
       inkscape:connector-curvature="0" />
    <path
       style="fill:none;stroke:#000000;stroke-width:2;stroke-linecap:butt;stroke-linejoin:miter;stroke-miterlimit:4;stroke-opacity:1;stroke-dasharray:none"
       d="m 440.57143,82.36218 57.85714,-40 L 597,93.79075 z"
       id="path4184"
       inkscape:connector-curvature="0" />
    <path
       style="fill:none;stroke:#000000;stroke-width:2;stroke-linecap:butt;stroke-linejoin:miter;stroke-miterlimit:4;stroke-opacity:1;stroke-dasharray:none"
       d="m 571.71429,125.07647 -0.71428,61.42857"
       id="path4182"
       inkscape:connector-curvature="0" />
    <path
       style="fill:none;stroke:#000000;stroke-width:2;stroke-linecap:butt;stroke-linejoin:miter;stroke-miterlimit:4;stroke-opacity:1;stroke-dasharray:none"
       d="m 461.00001,157.93361 110,27.85714"
       id="path4180"
       inkscape:connector-curvature="0" />
    <path
       style="fill:none;stroke:#000000;stroke-width:2;stroke-linecap:butt;stroke-linejoin:miter;stroke-miterlimit:4;stroke-opacity:1;stroke-dasharray:none"
       d="m 460.28572,156.50504 51.42857,0"
       id="path4176"
       inkscape:connector-curvature="0" />
    <path
       style="fill:none;stroke:#000000;stroke-width:2;stroke-linecap:butt;stroke-linejoin:miter;stroke-miterlimit:4;stroke-opacity:1;stroke-dasharray:none"
       d="M 461.00001,152.93361 570.28572,123.64789"
       id="path4178"
       inkscape:connector-curvature="0" />
    <path
       style="fill:none;stroke:#000000;stroke-width:2;stroke-linecap:butt;stroke-linejoin:miter;stroke-miterlimit:4;stroke-opacity:1;stroke-dasharray:none"
       d="m 397,85.21932 1.42857,61.42857"
       id="path4174"
       inkscape:connector-curvature="0" />
    <path
       style="fill:none;stroke:#000000;stroke-width:2;stroke-linecap:butt;stroke-linejoin:miter;stroke-miterlimit:4;stroke-opacity:1;stroke-dasharray:none"
       d="m 46.428571,204.50504 19.285715,-39.28572 42.142854,17.85715"
       id="path3960"
       inkscape:connector-curvature="0" />
    <path
       style="fill:none;stroke:#000000;stroke-width:2;stroke-linecap:butt;stroke-linejoin:miter;stroke-miterlimit:4;stroke-opacity:1;stroke-dasharray:none"
       d="M 45.714286,43.790753 166.42857,75.93361"
       id="path3954"
       inkscape:connector-curvature="0" />
    <path
       style="fill:none;stroke:#000000;stroke-width:2;stroke-linecap:butt;stroke-linejoin:miter;stroke-miterlimit:4;stroke-opacity:1;stroke-dasharray:none"
       d="m 106.42857,184.50504 60,-107.857144"
       id="path3956"
       inkscape:connector-curvature="0" />
    <path
       style="fill:none;stroke:#000000;stroke-width:2;stroke-linecap:butt;stroke-linejoin:miter;stroke-miterlimit:4;stroke-opacity:1;stroke-dasharray:none"
       d="M 46.428571,205.21932 105,183.79075"
       id="path3958"
       inkscape:connector-curvature="0" />
    <path
       style="fill:none;stroke:#000000;stroke-width:2;stroke-linecap:butt;stroke-linejoin:miter;stroke-miterlimit:4;stroke-opacity:1;stroke-dasharray:none"
       d="M 46.428571,203.79075 45.714286,43.790753 66.428571,97.362182"
       id="path3962"
       inkscape:connector-curvature="0" />
    <path
       style="fill:none;stroke:#000000;stroke-width:2;stroke-linecap:butt;stroke-linejoin:miter;stroke-miterlimit:4;stroke-opacity:1;stroke-dasharray:none"
       d="M 43.571429,43.076467 115.71429,107.36218"
       id="path3964"
       inkscape:connector-curvature="0" />
    <path
       style="fill:none;stroke:#000000;stroke-width:2;stroke-linecap:butt;stroke-linejoin:miter;stroke-miterlimit:4;stroke-opacity:1;stroke-dasharray:none"
       d="m 217,225.21932 -0.71429,-49.28571 52.85715,48.57143"
       id="path3952"
       inkscape:connector-curvature="0" />
    <path
       style="fill:none;stroke:#000000;stroke-width:2;stroke-linecap:butt;stroke-linejoin:miter;stroke-miterlimit:4;stroke-opacity:1;stroke-dasharray:none"
       d="m 214.5,225.71932 52.14286,-0.71428"
       id="path3157-3"
       inkscape:connector-curvature="0" />
    <path
       style="fill:none;stroke:#000000;stroke-width:2;stroke-linecap:butt;stroke-linejoin:miter;stroke-miterlimit:4;stroke-opacity:1;stroke-dasharray:none"
       d="m 215.64286,176.29075 52.14286,-0.71428"
       id="path3157-2"
       inkscape:connector-curvature="0" />
    <path
       style="fill:none;stroke:#000000;stroke-width:2;stroke-linecap:butt;stroke-linejoin:miter;stroke-miterlimit:4;stroke-opacity:1;stroke-dasharray:none"
       d="M 214.85714,85.219324 267,84.505039"
       id="path3157"
       inkscape:connector-curvature="0" />
    <path
       sodipodi:type="arc"
       style="fill:#ffffff;fill-opacity:1;fill-rule:nonzero;stroke:#000000;stroke-width:2;stroke-linecap:square;stroke-linejoin:miter;stroke-miterlimit:4;stroke-opacity:1;stroke-dasharray:none"
       id="path2985"
       sodipodi:cx="121.72338"
       sodipodi:cy="88.676651"
       sodipodi:rx="17.67767"
       sodipodi:ry="18.182745"
       d="m 139.40105,88.676651 c 0,10.042053 -7.91456,18.182749 -17.67767,18.182749 -9.76311,0 -17.67767,-8.140696 -17.67767,-18.182749 0,-10.042053 7.91456,-18.182745 17.67767,-18.182745 9.76311,0 17.67767,8.140692 17.67767,18.182745 z"
       transform="matrix(0.73012957,0,0,0.70984819,-42.208206,-17.874873)" />
    <text
       xml:space="preserve"
       style="font-size:14px;font-style:normal;font-variant:normal;font-weight:normal;font-stretch:normal;line-height:125%;letter-spacing:0px;word-spacing:0px;fill:#000000;fill-opacity:1;stroke:none;font-family:DejaVu Sans;-inkscape-font-specification:DejaVu Sans"
       x="42.180866"
       y="49.65839"
       id="text2987"
       sodipodi:linespacing="125%"><tspan
         sodipodi:role="line"
         id="tspan2989"
         x="42.180866"
         y="49.65839">0</tspan></text>
    <path
       sodipodi:type="arc"
       style="fill:#ffffff;fill-opacity:1;fill-rule:nonzero;stroke:#000000;stroke-width:2;stroke-linecap:square;stroke-linejoin:miter;stroke-miterlimit:4;stroke-opacity:1;stroke-dasharray:none"
       id="path2985-6"
       sodipodi:cx="121.72338"
       sodipodi:cy="88.676651"
       sodipodi:rx="17.67767"
       sodipodi:ry="18.182745"
       d="m 139.40105,88.676651 c 0,10.042053 -7.91456,18.182749 -17.67767,18.182749 -9.76311,0 -17.67767,-8.140696 -17.67767,-18.182749 0,-10.042053 7.91456,-18.182745 17.67767,-18.182745 9.76311,0 17.67767,8.140692 17.67767,18.182745 z"
       transform="matrix(0.73012957,0,0,0.70984819,-21.724155,33.382937)" />
    <text
       xml:space="preserve"
       style="font-size:14px;font-style:normal;font-variant:normal;font-weight:normal;font-stretch:normal;line-height:125%;letter-spacing:0px;word-spacing:0px;fill:#000000;fill-opacity:1;stroke:none;font-family:DejaVu Sans;-inkscape-font-specification:DejaVu Sans"
       x="62.664917"
       y="100.91621"
       id="text2987-3"
       sodipodi:linespacing="125%"><tspan
         sodipodi:role="line"
         id="tspan2989-3"
         x="62.664917"
         y="100.91621">1</tspan></text>
    <path
       sodipodi:type="arc"
       style="fill:#ffffff;fill-opacity:1;fill-rule:nonzero;stroke:#000000;stroke-width:2;stroke-linecap:square;stroke-linejoin:miter;stroke-miterlimit:4;stroke-opacity:1;stroke-dasharray:none"
       id="path2985-8"
       sodipodi:cx="121.72338"
       sodipodi:cy="88.676651"
       sodipodi:rx="17.67767"
       sodipodi:ry="18.182745"
       d="m 139.40105,88.676651 c 0,10.042053 -7.91456,18.182749 -17.67767,18.182749 -9.76311,0 -17.67767,-8.140696 -17.67767,-18.182749 0,-10.042053 7.91456,-18.182745 17.67767,-18.182745 9.76311,0 17.67767,8.140692 17.67767,18.182745 z"
       transform="matrix(0.73012957,0,0,0.70984819,27.354901,42.495336)" />
    <text
       xml:space="preserve"
       style="font-size:14px;font-style:normal;font-variant:normal;font-weight:normal;font-stretch:normal;line-height:125%;letter-spacing:0px;word-spacing:0px;fill:#000000;fill-opacity:1;stroke:none;font-family:DejaVu Sans;-inkscape-font-specification:DejaVu Sans"
       x="111.74397"
       y="110.0286"
       id="text2987-5"
       sodipodi:linespacing="125%"><tspan
         sodipodi:role="line"
         id="tspan2989-1"
         x="111.74397"
         y="110.0286">2</tspan></text>
    <path
       sodipodi:type="arc"
       style="fill:#ffffff;fill-opacity:1;fill-rule:nonzero;stroke:#000000;stroke-width:2;stroke-linecap:square;stroke-linejoin:miter;stroke-miterlimit:4;stroke-opacity:1;stroke-dasharray:none"
       id="path2985-5"
       sodipodi:cx="121.72338"
       sodipodi:cy="88.676651"
       sodipodi:rx="17.67767"
       sodipodi:ry="18.182745"
       d="m 139.40105,88.676651 c 0,10.042053 -7.91456,18.182749 -17.67767,18.182749 -9.76311,0 -17.67767,-8.140696 -17.67767,-18.182749 0,-10.042053 7.91456,-18.182745 17.67767,-18.182745 9.76311,0 17.67767,8.140692 17.67767,18.182745 z"
       transform="matrix(0.73012957,0,0,0.70984819,-22.286152,102.73683)" />
    <text
       xml:space="preserve"
       style="font-size:14px;font-style:normal;font-variant:normal;font-weight:normal;font-stretch:normal;line-height:125%;letter-spacing:0px;word-spacing:0px;fill:#000000;fill-opacity:1;stroke:none;font-family:DejaVu Sans;-inkscape-font-specification:DejaVu Sans"
       x="62.102917"
       y="170.2701"
       id="text2987-0"
       sodipodi:linespacing="125%"><tspan
         sodipodi:role="line"
         id="tspan2989-5"
         x="62.102917"
         y="170.2701">3</tspan></text>
    <path
       sodipodi:type="arc"
       style="fill:#ffffff;fill-opacity:1;fill-rule:nonzero;stroke:#000000;stroke-width:2;stroke-linecap:square;stroke-linejoin:miter;stroke-miterlimit:4;stroke-opacity:1;stroke-dasharray:none"
       id="path2985-0"
       sodipodi:cx="121.72338"
       sodipodi:cy="88.676651"
       sodipodi:rx="17.67767"
       sodipodi:ry="18.182745"
       d="m 139.40105,88.676651 c 0,10.042053 -7.91456,18.182749 -17.67767,18.182749 -9.76311,0 -17.67767,-8.140696 -17.67767,-18.182749 0,-10.042053 7.91456,-18.182745 17.67767,-18.182745 9.76311,0 17.67767,8.140692 17.67767,18.182745 z"
       transform="matrix(0.73012957,0,0,0.70984819,17.997397,122.08202)" />
    <text
       xml:space="preserve"
       style="font-size:14px;font-style:normal;font-variant:normal;font-weight:normal;font-stretch:normal;line-height:125%;letter-spacing:0px;word-spacing:0px;fill:#000000;fill-opacity:1;stroke:none;font-family:DejaVu Sans;-inkscape-font-specification:DejaVu Sans"
       x="102.38647"
       y="189.61528"
       id="text2987-54"
       sodipodi:linespacing="125%"><tspan
         sodipodi:role="line"
         id="tspan2989-7"
         x="102.38647"
         y="189.61528">4</tspan></text>
    <path
       sodipodi:type="arc"
       style="fill:#ffffff;fill-opacity:1;fill-rule:nonzero;stroke:#000000;stroke-width:2;stroke-linecap:square;stroke-linejoin:miter;stroke-miterlimit:4;stroke-opacity:1;stroke-dasharray:none"
       id="path2985-4"
       sodipodi:cx="121.72338"
       sodipodi:cy="88.676651"
       sodipodi:rx="17.67767"
       sodipodi:ry="18.182745"
       d="m 139.40105,88.676651 c 0,10.042053 -7.91456,18.182749 -17.67767,18.182749 -9.76311,0 -17.67767,-8.140696 -17.67767,-18.182749 0,-10.042053 7.91456,-18.182745 17.67767,-18.182745 9.76311,0 17.67767,8.140692 17.67767,18.182745 z"
       transform="matrix(0.73012957,0,0,0.70984819,-41.335473,141.27491)" />
    <text
       xml:space="preserve"
       style="font-size:14px;font-style:normal;font-variant:normal;font-weight:normal;font-stretch:normal;line-height:125%;letter-spacing:0px;word-spacing:0px;fill:#000000;fill-opacity:1;stroke:none;font-family:DejaVu Sans;-inkscape-font-specification:DejaVu Sans"
       x="43.053596"
       y="208.80818"
       id="text2987-02"
       sodipodi:linespacing="125%"><tspan
         sodipodi:role="line"
         id="tspan2989-0"
         x="43.053596"
         y="208.80818">5</tspan></text>
    <path
       sodipodi:type="arc"
       style="fill:#ffffff;fill-opacity:1;fill-rule:nonzero;stroke:#000000;stroke-width:2;stroke-linecap:square;stroke-linejoin:miter;stroke-miterlimit:4;stroke-opacity:1;stroke-dasharray:none"
       id="path2985-3"
       sodipodi:cx="121.72338"
       sodipodi:cy="88.676651"
       sodipodi:rx="17.67767"
       sodipodi:ry="18.182745"
       d="m 139.40105,88.676651 c 0,10.042053 -7.91456,18.182749 -17.67767,18.182749 -9.76311,0 -17.67767,-8.140696 -17.67767,-18.182749 0,-10.042053 7.91456,-18.182745 17.67767,-18.182745 9.76311,0 17.67767,8.140692 17.67767,18.182745 z"
       transform="matrix(0.73012957,0,0,0.70984819,77.423079,13.251675)" />
    <text
       xml:space="preserve"
       style="font-size:14px;font-style:normal;font-variant:normal;font-weight:normal;font-stretch:normal;line-height:125%;letter-spacing:0px;word-spacing:0px;fill:#000000;fill-opacity:1;stroke:none;font-family:DejaVu Sans;-inkscape-font-specification:DejaVu Sans"
       x="161.81215"
       y="80.784935"
       id="text2987-2"
       sodipodi:linespacing="125%"><tspan
         sodipodi:role="line"
         id="tspan2989-10"
         x="161.81215"
         y="80.784935">6</tspan></text>
    <path
       sodipodi:type="arc"
       style="fill:#ffffff;fill-opacity:1;fill-rule:nonzero;stroke:#000000;stroke-width:2;stroke-linecap:square;stroke-linejoin:miter;stroke-miterlimit:4;stroke-opacity:1;stroke-dasharray:none"
       id="path2985-30"
       sodipodi:cx="121.72338"
       sodipodi:cy="88.676651"
       sodipodi:rx="17.67767"
       sodipodi:ry="18.182745"
       d="m 139.40105,88.676651 c 0,10.042053 -7.91456,18.182749 -17.67767,18.182749 -9.76311,0 -17.67767,-8.140696 -17.67767,-18.182749 0,-10.042053 7.91456,-18.182745 17.67767,-18.182745 9.76311,0 17.67767,8.140692 17.67767,18.182745 z"
       transform="matrix(0.73012957,0,0,0.70984819,124.87634,22.752758)" />
    <text
       xml:space="preserve"
       style="font-size:14px;font-style:normal;font-variant:normal;font-weight:normal;font-stretch:normal;line-height:125%;letter-spacing:0px;word-spacing:0px;fill:#000000;fill-opacity:1;stroke:none;font-family:DejaVu Sans;-inkscape-font-specification:DejaVu Sans"
       x="209.26541"
       y="90.286018"
       id="text2987-9"
       sodipodi:linespacing="125%"><tspan
         sodipodi:role="line"
         id="tspan2989-30"
         x="209.26541"
         y="90.286018">7</tspan></text>
    <path
       sodipodi:type="arc"
       style="fill:#ffffff;fill-opacity:1;fill-rule:nonzero;stroke:#000000;stroke-width:2;stroke-linecap:square;stroke-linejoin:miter;stroke-miterlimit:4;stroke-opacity:1;stroke-dasharray:none"
       id="path2985-44"
       sodipodi:cx="121.72338"
       sodipodi:cy="88.676651"
       sodipodi:rx="17.67767"
       sodipodi:ry="18.182745"
       d="m 139.40105,88.676651 c 0,10.042053 -7.91456,18.182749 -17.67767,18.182749 -9.76311,0 -17.67767,-8.140696 -17.67767,-18.182749 0,-10.042053 7.91456,-18.182745 17.67767,-18.182745 9.76311,0 17.67767,8.140692 17.67767,18.182745 z"
       transform="matrix(0.73012957,0,0,0.70984819,179.35279,23.221939)" />
    <text
       xml:space="preserve"
       style="font-size:14px;font-style:normal;font-variant:normal;font-weight:normal;font-stretch:normal;line-height:125%;letter-spacing:0px;word-spacing:0px;fill:#000000;fill-opacity:1;stroke:none;font-family:DejaVu Sans;-inkscape-font-specification:DejaVu Sans"
       x="263.74185"
       y="90.755203"
       id="text2987-05"
       sodipodi:linespacing="125%"><tspan
         sodipodi:role="line"
         id="tspan2989-08"
         x="263.74185"
         y="90.755203">8</tspan></text>
    <path
       sodipodi:type="arc"
       style="fill:#ffffff;fill-opacity:1;fill-rule:nonzero;stroke:#000000;stroke-width:2;stroke-linecap:square;stroke-linejoin:miter;stroke-miterlimit:4;stroke-opacity:1;stroke-dasharray:none"
       id="path2985-83"
       sodipodi:cx="121.72338"
       sodipodi:cy="88.676651"
       sodipodi:rx="17.67767"
       sodipodi:ry="18.182745"
       d="m 139.40105,88.676651 c 0,10.042053 -7.91456,18.182749 -17.67767,18.182749 -9.76311,0 -17.67767,-8.140696 -17.67767,-18.182749 0,-10.042053 7.91456,-18.182745 17.67767,-18.182745 9.76311,0 17.67767,8.140692 17.67767,18.182745 z"
       transform="matrix(0.73012957,0,0,0.70984819,127.61093,113.40036)" />
    <text
       xml:space="preserve"
       style="font-size:14px;font-style:normal;font-variant:normal;font-weight:normal;font-stretch:normal;line-height:125%;letter-spacing:0px;word-spacing:0px;fill:#000000;fill-opacity:1;stroke:none;font-family:DejaVu Sans;-inkscape-font-specification:DejaVu Sans"
       x="212"
       y="180.93361"
       id="text2987-8"
       sodipodi:linespacing="125%"><tspan
         sodipodi:role="line"
         id="tspan2989-36"
         x="212"
         y="180.93361">9</tspan></text>
    <path
       sodipodi:type="arc"
       style="fill:#ffffff;fill-opacity:1;fill-rule:nonzero;stroke:#000000;stroke-width:2;stroke-linecap:square;stroke-linejoin:miter;stroke-miterlimit:4;stroke-opacity:1;stroke-dasharray:none"
       id="path2985-35"
       sodipodi:cx="121.72338"
       sodipodi:cy="88.676651"
       sodipodi:rx="17.67767"
       sodipodi:ry="18.182745"
       d="m 139.40105,88.676651 c 0,10.042053 -7.91456,18.182749 -17.67767,18.182749 -9.76311,0 -17.67767,-8.140696 -17.67767,-18.182749 0,-10.042053 7.91456,-18.182745 17.67767,-18.182745 9.76311,0 17.67767,8.140692 17.67767,18.182745 z"
       transform="matrix(0.73012957,0,0,0.70984819,181.14902,112.73683)" />
    <text
       xml:space="preserve"
       style="font-size:14px;font-style:normal;font-variant:normal;font-weight:normal;font-stretch:normal;line-height:125%;letter-spacing:0px;word-spacing:0px;fill:#000000;fill-opacity:1;stroke:none;font-family:DejaVu Sans;-inkscape-font-specification:DejaVu Sans"
       x="260.48734"
       y="180.2701"
       id="text2987-1"
       sodipodi:linespacing="125%"><tspan
         sodipodi:role="line"
         id="tspan2989-53"
         x="260.48734"
         y="180.2701">10</tspan></text>
    <path
       sodipodi:type="arc"
       style="fill:#ffffff;fill-opacity:1;fill-rule:nonzero;stroke:#000000;stroke-width:2;stroke-linecap:square;stroke-linejoin:miter;stroke-miterlimit:4;stroke-opacity:1;stroke-dasharray:none"
       id="path2985-82"
       sodipodi:cx="121.72338"
       sodipodi:cy="88.676651"
       sodipodi:rx="17.67767"
       sodipodi:ry="18.182745"
       d="m 139.40105,88.676651 c 0,10.042053 -7.91456,18.182749 -17.67767,18.182749 -9.76311,0 -17.67767,-8.140696 -17.67767,-18.182749 0,-10.042053 7.91456,-18.182745 17.67767,-18.182745 9.76311,0 17.67767,8.140692 17.67767,18.182745 z"
       transform="matrix(0.73012957,0,0,0.70984819,127.61093,162.28507)" />
    <text
       xml:space="preserve"
       style="font-size:14px;font-style:normal;font-variant:normal;font-weight:normal;font-stretch:normal;line-height:125%;letter-spacing:0px;word-spacing:0px;fill:#000000;fill-opacity:1;stroke:none;font-family:DejaVu Sans;-inkscape-font-specification:DejaVu Sans"
       x="206.94925"
       y="229.81833"
       id="text2987-7"
       sodipodi:linespacing="125%"><tspan
         sodipodi:role="line"
         id="tspan2989-07"
         x="206.94925"
         y="229.81833">11</tspan></text>
    <path
       sodipodi:type="arc"
       style="fill:#ffffff;fill-opacity:1;fill-rule:nonzero;stroke:#000000;stroke-width:2;stroke-linecap:square;stroke-linejoin:miter;stroke-miterlimit:4;stroke-opacity:1;stroke-dasharray:none"
       id="path2985-05"
       sodipodi:cx="121.72338"
       sodipodi:cy="88.676651"
       sodipodi:rx="17.67767"
       sodipodi:ry="18.182745"
       d="m 139.40105,88.676651 c 0,10.042053 -7.91456,18.182749 -17.67767,18.182749 -9.76311,0 -17.67767,-8.140696 -17.67767,-18.182749 0,-10.042053 7.91456,-18.182745 17.67767,-18.182745 9.76311,0 17.67767,8.140692 17.67767,18.182745 z"
       transform="matrix(0.73012957,0,0,0.70984819,180.36294,162.99936)" />
    <text
       xml:space="preserve"
       style="font-size:14px;font-style:normal;font-variant:normal;font-weight:normal;font-stretch:normal;line-height:125%;letter-spacing:0px;word-spacing:0px;fill:#000000;fill-opacity:1;stroke:none;font-family:DejaVu Sans;-inkscape-font-specification:DejaVu Sans"
       x="259.70126"
       y="230.53261"
       id="text2987-91"
       sodipodi:linespacing="125%"><tspan
         sodipodi:role="line"
         id="tspan2989-6"
         x="259.70126"
         y="230.53261">12</tspan></text>
    <path
       sodipodi:type="arc"
       style="fill:#ffffff;fill-opacity:1;fill-rule:nonzero;stroke:#000000;stroke-width:2;stroke-linecap:square;stroke-linejoin:miter;stroke-miterlimit:4;stroke-opacity:1;stroke-dasharray:none"
       id="path2985-30-7"
       sodipodi:cx="121.72338"
       sodipodi:cy="88.676651"
       sodipodi:rx="17.67767"
       sodipodi:ry="18.182745"
       d="m 139.40105,88.676651 c 0,10.042053 -7.91456,18.182749 -17.67767,18.182749 -9.76311,0 -17.67767,-8.140696 -17.67767,-18.182749 0,-10.042053 7.91456,-18.182745 17.67767,-18.182745 9.76311,0 17.67767,8.140692 17.67767,18.182745 z"
       transform="matrix(0.73012957,0,0,0.70984819,309.55474,22.27236)" />
    <text
       xml:space="preserve"
       style="font-size:14px;font-style:normal;font-variant:normal;font-weight:normal;font-stretch:normal;line-height:125%;letter-spacing:0px;word-spacing:0px;fill:#000000;fill-opacity:1;stroke:none;font-family:DejaVu Sans;-inkscape-font-specification:DejaVu Sans"
       x="393.94382"
       y="89.805634"
       id="text2987-9-5"
       sodipodi:linespacing="125%"><tspan
         sodipodi:role="line"
         id="tspan2989-30-6"
         x="393.94382"
         y="89.805634">7</tspan></text>
    <path
       sodipodi:type="arc"
       style="fill:#ffffff;fill-opacity:1;fill-rule:nonzero;stroke:#000000;stroke-width:2;stroke-linecap:square;stroke-linejoin:miter;stroke-miterlimit:4;stroke-opacity:1;stroke-dasharray:none"
       id="path2985-30-1"
       sodipodi:cx="121.72338"
       sodipodi:cy="88.676651"
       sodipodi:rx="17.67767"
       sodipodi:ry="18.182745"
       d="m 139.40105,88.676651 c 0,10.042053 -7.91456,18.182749 -17.67767,18.182749 -9.76311,0 -17.67767,-8.140696 -17.67767,-18.182749 0,-10.042053 7.91456,-18.182745 17.67767,-18.182745 9.76311,0 17.67767,8.140692 17.67767,18.182745 z"
       transform="matrix(0.73012957,0,0,0.70984819,308.84045,82.27236)" />
    <text
       xml:space="preserve"
       style="font-size:14px;font-style:normal;font-variant:normal;font-weight:normal;font-stretch:normal;line-height:125%;letter-spacing:0px;word-spacing:0px;fill:#000000;fill-opacity:1;stroke:none;font-family:DejaVu Sans;-inkscape-font-specification:DejaVu Sans"
       x="393.22952"
       y="149.80563"
       id="text2987-9-2"
       sodipodi:linespacing="125%"><tspan
         sodipodi:role="line"
         id="tspan2989-30-68"
         x="393.22952"
         y="149.80563">8</tspan></text>
    <path
       sodipodi:type="arc"
       style="fill:#ffffff;fill-opacity:1;fill-rule:nonzero;stroke:#000000;stroke-width:2;stroke-linecap:square;stroke-linejoin:miter;stroke-miterlimit:4;stroke-opacity:1;stroke-dasharray:none"
       id="path2985-05-2"
       sodipodi:cx="121.72338"
       sodipodi:cy="88.676651"
       sodipodi:rx="17.67767"
       sodipodi:ry="18.182745"
       d="m 139.40105,88.676651 c 0,10.042053 -7.91456,18.182749 -17.67767,18.182749 -9.76311,0 -17.67767,-8.140696 -17.67767,-18.182749 0,-10.042053 7.91456,-18.182745 17.67767,-18.182745 9.76311,0 17.67767,8.140692 17.67767,18.182745 z"
       transform="matrix(0.73012957,0,0,0.70984819,482.84045,124.98665)" />
    <text
       xml:space="preserve"
       style="font-size:14px;font-style:normal;font-variant:normal;font-weight:normal;font-stretch:normal;line-height:125%;letter-spacing:0px;word-spacing:0px;fill:#000000;fill-opacity:1;stroke:none;font-family:DejaVu Sans;-inkscape-font-specification:DejaVu Sans"
       x="562.17883"
       y="192.5199"
       id="text2987-91-6"
       sodipodi:linespacing="125%"><tspan
         sodipodi:role="line"
         id="tspan2989-6-6"
         x="562.17883"
         y="192.5199">12</tspan></text>
    <path
       sodipodi:type="arc"
       style="fill:#ffffff;fill-opacity:1;fill-rule:nonzero;stroke:#000000;stroke-width:2;stroke-linecap:square;stroke-linejoin:miter;stroke-miterlimit:4;stroke-opacity:1;stroke-dasharray:none"
       id="path2985-05-6"
       sodipodi:cx="121.72338"
       sodipodi:cy="88.676651"
       sodipodi:rx="17.67767"
       sodipodi:ry="18.182745"
       d="m 139.40105,88.676651 c 0,10.042053 -7.91456,18.182749 -17.67767,18.182749 -9.76311,0 -17.67767,-8.140696 -17.67767,-18.182749 0,-10.042053 7.91456,-18.182745 17.67767,-18.182745 9.76311,0 17.67767,8.140692 17.67767,18.182745 z"
       transform="matrix(0.73012957,0,0,0.70984819,482.12617,60.70093)" />
    <text
       xml:space="preserve"
       style="font-size:14px;font-style:normal;font-variant:normal;font-weight:normal;font-stretch:normal;line-height:125%;letter-spacing:0px;word-spacing:0px;fill:#000000;fill-opacity:1;stroke:none;font-family:DejaVu Sans;-inkscape-font-specification:DejaVu Sans"
       x="561.46454"
       y="128.23419"
       id="text2987-91-4"
       sodipodi:linespacing="125%"><tspan
         sodipodi:role="line"
         id="tspan2989-6-1"
         x="561.46454"
         y="128.23419">11</tspan></text>
    <path
       sodipodi:type="arc"
       style="fill:#ffffff;fill-opacity:1;fill-rule:nonzero;stroke:#000000;stroke-width:2;stroke-linecap:square;stroke-linejoin:miter;stroke-miterlimit:4;stroke-opacity:1;stroke-dasharray:none"
       id="path2985-05-27"
       sodipodi:cx="121.72338"
       sodipodi:cy="88.676651"
       sodipodi:rx="17.67767"
       sodipodi:ry="18.182745"
       d="m 139.40105,88.676651 c 0,10.042053 -7.91456,18.182749 -17.67767,18.182749 -9.76311,0 -17.67767,-8.140696 -17.67767,-18.182749 0,-10.042053 7.91456,-18.182745 17.67767,-18.182745 9.76311,0 17.67767,8.140692 17.67767,18.182745 z"
       transform="matrix(0.73012957,0,0,0.70984819,424.26902,92.12951)" />
    <text
       xml:space="preserve"
       style="font-size:14px;font-style:normal;font-variant:normal;font-weight:normal;font-stretch:normal;line-height:125%;letter-spacing:0px;word-spacing:0px;fill:#000000;fill-opacity:1;stroke:none;font-family:DejaVu Sans;-inkscape-font-specification:DejaVu Sans"
       x="503.60736"
       y="159.66275"
       id="text2987-91-9"
       sodipodi:linespacing="125%"><tspan
         sodipodi:role="line"
         id="tspan2989-6-62"
         x="503.60736"
         y="159.66275">10</tspan></text>
    <path
       sodipodi:type="arc"
       style="fill:#ffffff;fill-opacity:1;fill-rule:nonzero;stroke:#000000;stroke-width:2;stroke-linecap:square;stroke-linejoin:miter;stroke-miterlimit:4;stroke-opacity:1;stroke-dasharray:none"
       id="path2985-30-1-2"
       sodipodi:cx="121.72338"
       sodipodi:cy="88.676651"
       sodipodi:rx="17.67767"
       sodipodi:ry="18.182745"
       d="m 139.40105,88.676651 c 0,10.042053 -7.91456,18.182749 -17.67767,18.182749 -9.76311,0 -17.67767,-8.140696 -17.67767,-18.182749 0,-10.042053 7.91456,-18.182745 17.67767,-18.182745 9.76311,0 17.67767,8.140692 17.67767,18.182745 z"
       transform="matrix(0.73012957,0,0,0.70984819,372.84045,92.12951)" />
    <text
       xml:space="preserve"
       style="font-size:14px;font-style:normal;font-variant:normal;font-weight:normal;font-stretch:normal;line-height:125%;letter-spacing:0px;word-spacing:0px;fill:#000000;fill-opacity:1;stroke:none;font-family:DejaVu Sans;-inkscape-font-specification:DejaVu Sans"
       x="457.22949"
       y="159.66275"
       id="text2987-9-2-6"
       sodipodi:linespacing="125%"><tspan
         sodipodi:role="line"
         id="tspan2989-30-68-6"
         x="457.22949"
         y="159.66275">9</tspan></text>
    <path
       sodipodi:type="arc"
       style="fill:#ffffff;fill-opacity:1;fill-rule:nonzero;stroke:#000000;stroke-width:2;stroke-linecap:square;stroke-linejoin:miter;stroke-miterlimit:4;stroke-opacity:1;stroke-dasharray:none"
       id="path2985-30-1-2-1"
       sodipodi:cx="121.72338"
       sodipodi:cy="88.676651"
       sodipodi:rx="17.67767"
       sodipodi:ry="18.182745"
       d="m 139.40105,88.676651 c 0,10.042053 -7.91456,18.182749 -17.67767,18.182749 -9.76311,0 -17.67767,-8.140696 -17.67767,-18.182749 0,-10.042053 7.91456,-18.182745 17.67767,-18.182745 9.76311,0 17.67767,8.140692 17.67767,18.182745 z"
       transform="matrix(0.73012957,0,0,0.70984819,298.84045,162.27236)" />
    <text
       xml:space="preserve"
       style="font-size:14px;font-style:normal;font-variant:normal;font-weight:normal;font-stretch:normal;line-height:125%;letter-spacing:0px;word-spacing:0px;fill:#000000;fill-opacity:1;stroke:none;font-family:DejaVu Sans;-inkscape-font-specification:DejaVu Sans"
       x="383.22949"
       y="229.80563"
       id="text2987-9-2-6-6"
       sodipodi:linespacing="125%"><tspan
         sodipodi:role="line"
         id="tspan2989-30-68-6-3"
         x="383.22949"
         y="229.80563">2</tspan></text>
    <path
       sodipodi:type="arc"
       style="fill:#ffffff;fill-opacity:1;fill-rule:nonzero;stroke:#000000;stroke-width:2;stroke-linecap:square;stroke-linejoin:miter;stroke-miterlimit:4;stroke-opacity:1;stroke-dasharray:none"
       id="path2985-30-1-2-13"
       sodipodi:cx="121.72338"
       sodipodi:cy="88.676651"
       sodipodi:rx="17.67767"
       sodipodi:ry="18.182745"
       d="m 139.40105,88.676651 c 0,10.042053 -7.91456,18.182749 -17.67767,18.182749 -9.76311,0 -17.67767,-8.140696 -17.67767,-18.182749 0,-10.042053 7.91456,-18.182745 17.67767,-18.182745 9.76311,0 17.67767,8.140692 17.67767,18.182745 z"
       transform="matrix(0.73012957,0,0,0.70984819,352.69759,162.27236)" />
    <text
       xml:space="preserve"
       style="font-size:14px;font-style:normal;font-variant:normal;font-weight:normal;font-stretch:normal;line-height:125%;letter-spacing:0px;word-spacing:0px;fill:#000000;fill-opacity:1;stroke:none;font-family:DejaVu Sans;-inkscape-font-specification:DejaVu Sans"
       x="437.08664"
       y="229.80563"
       id="text2987-9-2-6-5"
       sodipodi:linespacing="125%"><tspan
         sodipodi:role="line"
         id="tspan2989-30-68-6-5"
         x="437.08664"
         y="229.80563">0</tspan></text>
    <path
       sodipodi:type="arc"
       style="fill:#ffffff;fill-opacity:1;fill-rule:nonzero;stroke:#000000;stroke-width:2;stroke-linecap:square;stroke-linejoin:miter;stroke-miterlimit:4;stroke-opacity:1;stroke-dasharray:none"
       id="path2985-30-1-2-9"
       sodipodi:cx="121.72338"
       sodipodi:cy="88.676651"
       sodipodi:rx="17.67767"
       sodipodi:ry="18.182745"
       d="m 139.40105,88.676651 c 0,10.042053 -7.91456,18.182749 -17.67767,18.182749 -9.76311,0 -17.67767,-8.140696 -17.67767,-18.182749 0,-10.042053 7.91456,-18.182745 17.67767,-18.182745 9.76311,0 17.67767,8.140692 17.67767,18.182745 z"
       transform="matrix(0.73012957,0,0,0.70984819,352.41187,22.12951)" />
    <text
       xml:space="preserve"
       style="font-size:14px;font-style:normal;font-variant:normal;font-weight:normal;font-stretch:normal;line-height:125%;letter-spacing:0px;word-spacing:0px;fill:#000000;fill-opacity:1;stroke:none;font-family:DejaVu Sans;-inkscape-font-specification:DejaVu Sans"
       x="436.8009"
       y="89.662781"
       id="text2987-9-2-6-9"
       sodipodi:linespacing="125%"><tspan
         sodipodi:role="line"
         id="tspan2989-30-68-6-0"
         x="436.8009"
         y="89.662781">5</tspan></text>
    <path
       sodipodi:type="arc"
       style="fill:#ffffff;fill-opacity:1;fill-rule:nonzero;stroke:#000000;stroke-width:2;stroke-linecap:square;stroke-linejoin:miter;stroke-miterlimit:4;stroke-opacity:1;stroke-dasharray:none"
       id="path2985-30-1-2-95"
       sodipodi:cx="121.72338"
       sodipodi:cy="88.676651"
       sodipodi:rx="17.67767"
       sodipodi:ry="18.182745"
       d="m 139.40105,88.676651 c 0,10.042053 -7.91456,18.182749 -17.67767,18.182749 -9.76311,0 -17.67767,-8.140696 -17.67767,-18.182749 0,-10.042053 7.91456,-18.182745 17.67767,-18.182745 9.76311,0 17.67767,8.140692 17.67767,18.182745 z"
       transform="matrix(0.73012957,0,0,0.70984819,408.84044,-18.44193)" />
    <text
       xml:space="preserve"
       style="font-size:14px;font-style:normal;font-variant:normal;font-weight:normal;font-stretch:normal;line-height:125%;letter-spacing:0px;word-spacing:0px;fill:#000000;fill-opacity:1;stroke:none;font-family:DejaVu Sans;-inkscape-font-specification:DejaVu Sans"
       x="493.22949"
       y="49.091339"
       id="text2987-9-2-6-62"
       sodipodi:linespacing="125%"><tspan
         sodipodi:role="line"
         id="tspan2989-30-68-6-7"
         x="493.22949"
         y="49.091339">3</tspan></text>
    <path
       sodipodi:type="arc"
       style="fill:#ffffff;fill-opacity:1;fill-rule:nonzero;stroke:#000000;stroke-width:2;stroke-linecap:square;stroke-linejoin:miter;stroke-miterlimit:4;stroke-opacity:1;stroke-dasharray:none"
       id="path2985-30-1-2-4"
       sodipodi:cx="121.72338"
       sodipodi:cy="88.676651"
       sodipodi:rx="17.67767"
       sodipodi:ry="18.182745"
       d="m 139.40105,88.676651 c 0,10.042053 -7.91456,18.182749 -17.67767,18.182749 -9.76311,0 -17.67767,-8.140696 -17.67767,-18.182749 0,-10.042053 7.91456,-18.182745 17.67767,-18.182745 9.76311,0 17.67767,8.140692 17.67767,18.182745 z"
       transform="matrix(0.73012957,0,0,0.70984819,508.84045,32.27236)" />
    <text
       xml:space="preserve"
       style="font-size:14px;font-style:normal;font-variant:normal;font-weight:normal;font-stretch:normal;line-height:125%;letter-spacing:0px;word-spacing:0px;fill:#000000;fill-opacity:1;stroke:none;font-family:DejaVu Sans;-inkscape-font-specification:DejaVu Sans"
       x="593.22949"
       y="99.805634"
       id="text2987-9-2-6-1"
       sodipodi:linespacing="125%"><tspan
         sodipodi:role="line"
         id="tspan2989-30-68-6-1"
         x="593.22949"
         y="99.805634">4</tspan></text>
    <path
       sodipodi:type="arc"
       style="fill:#ffffff;fill-opacity:1;fill-rule:nonzero;stroke:#000000;stroke-width:2;stroke-linecap:square;stroke-linejoin:miter;stroke-miterlimit:4;stroke-opacity:1;stroke-dasharray:none"
       id="path2985-30-1-2-0"
       sodipodi:cx="121.72338"
       sodipodi:cy="88.676651"
       sodipodi:rx="17.67767"
       sodipodi:ry="18.182745"
       d="m 139.40105,88.676651 c 0,10.042053 -7.91456,18.182749 -17.67767,18.182749 -9.76311,0 -17.67767,-8.140696 -17.67767,-18.182749 0,-10.042053 7.91456,-18.182745 17.67767,-18.182745 9.76311,0 17.67767,8.140692 17.67767,18.182745 z"
       transform="matrix(0.73012957,0,0,0.70984819,403.84045,135.84379)" />
    <text
       xml:space="preserve"
       style="font-size:14px;font-style:normal;font-variant:normal;font-weight:normal;font-stretch:normal;line-height:125%;letter-spacing:0px;word-spacing:0px;fill:#000000;fill-opacity:1;stroke:none;font-family:DejaVu Sans;-inkscape-font-specification:DejaVu Sans"
       x="488.22949"
       y="203.37704"
       id="text2987-9-2-6-7"
       sodipodi:linespacing="125%"><tspan
         sodipodi:role="line"
         id="tspan2989-30-68-6-9"
         x="488.22949"
         y="203.37704">1</tspan></text>
    <path
       sodipodi:type="arc"
       style="fill:#ffffff;fill-opacity:1;fill-rule:nonzero;stroke:#000000;stroke-width:2;stroke-linecap:square;stroke-linejoin:miter;stroke-miterlimit:4;stroke-opacity:1;stroke-dasharray:none"
       id="path2985-30-1-2-6"
       sodipodi:cx="121.72338"
       sodipodi:cy="88.676651"
       sodipodi:rx="17.67767"
       sodipodi:ry="18.182745"
       d="m 139.40105,88.676651 c 0,10.042053 -7.91456,18.182749 -17.67767,18.182749 -9.76311,0 -17.67767,-8.140696 -17.67767,-18.182749 0,-10.042053 7.91456,-18.182745 17.67767,-18.182745 9.76311,0 17.67767,8.140692 17.67767,18.182745 z"
       transform="matrix(0.73012957,0,0,0.70984819,510.12616,164.41522)" />
    <text
       xml:space="preserve"
       style="font-size:14px;font-style:normal;font-variant:normal;font-weight:normal;font-stretch:normal;line-height:125%;letter-spacing:0px;word-spacing:0px;fill:#000000;fill-opacity:1;stroke:none;font-family:DejaVu Sans;-inkscape-font-specification:DejaVu Sans"
       x="594.5152"
       y="231.94849"
       id="text2987-9-2-6-12"
       sodipodi:linespacing="125%"><tspan
         sodipodi:role="line"
         id="tspan2989-30-68-6-50"
         x="594.5152"
         y="231.94849">6</tspan></text>
  </g>
</svg>
