<?xml version="1.0" encoding="UTF-8" standalone="no"?>
<!-- Created with Inkscape (http://www.inkscape.org/) -->

<svg
   xmlns:dc="http://purl.org/dc/elements/1.1/"
   xmlns:cc="http://creativecommons.org/ns#"
   xmlns:rdf="http://www.w3.org/1999/02/22-rdf-syntax-ns#"
   xmlns:svg="http://www.w3.org/2000/svg"
   xmlns="http://www.w3.org/2000/svg"
   xmlns:sodipodi="http://sodipodi.sourceforge.net/DTD/sodipodi-0.dtd"
   xmlns:inkscape="http://www.inkscape.org/namespaces/inkscape"
   width="250.64581"
   height="208.11465"
   id="svg9917"
   version="1.1"
   inkscape:version="0.48.4 r9939"
   sodipodi:docname="New document 47">
  <defs
     id="defs9919" />
  <sodipodi:namedview
     id="base"
     pagecolor="#ffffff"
     bordercolor="#666666"
     borderopacity="1.0"
     inkscape:pageopacity="0.0"
     inkscape:pageshadow="2"
     inkscape:zoom="0.98994949"
     inkscape:cx="345.77295"
     inkscape:cy="96.765399"
     inkscape:document-units="px"
     inkscape:current-layer="layer1"
     showgrid="false"
     fit-margin-top="0"
     fit-margin-left="0"
     fit-margin-right="0"
     fit-margin-bottom="0"
     inkscape:window-width="1364"
     inkscape:window-height="710"
     inkscape:window-x="1"
     inkscape:window-y="1"
     inkscape:window-maximized="1" />
  <metadata
     id="metadata9922">
    <rdf:RDF>
      <cc:Work
         rdf:about="">
        <dc:format>image/svg+xml</dc:format>
        <dc:type
           rdf:resource="http://purl.org/dc/dcmitype/StillImage" />
        <dc:title></dc:title>
      </cc:Work>
    </rdf:RDF>
  </metadata>
  <g
     inkscape:label="Layer 1"
     inkscape:groupmode="layer"
     id="layer1"
     transform="translate(-29.227049,-16.951903)">
    <path
       style="fill:none;stroke:#000000;stroke-width:2;stroke-linecap:butt;stroke-linejoin:miter;stroke-miterlimit:4;stroke-opacity:1;stroke-dasharray:none"
       d="m 42.637667,189.99737 19.28571,-39.28572 42.142863,17.85715"
       id="path3960"
       inkscape:connector-curvature="0" />
    <path
       style="fill:none;stroke:#000000;stroke-width:2;stroke-linecap:butt;stroke-linejoin:miter;stroke-miterlimit:4;stroke-opacity:1;stroke-dasharray:none"
       d="M 41.923377,29.283085 162.63766,61.425942"
       id="path3954"
       inkscape:connector-curvature="0" />
    <path
       style="fill:none;stroke:#000000;stroke-width:2;stroke-linecap:butt;stroke-linejoin:miter;stroke-miterlimit:4;stroke-opacity:1;stroke-dasharray:none"
       d="M 102.63767,169.99737 162.63766,62.140228"
       id="path3956"
       inkscape:connector-curvature="0" />
    <path
       style="fill:none;stroke:#000000;stroke-width:2;stroke-linecap:butt;stroke-linejoin:miter;stroke-miterlimit:4;stroke-opacity:1;stroke-dasharray:none"
       d="M 42.637667,190.71165 101.2091,169.28308"
       id="path3958"
       inkscape:connector-curvature="0" />
    <path
       style="fill:none;stroke:#000000;stroke-width:2;stroke-linecap:butt;stroke-linejoin:miter;stroke-miterlimit:4;stroke-opacity:1;stroke-dasharray:none"
       d="M 42.637667,189.28308 41.923377,29.283085 62.637667,82.854514"
       id="path3962"
       inkscape:connector-curvature="0" />
    <path
       style="fill:none;stroke:#000000;stroke-width:2;stroke-linecap:butt;stroke-linejoin:miter;stroke-miterlimit:4;stroke-opacity:1;stroke-dasharray:none"
       d="M 39.780527,28.568799 111.92339,92.854512"
       id="path3964"
       inkscape:connector-curvature="0" />
    <path
       style="fill:none;stroke:#000000;stroke-width:2;stroke-linecap:butt;stroke-linejoin:miter;stroke-miterlimit:4;stroke-opacity:1;stroke-dasharray:none"
       d="m 213.20909,210.71165 -0.71429,-49.28571 52.85715,48.57143"
       id="path3952"
       inkscape:connector-curvature="0" />
    <path
       style="fill:none;stroke:#000000;stroke-width:2;stroke-linecap:butt;stroke-linejoin:miter;stroke-miterlimit:4;stroke-opacity:1;stroke-dasharray:none"
       d="m 210.70909,211.21165 52.14286,-0.71428"
       id="path3157-3"
       inkscape:connector-curvature="0" />
    <path
       style="fill:none;stroke:#000000;stroke-width:2;stroke-linecap:butt;stroke-linejoin:miter;stroke-miterlimit:4;stroke-opacity:1;stroke-dasharray:none"
       d="m 211.85195,161.78308 52.14286,-0.71428"
       id="path3157-2"
       inkscape:connector-curvature="0" />
    <path
       style="fill:none;stroke:#000000;stroke-width:2;stroke-linecap:butt;stroke-linejoin:miter;stroke-miterlimit:4;stroke-opacity:1;stroke-dasharray:none"
       d="m 211.06623,70.711656 52.14286,-0.714285"
       id="path3157"
       inkscape:connector-curvature="0" />
    <path
       sodipodi:type="arc"
       style="fill:#ffffff;fill-opacity:1;fill-rule:nonzero;stroke:#000000;stroke-width:2;stroke-linecap:square;stroke-linejoin:miter;stroke-miterlimit:4;stroke-opacity:1;stroke-dasharray:none"
       id="path2985"
       sodipodi:cx="121.72338"
       sodipodi:cy="88.676651"
       sodipodi:rx="17.67767"
       sodipodi:ry="18.182745"
       d="m 139.40105,88.676651 c 0,10.042053 -7.91456,18.182749 -17.67767,18.182749 -9.76311,0 -17.67767,-8.140696 -17.67767,-18.182749 0,-10.042053 7.91456,-18.182745 17.67767,-18.182745 9.76311,0 17.67767,8.140692 17.67767,18.182745 z"
       transform="matrix(0.73012957,0,0,0.70984819,-45.999113,-32.382546)" />
    <text
       xml:space="preserve"
       style="font-size:14px;font-style:normal;font-variant:normal;font-weight:normal;font-stretch:normal;line-height:125%;letter-spacing:0px;word-spacing:0px;fill:#000000;fill-opacity:1;stroke:none;font-family:DejaVu Sans;-inkscape-font-specification:DejaVu Sans"
       x="38.389973"
       y="35.150723"
       id="text2987"
       sodipodi:linespacing="125%"><tspan
         sodipodi:role="line"
         id="tspan2989"
         x="38.389973"
         y="35.150723">0</tspan></text>
    <path
       sodipodi:type="arc"
       style="fill:#ffffff;fill-opacity:1;fill-rule:nonzero;stroke:#000000;stroke-width:2;stroke-linecap:square;stroke-linejoin:miter;stroke-miterlimit:4;stroke-opacity:1;stroke-dasharray:none"
       id="path2985-6"
       sodipodi:cx="121.72338"
       sodipodi:cy="88.676651"
       sodipodi:rx="17.67767"
       sodipodi:ry="18.182745"
       d="m 139.40105,88.676651 c 0,10.042053 -7.91456,18.182749 -17.67767,18.182749 -9.76311,0 -17.67767,-8.140696 -17.67767,-18.182749 0,-10.042053 7.91456,-18.182745 17.67767,-18.182745 9.76311,0 17.67767,8.140692 17.67767,18.182745 z"
       transform="matrix(0.73012957,0,0,0.70984819,-25.515063,18.875269)" />
    <text
       xml:space="preserve"
       style="font-size:14px;font-style:normal;font-variant:normal;font-weight:normal;font-stretch:normal;line-height:125%;letter-spacing:0px;word-spacing:0px;fill:#000000;fill-opacity:1;stroke:none;font-family:DejaVu Sans;-inkscape-font-specification:DejaVu Sans"
       x="58.874012"
       y="86.408539"
       id="text2987-3"
       sodipodi:linespacing="125%"><tspan
         sodipodi:role="line"
         id="tspan2989-3"
         x="58.874012"
         y="86.408539">1</tspan></text>
    <path
       sodipodi:type="arc"
       style="fill:#ffffff;fill-opacity:1;fill-rule:nonzero;stroke:#000000;stroke-width:2;stroke-linecap:square;stroke-linejoin:miter;stroke-miterlimit:4;stroke-opacity:1;stroke-dasharray:none"
       id="path2985-8"
       sodipodi:cx="121.72338"
       sodipodi:cy="88.676651"
       sodipodi:rx="17.67767"
       sodipodi:ry="18.182745"
       d="m 139.40105,88.676651 c 0,10.042053 -7.91456,18.182749 -17.67767,18.182749 -9.76311,0 -17.67767,-8.140696 -17.67767,-18.182749 0,-10.042053 7.91456,-18.182745 17.67767,-18.182745 9.76311,0 17.67767,8.140692 17.67767,18.182745 z"
       transform="matrix(0.73012957,0,0,0.70984819,23.563997,27.987668)" />
    <text
       xml:space="preserve"
       style="font-size:14px;font-style:normal;font-variant:normal;font-weight:normal;font-stretch:normal;line-height:125%;letter-spacing:0px;word-spacing:0px;fill:#000000;fill-opacity:1;stroke:none;font-family:DejaVu Sans;-inkscape-font-specification:DejaVu Sans"
       x="107.95306"
       y="95.520935"
       id="text2987-5"
       sodipodi:linespacing="125%"><tspan
         sodipodi:role="line"
         id="tspan2989-1"
         x="107.95306"
         y="95.520935">2</tspan></text>
    <path
       sodipodi:type="arc"
       style="fill:#ffffff;fill-opacity:1;fill-rule:nonzero;stroke:#000000;stroke-width:2;stroke-linecap:square;stroke-linejoin:miter;stroke-miterlimit:4;stroke-opacity:1;stroke-dasharray:none"
       id="path2985-5"
       sodipodi:cx="121.72338"
       sodipodi:cy="88.676651"
       sodipodi:rx="17.67767"
       sodipodi:ry="18.182745"
       d="m 139.40105,88.676651 c 0,10.042053 -7.91456,18.182749 -17.67767,18.182749 -9.76311,0 -17.67767,-8.140696 -17.67767,-18.182749 0,-10.042053 7.91456,-18.182745 17.67767,-18.182745 9.76311,0 17.67767,8.140692 17.67767,18.182745 z"
       transform="matrix(0.73012957,0,0,0.70984819,-26.077063,88.229162)" />
    <text
       xml:space="preserve"
       style="font-size:14px;font-style:normal;font-variant:normal;font-weight:normal;font-stretch:normal;line-height:125%;letter-spacing:0px;word-spacing:0px;fill:#000000;fill-opacity:1;stroke:none;font-family:DejaVu Sans;-inkscape-font-specification:DejaVu Sans"
       x="58.312"
       y="155.76244"
       id="text2987-0"
       sodipodi:linespacing="125%"><tspan
         sodipodi:role="line"
         id="tspan2989-5"
         x="58.312"
         y="155.76244">3</tspan></text>
    <path
       sodipodi:type="arc"
       style="fill:#ffffff;fill-opacity:1;fill-rule:nonzero;stroke:#000000;stroke-width:2;stroke-linecap:square;stroke-linejoin:miter;stroke-miterlimit:4;stroke-opacity:1;stroke-dasharray:none"
       id="path2985-0"
       sodipodi:cx="121.72338"
       sodipodi:cy="88.676651"
       sodipodi:rx="17.67767"
       sodipodi:ry="18.182745"
       d="m 139.40105,88.676651 c 0,10.042053 -7.91456,18.182749 -17.67767,18.182749 -9.76311,0 -17.67767,-8.140696 -17.67767,-18.182749 0,-10.042053 7.91456,-18.182745 17.67767,-18.182745 9.76311,0 17.67767,8.140692 17.67767,18.182745 z"
       transform="matrix(0.73012957,0,0,0.70984819,14.206487,107.57435)" />
    <text
       xml:space="preserve"
       style="font-size:14px;font-style:normal;font-variant:normal;font-weight:normal;font-stretch:normal;line-height:125%;letter-spacing:0px;word-spacing:0px;fill:#000000;fill-opacity:1;stroke:none;font-family:DejaVu Sans;-inkscape-font-specification:DejaVu Sans"
       x="98.595573"
       y="175.10762"
       id="text2987-54"
       sodipodi:linespacing="125%"><tspan
         sodipodi:role="line"
         id="tspan2989-7"
         x="98.595573"
         y="175.10762">4</tspan></text>
    <path
       sodipodi:type="arc"
       style="fill:#ffffff;fill-opacity:1;fill-rule:nonzero;stroke:#000000;stroke-width:2;stroke-linecap:square;stroke-linejoin:miter;stroke-miterlimit:4;stroke-opacity:1;stroke-dasharray:none"
       id="path2985-4"
       sodipodi:cx="121.72338"
       sodipodi:cy="88.676651"
       sodipodi:rx="17.67767"
       sodipodi:ry="18.182745"
       d="m 139.40105,88.676651 c 0,10.042053 -7.91456,18.182749 -17.67767,18.182749 -9.76311,0 -17.67767,-8.140696 -17.67767,-18.182749 0,-10.042053 7.91456,-18.182745 17.67767,-18.182745 9.76311,0 17.67767,8.140692 17.67767,18.182745 z"
       transform="matrix(0.73012957,0,0,0.70984819,-45.126383,126.76724)" />
    <text
       xml:space="preserve"
       style="font-size:14px;font-style:normal;font-variant:normal;font-weight:normal;font-stretch:normal;line-height:125%;letter-spacing:0px;word-spacing:0px;fill:#000000;fill-opacity:1;stroke:none;font-family:DejaVu Sans;-inkscape-font-specification:DejaVu Sans"
       x="39.262684"
       y="194.30052"
       id="text2987-02"
       sodipodi:linespacing="125%"><tspan
         sodipodi:role="line"
         id="tspan2989-0"
         x="39.262684"
         y="194.30052">5</tspan></text>
    <path
       sodipodi:type="arc"
       style="fill:#ffffff;fill-opacity:1;fill-rule:nonzero;stroke:#000000;stroke-width:2;stroke-linecap:square;stroke-linejoin:miter;stroke-miterlimit:4;stroke-opacity:1;stroke-dasharray:none"
       id="path2985-3"
       sodipodi:cx="121.72338"
       sodipodi:cy="88.676651"
       sodipodi:rx="17.67767"
       sodipodi:ry="18.182745"
       d="m 139.40105,88.676651 c 0,10.042053 -7.91456,18.182749 -17.67767,18.182749 -9.76311,0 -17.67767,-8.140696 -17.67767,-18.182749 0,-10.042053 7.91456,-18.182745 17.67767,-18.182745 9.76311,0 17.67767,8.140692 17.67767,18.182745 z"
       transform="matrix(0.73012957,0,0,0.70984819,73.632177,-1.2559932)" />
    <text
       xml:space="preserve"
       style="font-size:14px;font-style:normal;font-variant:normal;font-weight:normal;font-stretch:normal;line-height:125%;letter-spacing:0px;word-spacing:0px;fill:#000000;fill-opacity:1;stroke:none;font-family:DejaVu Sans;-inkscape-font-specification:DejaVu Sans"
       x="158.02122"
       y="66.277267"
       id="text2987-2"
       sodipodi:linespacing="125%"><tspan
         sodipodi:role="line"
         id="tspan2989-10"
         x="158.02122"
         y="66.277267">6</tspan></text>
    <path
       sodipodi:type="arc"
       style="fill:#ffffff;fill-opacity:1;fill-rule:nonzero;stroke:#000000;stroke-width:2;stroke-linecap:square;stroke-linejoin:miter;stroke-miterlimit:4;stroke-opacity:1;stroke-dasharray:none"
       id="path2985-30"
       sodipodi:cx="121.72338"
       sodipodi:cy="88.676651"
       sodipodi:rx="17.67767"
       sodipodi:ry="18.182745"
       d="m 139.40105,88.676651 c 0,10.042053 -7.91456,18.182749 -17.67767,18.182749 -9.76311,0 -17.67767,-8.140696 -17.67767,-18.182749 0,-10.042053 7.91456,-18.182745 17.67767,-18.182745 9.76311,0 17.67767,8.140692 17.67767,18.182745 z"
       transform="matrix(0.73012957,0,0,0.70984819,121.08544,8.2450898)" />
    <text
       xml:space="preserve"
       style="font-size:14px;font-style:normal;font-variant:normal;font-weight:normal;font-stretch:normal;line-height:125%;letter-spacing:0px;word-spacing:0px;fill:#000000;fill-opacity:1;stroke:none;font-family:DejaVu Sans;-inkscape-font-specification:DejaVu Sans"
       x="205.4745"
       y="75.778351"
       id="text2987-9"
       sodipodi:linespacing="125%"><tspan
         sodipodi:role="line"
         id="tspan2989-30"
         x="205.4745"
         y="75.778351">7</tspan></text>
    <path
       sodipodi:type="arc"
       style="fill:#ffffff;fill-opacity:1;fill-rule:nonzero;stroke:#000000;stroke-width:2;stroke-linecap:square;stroke-linejoin:miter;stroke-miterlimit:4;stroke-opacity:1;stroke-dasharray:none"
       id="path2985-44"
       sodipodi:cx="121.72338"
       sodipodi:cy="88.676651"
       sodipodi:rx="17.67767"
       sodipodi:ry="18.182745"
       d="m 139.40105,88.676651 c 0,10.042053 -7.91456,18.182749 -17.67767,18.182749 -9.76311,0 -17.67767,-8.140696 -17.67767,-18.182749 0,-10.042053 7.91456,-18.182745 17.67767,-18.182745 9.76311,0 17.67767,8.140692 17.67767,18.182745 z"
       transform="matrix(0.73012957,0,0,0.70984819,175.56188,8.7142708)" />
    <text
       xml:space="preserve"
       style="font-size:14px;font-style:normal;font-variant:normal;font-weight:normal;font-stretch:normal;line-height:125%;letter-spacing:0px;word-spacing:0px;fill:#000000;fill-opacity:1;stroke:none;font-family:DejaVu Sans;-inkscape-font-specification:DejaVu Sans"
       x="259.95096"
       y="76.247536"
       id="text2987-05"
       sodipodi:linespacing="125%"><tspan
         sodipodi:role="line"
         id="tspan2989-08"
         x="259.95096"
         y="76.247536">8</tspan></text>
    <path
       sodipodi:type="arc"
       style="fill:#ffffff;fill-opacity:1;fill-rule:nonzero;stroke:#000000;stroke-width:2;stroke-linecap:square;stroke-linejoin:miter;stroke-miterlimit:4;stroke-opacity:1;stroke-dasharray:none"
       id="path2985-83"
       sodipodi:cx="121.72338"
       sodipodi:cy="88.676651"
       sodipodi:rx="17.67767"
       sodipodi:ry="18.182745"
       d="m 139.40105,88.676651 c 0,10.042053 -7.91456,18.182749 -17.67767,18.182749 -9.76311,0 -17.67767,-8.140696 -17.67767,-18.182749 0,-10.042053 7.91456,-18.182745 17.67767,-18.182745 9.76311,0 17.67767,8.140692 17.67767,18.182745 z"
       transform="matrix(0.73012957,0,0,0.70984819,123.82003,98.892692)" />
    <text
       xml:space="preserve"
       style="font-size:14px;font-style:normal;font-variant:normal;font-weight:normal;font-stretch:normal;line-height:125%;letter-spacing:0px;word-spacing:0px;fill:#000000;fill-opacity:1;stroke:none;font-family:DejaVu Sans;-inkscape-font-specification:DejaVu Sans"
       x="208.20906"
       y="166.42595"
       id="text2987-8"
       sodipodi:linespacing="125%"><tspan
         sodipodi:role="line"
         id="tspan2989-36"
         x="208.20906"
         y="166.42595">9</tspan></text>
    <path
       sodipodi:type="arc"
       style="fill:#ffffff;fill-opacity:1;fill-rule:nonzero;stroke:#000000;stroke-width:2;stroke-linecap:square;stroke-linejoin:miter;stroke-miterlimit:4;stroke-opacity:1;stroke-dasharray:none"
       id="path2985-35"
       sodipodi:cx="121.72338"
       sodipodi:cy="88.676651"
       sodipodi:rx="17.67767"
       sodipodi:ry="18.182745"
       d="m 139.40105,88.676651 c 0,10.042053 -7.91456,18.182749 -17.67767,18.182749 -9.76311,0 -17.67767,-8.140696 -17.67767,-18.182749 0,-10.042053 7.91456,-18.182745 17.67767,-18.182745 9.76311,0 17.67767,8.140692 17.67767,18.182745 z"
       transform="matrix(0.73012957,0,0,0.70984819,177.35811,98.229162)" />
    <text
       xml:space="preserve"
       style="font-size:14px;font-style:normal;font-variant:normal;font-weight:normal;font-stretch:normal;line-height:125%;letter-spacing:0px;word-spacing:0px;fill:#000000;fill-opacity:1;stroke:none;font-family:DejaVu Sans;-inkscape-font-specification:DejaVu Sans"
       x="256.69644"
       y="165.76244"
       id="text2987-1"
       sodipodi:linespacing="125%"><tspan
         sodipodi:role="line"
         id="tspan2989-53"
         x="256.69644"
         y="165.76244">10</tspan></text>
    <path
       sodipodi:type="arc"
       style="fill:#ffffff;fill-opacity:1;fill-rule:nonzero;stroke:#000000;stroke-width:2;stroke-linecap:square;stroke-linejoin:miter;stroke-miterlimit:4;stroke-opacity:1;stroke-dasharray:none"
       id="path2985-82"
       sodipodi:cx="121.72338"
       sodipodi:cy="88.676651"
       sodipodi:rx="17.67767"
       sodipodi:ry="18.182745"
       d="m 139.40105,88.676651 c 0,10.042053 -7.91456,18.182749 -17.67767,18.182749 -9.76311,0 -17.67767,-8.140696 -17.67767,-18.182749 0,-10.042053 7.91456,-18.182745 17.67767,-18.182745 9.76311,0 17.67767,8.140692 17.67767,18.182745 z"
       transform="matrix(0.73012957,0,0,0.70984819,123.82003,147.7774)" />
    <text
       xml:space="preserve"
       style="font-size:14px;font-style:normal;font-variant:normal;font-weight:normal;font-stretch:normal;line-height:125%;letter-spacing:0px;word-spacing:0px;fill:#000000;fill-opacity:1;stroke:none;font-family:DejaVu Sans;-inkscape-font-specification:DejaVu Sans"
       x="203.15834"
       y="215.31067"
       id="text2987-7"
       sodipodi:linespacing="125%"><tspan
         sodipodi:role="line"
         id="tspan2989-07"
         x="203.15834"
         y="215.31067">11</tspan></text>
    <path
       sodipodi:type="arc"
       style="fill:#ffffff;fill-opacity:1;fill-rule:nonzero;stroke:#000000;stroke-width:2;stroke-linecap:square;stroke-linejoin:miter;stroke-miterlimit:4;stroke-opacity:1;stroke-dasharray:none"
       id="path2985-05"
       sodipodi:cx="121.72338"
       sodipodi:cy="88.676651"
       sodipodi:rx="17.67767"
       sodipodi:ry="18.182745"
       d="m 139.40105,88.676651 c 0,10.042053 -7.91456,18.182749 -17.67767,18.182749 -9.76311,0 -17.67767,-8.140696 -17.67767,-18.182749 0,-10.042053 7.91456,-18.182745 17.67767,-18.182745 9.76311,0 17.67767,8.140692 17.67767,18.182745 z"
       transform="matrix(0.73012957,0,0,0.70984819,176.57203,148.49169)" />
    <text
       xml:space="preserve"
       style="font-size:14px;font-style:normal;font-variant:normal;font-weight:normal;font-stretch:normal;line-height:125%;letter-spacing:0px;word-spacing:0px;fill:#000000;fill-opacity:1;stroke:none;font-family:DejaVu Sans;-inkscape-font-specification:DejaVu Sans"
       x="255.91035"
       y="216.02495"
       id="text2987-91"
       sodipodi:linespacing="125%"><tspan
         sodipodi:role="line"
         id="tspan2989-6"
         x="255.91035"
         y="216.02495">12</tspan></text>
  </g>
</svg>
