<?xml version="1.0" encoding="UTF-8" standalone="no"?>
<!-- Created with Inkscape (http://www.inkscape.org/) -->

<svg
   xmlns:dc="http://purl.org/dc/elements/1.1/"
   xmlns:cc="http://creativecommons.org/ns#"
   xmlns:rdf="http://www.w3.org/1999/02/22-rdf-syntax-ns#"
   xmlns:svg="http://www.w3.org/2000/svg"
   xmlns="http://www.w3.org/2000/svg"
   xmlns:sodipodi="http://sodipodi.sourceforge.net/DTD/sodipodi-0.dtd"
   xmlns:inkscape="http://www.inkscape.org/namespaces/inkscape"
   width="446.08038"
   height="290.375"
   id="svg3234"
   version="1.1"
   inkscape:version="0.48.4 r9939"
   sodipodi:docname="heapify_swim.svg">
  <defs
     id="defs3236" />
  <sodipodi:namedview
     id="base"
     pagecolor="#ffffff"
     bordercolor="#666666"
     borderopacity="1.0"
     inkscape:pageopacity="0.0"
     inkscape:pageshadow="2"
     inkscape:zoom="1.4"
     inkscape:cx="191.54464"
     inkscape:cy="145.90351"
     inkscape:document-units="px"
     inkscape:current-layer="layer1"
     showgrid="false"
     inkscape:window-width="1364"
     inkscape:window-height="710"
     inkscape:window-x="1"
     inkscape:window-y="1"
     inkscape:window-maximized="1"
     fit-margin-top="0"
     fit-margin-left="0"
     fit-margin-right="0"
     fit-margin-bottom="0" />
  <metadata
     id="metadata3239">
    <rdf:RDF>
      <cc:Work
         rdf:about="">
        <dc:format>image/svg+xml</dc:format>
        <dc:type
           rdf:resource="http://purl.org/dc/dcmitype/StillImage" />
        <dc:title></dc:title>
      </cc:Work>
    </rdf:RDF>
  </metadata>
  <g
     inkscape:label="Layer 1"
     inkscape:groupmode="layer"
     id="layer1"
     transform="translate(-183.45536,-45.03355)">
    <path
       transform="translate(60.295544,-59.9352)"
       sodipodi:type="arc"
       style="fill:#ffffff;fill-opacity:1;stroke:#000000;stroke-width:1.94500005;stroke-linecap:butt;stroke-miterlimit:4;stroke-opacity:1;stroke-dasharray:none"
       id="path3020"
       sodipodi:cx="369.28571"
       sodipodi:cy="116.6479"
       sodipodi:rx="10"
       sodipodi:ry="10.714286"
       d="m 379.28571,116.6479 c 0,5.91734 -4.47716,10.71429 -10,10.71429 -5.52285,0 -10,-4.79695 -10,-10.71429 0,-5.91733 4.47715,-10.71428 10,-10.71428 5.52284,0 10,4.79695 10,10.71428 z" />
    <text
       xml:space="preserve"
       style="font-size:14px;font-style:normal;font-variant:normal;font-weight:bold;font-stretch:normal;line-height:125%;letter-spacing:0px;word-spacing:0px;fill:#000000;fill-opacity:1;stroke:none;font-family:Courier;-inkscape-font-specification:Courier Bold"
       x="425.29556"
       y="60.712704"
       id="text3022"
       sodipodi:linespacing="125%"><tspan
         sodipodi:role="line"
         id="tspan3024"
         x="425.29556"
         y="60.712704">S</tspan></text>
    <path
       transform="translate(-60.714276,-32.377026)"
       sodipodi:type="arc"
       style="fill:#ffffff;fill-opacity:1;stroke:#000000;stroke-width:1.94500005;stroke-linecap:butt;stroke-miterlimit:4;stroke-opacity:1;stroke-dasharray:none"
       id="path3020-7"
       sodipodi:cx="369.28571"
       sodipodi:cy="116.6479"
       sodipodi:rx="10"
       sodipodi:ry="10.714286"
       d="m 379.28571,116.6479 c 0,5.91734 -4.47716,10.71429 -10,10.71429 -5.52285,0 -10,-4.79695 -10,-10.71429 0,-5.91733 4.47715,-10.71428 10,-10.71428 5.52284,0 10,4.79695 10,10.71428 z" />
    <text
       xml:space="preserve"
       style="font-size:14px;font-style:normal;font-variant:normal;font-weight:bold;font-stretch:normal;line-height:125%;letter-spacing:0px;word-spacing:0px;fill:#800000;fill-opacity:1;stroke:none;font-family:Courier;-inkscape-font-specification:Courier Bold"
       x="304.28574"
       y="88.270866"
       id="text3022-4"
       sodipodi:linespacing="125%"><tspan
         sodipodi:role="line"
         id="tspan3024-1"
         x="304.28574"
         y="88.270866">P</tspan></text>
    <path
       transform="translate(183.28573,-32.377026)"
       sodipodi:type="arc"
       style="fill:#ffffff;fill-opacity:1;stroke:#000000;stroke-width:1.94500005;stroke-linecap:butt;stroke-miterlimit:4;stroke-opacity:1;stroke-dasharray:none"
       id="path3020-0"
       sodipodi:cx="369.28571"
       sodipodi:cy="116.6479"
       sodipodi:rx="10"
       sodipodi:ry="10.714286"
       d="m 379.28571,116.6479 c 0,5.91734 -4.47716,10.71429 -10,10.71429 -5.52285,0 -10,-4.79695 -10,-10.71429 0,-5.91733 4.47715,-10.71428 10,-10.71428 5.52284,0 10,4.79695 10,10.71428 z" />
    <text
       xml:space="preserve"
       style="font-size:14px;font-style:normal;font-variant:normal;font-weight:bold;font-stretch:normal;line-height:125%;letter-spacing:0px;word-spacing:0px;fill:#000000;fill-opacity:1;stroke:none;font-family:Courier;-inkscape-font-specification:Courier Bold"
       x="548.28571"
       y="88.270866"
       id="text3022-5"
       sodipodi:linespacing="125%"><tspan
         sodipodi:role="line"
         id="tspan3024-2"
         x="548.28571"
         y="88.270866">R</tspan></text>
    <path
       transform="translate(-134.71428,7.6229736)"
       sodipodi:type="arc"
       style="fill:#ffffff;fill-opacity:1;stroke:#000000;stroke-width:1.94500005;stroke-linecap:butt;stroke-miterlimit:4;stroke-opacity:1;stroke-dasharray:none"
       id="path3020-04"
       sodipodi:cx="369.28571"
       sodipodi:cy="116.6479"
       sodipodi:rx="10"
       sodipodi:ry="10.714286"
       d="m 379.28571,116.6479 c 0,5.91734 -4.47716,10.71429 -10,10.71429 -5.52285,0 -10,-4.79695 -10,-10.71429 0,-5.91733 4.47715,-10.71428 10,-10.71428 5.52284,0 10,4.79695 10,10.71428 z" />
    <text
       xml:space="preserve"
       style="font-size:14px;font-style:normal;font-variant:normal;font-weight:bold;font-stretch:normal;line-height:125%;letter-spacing:0px;word-spacing:0px;fill:#000000;fill-opacity:1;stroke:none;font-family:Courier;-inkscape-font-specification:Courier Bold"
       x="230.28572"
       y="128.27087"
       id="text3022-1"
       sodipodi:linespacing="125%"><tspan
         sodipodi:role="line"
         id="tspan3024-3"
         x="230.28572"
         y="128.27087">G</tspan></text>
    <path
       transform="translate(5.2857243,7.6229736)"
       sodipodi:type="arc"
       style="fill:#ffffff;fill-opacity:1;stroke:#808000;stroke-width:1.94500005;stroke-linecap:butt;stroke-miterlimit:4;stroke-opacity:1;stroke-dasharray:none"
       id="path3020-2"
       sodipodi:cx="369.28571"
       sodipodi:cy="116.6479"
       sodipodi:rx="10"
       sodipodi:ry="10.714286"
       d="m 379.28571,116.6479 c 0,5.91734 -4.47716,10.71429 -10,10.71429 -5.52285,0 -10,-4.79695 -10,-10.71429 0,-5.91733 4.47715,-10.71428 10,-10.71428 5.52284,0 10,4.79695 10,10.71428 z" />
    <text
       xml:space="preserve"
       style="font-size:14px;font-style:normal;font-variant:normal;font-weight:bold;font-stretch:normal;line-height:125%;letter-spacing:0px;word-spacing:0px;fill:#800000;fill-opacity:1;stroke:none;font-family:Courier;-inkscape-font-specification:Courier Bold"
       x="370.28574"
       y="128.27087"
       id="text3022-6"
       sodipodi:linespacing="125%"><tspan
         sodipodi:role="line"
         id="tspan3024-7"
         x="370.28574"
         y="128.27087">T</tspan></text>
    <path
       transform="translate(123.14287,7.7658296)"
       sodipodi:type="arc"
       style="fill:#ffffff;fill-opacity:1;stroke:#000000;stroke-width:1.94500005;stroke-linecap:butt;stroke-miterlimit:4;stroke-opacity:1;stroke-dasharray:none"
       id="path3020-00"
       sodipodi:cx="369.28571"
       sodipodi:cy="116.6479"
       sodipodi:rx="10"
       sodipodi:ry="10.714286"
       d="m 379.28571,116.6479 c 0,5.91734 -4.47716,10.71429 -10,10.71429 -5.52285,0 -10,-4.79695 -10,-10.71429 0,-5.91733 4.47715,-10.71428 10,-10.71428 5.52284,0 10,4.79695 10,10.71428 z" />
    <text
       xml:space="preserve"
       style="font-size:14px;font-style:normal;font-variant:normal;font-weight:bold;font-stretch:normal;line-height:125%;letter-spacing:0px;word-spacing:0px;fill:#000000;fill-opacity:1;stroke:none;font-family:Courier;-inkscape-font-specification:Courier Bold"
       x="488.14288"
       y="128.41374"
       id="text3022-7"
       sodipodi:linespacing="125%"><tspan
         sodipodi:role="line"
         id="tspan3024-30"
         x="488.14288"
         y="128.41374">O</tspan></text>
    <path
       transform="translate(249.14287,7.7658296)"
       sodipodi:type="arc"
       style="fill:#ffffff;fill-opacity:1;stroke:#000000;stroke-width:1.94500005;stroke-linecap:butt;stroke-miterlimit:4;stroke-opacity:1;stroke-dasharray:none"
       id="path3020-9"
       sodipodi:cx="369.28571"
       sodipodi:cy="116.6479"
       sodipodi:rx="10"
       sodipodi:ry="10.714286"
       d="m 379.28571,116.6479 c 0,5.91734 -4.47716,10.71429 -10,10.71429 -5.52285,0 -10,-4.79695 -10,-10.71429 0,-5.91733 4.47715,-10.71428 10,-10.71428 5.52284,0 10,4.79695 10,10.71428 z" />
    <text
       xml:space="preserve"
       style="font-size:14px;font-style:normal;font-variant:normal;font-weight:bold;font-stretch:normal;line-height:125%;letter-spacing:0px;word-spacing:0px;fill:#000000;fill-opacity:1;stroke:none;font-family:Courier;-inkscape-font-specification:Courier Bold"
       x="614.14282"
       y="128.41374"
       id="text3022-16"
       sodipodi:linespacing="125%"><tspan
         sodipodi:role="line"
         id="tspan3024-79"
         x="614.14282"
         y="128.41374">A</tspan></text>
    <path
       transform="translate(-174.85714,47.76583)"
       sodipodi:type="arc"
       style="fill:#ffffff;fill-opacity:1;stroke:#000000;stroke-width:1.94500005;stroke-linecap:butt;stroke-miterlimit:4;stroke-opacity:1;stroke-dasharray:none"
       id="path3020-6"
       sodipodi:cx="369.28571"
       sodipodi:cy="116.6479"
       sodipodi:rx="10"
       sodipodi:ry="10.714286"
       d="m 379.28571,116.6479 c 0,5.91734 -4.47716,10.71429 -10,10.71429 -5.52285,0 -10,-4.79695 -10,-10.71429 0,-5.91733 4.47715,-10.71428 10,-10.71428 5.52284,0 10,4.79695 10,10.71428 z" />
    <text
       xml:space="preserve"
       style="font-size:14px;font-style:normal;font-variant:normal;font-weight:bold;font-stretch:normal;line-height:125%;letter-spacing:0px;word-spacing:0px;fill:#000000;fill-opacity:1;stroke:none;font-family:Courier;-inkscape-font-specification:Courier Bold"
       x="190.14287"
       y="168.41374"
       id="text3022-2"
       sodipodi:linespacing="125%"><tspan
         sodipodi:role="line"
         id="tspan3024-33"
         x="190.14287"
         y="168.41374">E</tspan></text>
    <path
       transform="translate(-94.857136,47.76583)"
       sodipodi:type="arc"
       style="fill:#ffffff;fill-opacity:1;stroke:#000000;stroke-width:1.94500005;stroke-linecap:butt;stroke-miterlimit:4;stroke-opacity:1;stroke-dasharray:none"
       id="path3020-93"
       sodipodi:cx="369.28571"
       sodipodi:cy="116.6479"
       sodipodi:rx="10"
       sodipodi:ry="10.714286"
       d="m 379.28571,116.6479 c 0,5.91734 -4.47716,10.71429 -10,10.71429 -5.52285,0 -10,-4.79695 -10,-10.71429 0,-5.91733 4.47715,-10.71428 10,-10.71428 5.52284,0 10,4.79695 10,10.71428 z" />
    <text
       xml:space="preserve"
       style="font-size:14px;font-style:normal;font-variant:normal;font-weight:bold;font-stretch:normal;line-height:125%;letter-spacing:0px;word-spacing:0px;fill:#000000;fill-opacity:1;stroke:none;font-family:Courier;-inkscape-font-specification:Courier Bold"
       x="270.14288"
       y="168.41374"
       id="text3022-9"
       sodipodi:linespacing="125%"><tspan
         sodipodi:role="line"
         id="tspan3024-9"
         x="270.14288"
         y="168.41374">I</tspan></text>
    <path
       transform="translate(-34.857136,47.90869)"
       sodipodi:type="arc"
       style="fill:#ffffff;fill-opacity:1;stroke:#000000;stroke-width:1.94500005;stroke-linecap:butt;stroke-miterlimit:4;stroke-opacity:1;stroke-dasharray:none"
       id="path3020-1"
       sodipodi:cx="369.28571"
       sodipodi:cy="116.6479"
       sodipodi:rx="10"
       sodipodi:ry="10.714286"
       d="m 379.28571,116.6479 c 0,5.91734 -4.47716,10.71429 -10,10.71429 -5.52285,0 -10,-4.79695 -10,-10.71429 0,-5.91733 4.47715,-10.71428 10,-10.71428 5.52284,0 10,4.79695 10,10.71428 z" />
    <text
       xml:space="preserve"
       style="font-size:14px;font-style:normal;font-variant:normal;font-weight:bold;font-stretch:normal;line-height:125%;letter-spacing:0px;word-spacing:0px;fill:#000000;fill-opacity:1;stroke:none;font-family:Courier;-inkscape-font-specification:Courier Bold"
       x="330.14288"
       y="168.55659"
       id="text3022-91"
       sodipodi:linespacing="125%"><tspan
         sodipodi:role="line"
         id="tspan3024-0"
         x="330.14288"
         y="168.55659">H</tspan></text>
    <path
       transform="translate(45.142864,47.90869)"
       sodipodi:type="arc"
       style="fill:#ffffff;fill-opacity:1;stroke:#000000;stroke-width:1.94500005;stroke-linecap:butt;stroke-miterlimit:4;stroke-opacity:1;stroke-dasharray:none"
       id="path3020-94"
       sodipodi:cx="369.28571"
       sodipodi:cy="116.6479"
       sodipodi:rx="10"
       sodipodi:ry="10.714286"
       d="m 379.28571,116.6479 c 0,5.91734 -4.47716,10.71429 -10,10.71429 -5.52285,0 -10,-4.79695 -10,-10.71429 0,-5.91733 4.47715,-10.71428 10,-10.71428 5.52284,0 10,4.79695 10,10.71428 z" />
    <text
       xml:space="preserve"
       style="font-size:14px;font-style:normal;font-variant:normal;font-weight:bold;font-stretch:normal;line-height:125%;letter-spacing:0px;word-spacing:0px;fill:#000000;fill-opacity:1;stroke:none;font-family:Courier;-inkscape-font-specification:Courier Bold"
       x="410.14288"
       y="168.55659"
       id="text3022-15"
       sodipodi:linespacing="125%"><tspan
         sodipodi:role="line"
         id="tspan3024-13"
         x="410.14288"
         y="168.55659">G</tspan></text>
    <path
       style="fill:none;stroke:#000000;stroke-width:1px;stroke-linecap:butt;stroke-linejoin:miter;stroke-opacity:1"
       d="M 317.4384,78.85555 420.29554,57.42698"
       id="path3195"
       inkscape:connector-curvature="0" />
    <path
       style="fill:none;stroke:#000000;stroke-width:1px;stroke-linecap:butt;stroke-linejoin:miter;stroke-opacity:1"
       d="m 440.29554,57.42698 c 101.42857,25 101.42857,25 101.42857,25"
       id="path3197"
       inkscape:connector-curvature="0" />
    <path
       style="fill:none;stroke:#000000;stroke-width:1px;stroke-linecap:butt;stroke-linejoin:miter;stroke-opacity:1"
       d="M 245.10475,119.5875 C 298.34347,85.98077 298.34347,85.98077 298.34347,85.98077"
       id="path3199"
       inkscape:connector-curvature="0" />
    <path
       style="fill:none;stroke:#000000;stroke-width:1px;stroke-linecap:butt;stroke-linejoin:miter;stroke-opacity:1"
       d="M 198.15269,153.85555 C 227.43841,131.7127 227.43841,131.7127 227.43841,131.7127"
       id="path3201"
       inkscape:connector-curvature="0" />
    <path
       style="fill:none;stroke:#000000;stroke-width:1px;stroke-linecap:butt;stroke-linejoin:miter;stroke-opacity:1"
       d="m 241.72413,131.7127 c 30.71428,22.14285 30.71428,22.14285 30.71428,22.14285"
       id="path3203"
       inkscape:connector-curvature="0" />
    <path
       style="fill:none;stroke:#000000;stroke-width:1px;stroke-linecap:butt;stroke-linejoin:miter;stroke-opacity:1"
       d="m 318.86697,86.7127 c 47.85714,30 47.85714,30 47.85714,30"
       id="path3205"
       inkscape:connector-curvature="0" />
    <path
       style="fill:none;stroke:#000000;stroke-width:1px;stroke-linecap:butt;stroke-linejoin:miter;stroke-opacity:1"
       d="m 340.58234,155.21469 c 27.99784,-22.71828 27.99784,-22.71828 27.99784,-22.71828"
       id="path3207"
       inkscape:connector-curvature="0" />
    <path
       style="fill:none;stroke:#000000;stroke-width:1px;stroke-linecap:butt;stroke-linejoin:miter;stroke-opacity:1"
       d="m 379.70546,133.18662 c 29.0373,21.33786 29.0373,21.33786 29.0373,21.33786"
       id="path3209"
       inkscape:connector-curvature="0" />
    <path
       style="fill:none;stroke:#000000;stroke-width:1px;stroke-linecap:butt;stroke-linejoin:miter;stroke-opacity:1"
       d="M 498.86697,116.7127 C 544.58125,89.56984 544.58125,89.56984 544.58125,89.56984"
       id="path3211"
       inkscape:connector-curvature="0" />
    <path
       style="fill:none;stroke:#000000;stroke-width:1px;stroke-linecap:butt;stroke-linejoin:miter;stroke-opacity:1"
       d="m 561.7241,90.99841 c 47.14286,27.14286 47.14286,27.14286 47.14286,27.14286"
       id="path3213"
       inkscape:connector-curvature="0" />
    <text
       xml:space="preserve"
       style="font-size:14px;font-style:normal;font-variant:normal;font-weight:bold;font-stretch:normal;line-height:125%;letter-spacing:0px;word-spacing:0px;fill:#800000;fill-opacity:1;stroke:none;font-family:Courier;-inkscape-font-specification:Courier Bold"
       x="370.71429"
       y="109.50504"
       id="text3452"
       sodipodi:linespacing="125%"><tspan
         sodipodi:role="line"
         id="tspan3454"
         x="370.71429"
         y="109.50504">5</tspan></text>
    <path
       transform="translate(60.43841,99.220903)"
       sodipodi:type="arc"
       style="fill:#ffffff;fill-opacity:1;stroke:#808000;stroke-width:1.94500005;stroke-linecap:butt;stroke-miterlimit:4;stroke-opacity:1;stroke-dasharray:none"
       id="path3020-8"
       sodipodi:cx="369.28571"
       sodipodi:cy="116.6479"
       sodipodi:rx="10"
       sodipodi:ry="10.714286"
       d="m 379.28571,116.6479 c 0,5.91734 -4.47716,10.71429 -10,10.71429 -5.52285,0 -10,-4.79695 -10,-10.71429 0,-5.91733 4.47715,-10.71428 10,-10.71428 5.52284,0 10,4.79695 10,10.71428 z" />
    <text
       xml:space="preserve"
       style="font-size:14px;font-style:normal;font-variant:normal;font-weight:bold;font-stretch:normal;line-height:125%;letter-spacing:0px;word-spacing:0px;fill:#800000;fill-opacity:1;stroke:none;font-family:Courier;-inkscape-font-specification:Courier Bold"
       x="425.43842"
       y="219.8688"
       id="text3022-22"
       sodipodi:linespacing="125%"><tspan
         sodipodi:role="line"
         id="tspan3024-25"
         x="425.43842"
         y="219.8688">T</tspan></text>
    <path
       transform="translate(-60.57141,126.77908)"
       sodipodi:type="arc"
       style="fill:#ffffff;fill-opacity:1;stroke:#808000;stroke-width:1.94500005;stroke-linecap:butt;stroke-miterlimit:4;stroke-opacity:1;stroke-dasharray:none"
       id="path3020-7-7"
       sodipodi:cx="369.28571"
       sodipodi:cy="116.6479"
       sodipodi:rx="10"
       sodipodi:ry="10.714286"
       d="m 379.28571,116.6479 c 0,5.91734 -4.47716,10.71429 -10,10.71429 -5.52285,0 -10,-4.79695 -10,-10.71429 0,-5.91733 4.47715,-10.71428 10,-10.71428 5.52284,0 10,4.79695 10,10.71428 z" />
    <text
       xml:space="preserve"
       style="font-size:14px;font-style:normal;font-variant:normal;font-weight:bold;font-stretch:normal;line-height:125%;letter-spacing:0px;word-spacing:0px;fill:#800000;fill-opacity:1;stroke:none;font-family:Courier;-inkscape-font-specification:Courier Bold"
       x="304.42859"
       y="247.42697"
       id="text3022-4-3"
       sodipodi:linespacing="125%"><tspan
         sodipodi:role="line"
         id="tspan3024-1-6"
         x="304.42859"
         y="247.42697">S</tspan></text>
    <path
       transform="translate(183.42859,126.77908)"
       sodipodi:type="arc"
       style="fill:#ffffff;fill-opacity:1;stroke:#000000;stroke-width:1.94500005;stroke-linecap:butt;stroke-miterlimit:4;stroke-opacity:1;stroke-dasharray:none"
       id="path3020-0-9"
       sodipodi:cx="369.28571"
       sodipodi:cy="116.6479"
       sodipodi:rx="10"
       sodipodi:ry="10.714286"
       d="m 379.28571,116.6479 c 0,5.91734 -4.47716,10.71429 -10,10.71429 -5.52285,0 -10,-4.79695 -10,-10.71429 0,-5.91733 4.47715,-10.71428 10,-10.71428 5.52284,0 10,4.79695 10,10.71428 z" />
    <text
       xml:space="preserve"
       style="font-size:14px;font-style:normal;font-variant:normal;font-weight:bold;font-stretch:normal;line-height:125%;letter-spacing:0px;word-spacing:0px;fill:#000000;fill-opacity:1;stroke:none;font-family:Courier;-inkscape-font-specification:Courier Bold"
       x="548.42859"
       y="247.42697"
       id="text3022-5-6"
       sodipodi:linespacing="125%"><tspan
         sodipodi:role="line"
         id="tspan3024-2-5"
         x="548.42859"
         y="247.42697">R</tspan></text>
    <path
       transform="translate(-134.57142,166.77908)"
       sodipodi:type="arc"
       style="fill:#ffffff;fill-opacity:1;stroke:#000000;stroke-width:1.94500005;stroke-linecap:butt;stroke-miterlimit:4;stroke-opacity:1;stroke-dasharray:none"
       id="path3020-04-8"
       sodipodi:cx="369.28571"
       sodipodi:cy="116.6479"
       sodipodi:rx="10"
       sodipodi:ry="10.714286"
       d="m 379.28571,116.6479 c 0,5.91734 -4.47716,10.71429 -10,10.71429 -5.52285,0 -10,-4.79695 -10,-10.71429 0,-5.91733 4.47715,-10.71428 10,-10.71428 5.52284,0 10,4.79695 10,10.71428 z" />
    <text
       xml:space="preserve"
       style="font-size:14px;font-style:normal;font-variant:normal;font-weight:bold;font-stretch:normal;line-height:125%;letter-spacing:0px;word-spacing:0px;fill:#000000;fill-opacity:1;stroke:none;font-family:Courier;-inkscape-font-specification:Courier Bold"
       x="230.42859"
       y="287.427"
       id="text3022-1-7"
       sodipodi:linespacing="125%"><tspan
         sodipodi:role="line"
         id="tspan3024-3-4"
         x="230.42859"
         y="287.427">G</tspan></text>
    <path
       transform="translate(5.42859,166.77908)"
       sodipodi:type="arc"
       style="fill:#ffffff;fill-opacity:1;stroke:#808000;stroke-width:1.94500005;stroke-linecap:butt;stroke-miterlimit:4;stroke-opacity:1;stroke-dasharray:none"
       id="path3020-2-1"
       sodipodi:cx="369.28571"
       sodipodi:cy="116.6479"
       sodipodi:rx="10"
       sodipodi:ry="10.714286"
       d="m 379.28571,116.6479 c 0,5.91734 -4.47716,10.71429 -10,10.71429 -5.52285,0 -10,-4.79695 -10,-10.71429 0,-5.91733 4.47715,-10.71428 10,-10.71428 5.52284,0 10,4.79695 10,10.71428 z" />
    <text
       xml:space="preserve"
       style="font-size:14px;font-style:normal;font-variant:normal;font-weight:bold;font-stretch:normal;line-height:125%;letter-spacing:0px;word-spacing:0px;fill:#800000;fill-opacity:1;stroke:none;font-family:Courier;-inkscape-font-specification:Courier Bold"
       x="370.42859"
       y="287.427"
       id="text3022-6-0"
       sodipodi:linespacing="125%"><tspan
         sodipodi:role="line"
         id="tspan3024-7-3"
         x="370.42859"
         y="287.427">P</tspan></text>
    <path
       transform="translate(123.28573,166.92193)"
       sodipodi:type="arc"
       style="fill:#ffffff;fill-opacity:1;stroke:#000000;stroke-width:1.94500005;stroke-linecap:butt;stroke-miterlimit:4;stroke-opacity:1;stroke-dasharray:none"
       id="path3020-00-4"
       sodipodi:cx="369.28571"
       sodipodi:cy="116.6479"
       sodipodi:rx="10"
       sodipodi:ry="10.714286"
       d="m 379.28571,116.6479 c 0,5.91734 -4.47716,10.71429 -10,10.71429 -5.52285,0 -10,-4.79695 -10,-10.71429 0,-5.91733 4.47715,-10.71428 10,-10.71428 5.52284,0 10,4.79695 10,10.71428 z" />
    <text
       xml:space="preserve"
       style="font-size:14px;font-style:normal;font-variant:normal;font-weight:bold;font-stretch:normal;line-height:125%;letter-spacing:0px;word-spacing:0px;fill:#000000;fill-opacity:1;stroke:none;font-family:Courier;-inkscape-font-specification:Courier Bold"
       x="488.28577"
       y="287.56985"
       id="text3022-7-1"
       sodipodi:linespacing="125%"><tspan
         sodipodi:role="line"
         id="tspan3024-30-7"
         x="488.28577"
         y="287.56985">O</tspan></text>
    <path
       transform="translate(249.28573,166.92193)"
       sodipodi:type="arc"
       style="fill:#ffffff;fill-opacity:1;stroke:#000000;stroke-width:1.94500005;stroke-linecap:butt;stroke-miterlimit:4;stroke-opacity:1;stroke-dasharray:none"
       id="path3020-9-8"
       sodipodi:cx="369.28571"
       sodipodi:cy="116.6479"
       sodipodi:rx="10"
       sodipodi:ry="10.714286"
       d="m 379.28571,116.6479 c 0,5.91734 -4.47716,10.71429 -10,10.71429 -5.52285,0 -10,-4.79695 -10,-10.71429 0,-5.91733 4.47715,-10.71428 10,-10.71428 5.52284,0 10,4.79695 10,10.71428 z" />
    <text
       xml:space="preserve"
       style="font-size:14px;font-style:normal;font-variant:normal;font-weight:bold;font-stretch:normal;line-height:125%;letter-spacing:0px;word-spacing:0px;fill:#000000;fill-opacity:1;stroke:none;font-family:Courier;-inkscape-font-specification:Courier Bold"
       x="614.28571"
       y="287.56985"
       id="text3022-16-4"
       sodipodi:linespacing="125%"><tspan
         sodipodi:role="line"
         id="tspan3024-79-7"
         x="614.28571"
         y="287.56985">A</tspan></text>
    <path
       transform="translate(-174.71428,206.92194)"
       sodipodi:type="arc"
       style="fill:#ffffff;fill-opacity:1;stroke:#000000;stroke-width:1.94500005;stroke-linecap:butt;stroke-miterlimit:4;stroke-opacity:1;stroke-dasharray:none"
       id="path3020-6-9"
       sodipodi:cx="369.28571"
       sodipodi:cy="116.6479"
       sodipodi:rx="10"
       sodipodi:ry="10.714286"
       d="m 379.28571,116.6479 c 0,5.91734 -4.47716,10.71429 -10,10.71429 -5.52285,0 -10,-4.79695 -10,-10.71429 0,-5.91733 4.47715,-10.71428 10,-10.71428 5.52284,0 10,4.79695 10,10.71428 z" />
    <text
       xml:space="preserve"
       style="font-size:14px;font-style:normal;font-variant:normal;font-weight:bold;font-stretch:normal;line-height:125%;letter-spacing:0px;word-spacing:0px;fill:#000000;fill-opacity:1;stroke:none;font-family:Courier;-inkscape-font-specification:Courier Bold"
       x="190.28574"
       y="327.56985"
       id="text3022-2-0"
       sodipodi:linespacing="125%"><tspan
         sodipodi:role="line"
         id="tspan3024-33-1"
         x="190.28574"
         y="327.56985">E</tspan></text>
    <path
       transform="translate(-94.71427,206.92194)"
       sodipodi:type="arc"
       style="fill:#ffffff;fill-opacity:1;stroke:#000000;stroke-width:1.94500005;stroke-linecap:butt;stroke-miterlimit:4;stroke-opacity:1;stroke-dasharray:none"
       id="path3020-93-7"
       sodipodi:cx="369.28571"
       sodipodi:cy="116.6479"
       sodipodi:rx="10"
       sodipodi:ry="10.714286"
       d="m 379.28571,116.6479 c 0,5.91734 -4.47716,10.71429 -10,10.71429 -5.52285,0 -10,-4.79695 -10,-10.71429 0,-5.91733 4.47715,-10.71428 10,-10.71428 5.52284,0 10,4.79695 10,10.71428 z" />
    <text
       xml:space="preserve"
       style="font-size:14px;font-style:normal;font-variant:normal;font-weight:bold;font-stretch:normal;line-height:125%;letter-spacing:0px;word-spacing:0px;fill:#000000;fill-opacity:1;stroke:none;font-family:Courier;-inkscape-font-specification:Courier Bold"
       x="270.28577"
       y="327.56985"
       id="text3022-9-2"
       sodipodi:linespacing="125%"><tspan
         sodipodi:role="line"
         id="tspan3024-9-4"
         x="270.28577"
         y="327.56985">I</tspan></text>
    <path
       transform="translate(-34.71427,207.0648)"
       sodipodi:type="arc"
       style="fill:#ffffff;fill-opacity:1;stroke:#000000;stroke-width:1.94500005;stroke-linecap:butt;stroke-miterlimit:4;stroke-opacity:1;stroke-dasharray:none"
       id="path3020-1-1"
       sodipodi:cx="369.28571"
       sodipodi:cy="116.6479"
       sodipodi:rx="10"
       sodipodi:ry="10.714286"
       d="m 379.28571,116.6479 c 0,5.91734 -4.47716,10.71429 -10,10.71429 -5.52285,0 -10,-4.79695 -10,-10.71429 0,-5.91733 4.47715,-10.71428 10,-10.71428 5.52284,0 10,4.79695 10,10.71428 z" />
    <text
       xml:space="preserve"
       style="font-size:14px;font-style:normal;font-variant:normal;font-weight:bold;font-stretch:normal;line-height:125%;letter-spacing:0px;word-spacing:0px;fill:#000000;fill-opacity:1;stroke:none;font-family:Courier;-inkscape-font-specification:Courier Bold"
       x="330.28577"
       y="327.71271"
       id="text3022-91-2"
       sodipodi:linespacing="125%"><tspan
         sodipodi:role="line"
         id="tspan3024-0-2"
         x="330.28577"
         y="327.71271">H</tspan></text>
    <path
       transform="translate(45.28573,207.0648)"
       sodipodi:type="arc"
       style="fill:#ffffff;fill-opacity:1;stroke:#000000;stroke-width:1.94500005;stroke-linecap:butt;stroke-miterlimit:4;stroke-opacity:1;stroke-dasharray:none"
       id="path3020-94-5"
       sodipodi:cx="369.28571"
       sodipodi:cy="116.6479"
       sodipodi:rx="10"
       sodipodi:ry="10.714286"
       d="m 379.28571,116.6479 c 0,5.91734 -4.47716,10.71429 -10,10.71429 -5.52285,0 -10,-4.79695 -10,-10.71429 0,-5.91733 4.47715,-10.71428 10,-10.71428 5.52284,0 10,4.79695 10,10.71428 z" />
    <text
       xml:space="preserve"
       style="font-size:14px;font-style:normal;font-variant:normal;font-weight:bold;font-stretch:normal;line-height:125%;letter-spacing:0px;word-spacing:0px;fill:#000000;fill-opacity:1;stroke:none;font-family:Courier;-inkscape-font-specification:Courier Bold"
       x="410.28577"
       y="327.71271"
       id="text3022-15-4"
       sodipodi:linespacing="125%"><tspan
         sodipodi:role="line"
         id="tspan3024-13-6"
         x="410.28577"
         y="327.71271">G</tspan></text>
    <path
       style="fill:none;stroke:#000000;stroke-width:1px;stroke-linecap:butt;stroke-linejoin:miter;stroke-opacity:1"
       d="M 317.58126,238.01166 420.4384,216.58309"
       id="path3195-1"
       inkscape:connector-curvature="0" />
    <path
       style="fill:none;stroke:#000000;stroke-width:1px;stroke-linecap:butt;stroke-linejoin:miter;stroke-opacity:1"
       d="m 440.4384,216.58309 c 101.42857,25 101.42857,25 101.42857,25"
       id="path3197-3"
       inkscape:connector-curvature="0" />
    <path
       style="fill:none;stroke:#000000;stroke-width:1px;stroke-linecap:butt;stroke-linejoin:miter;stroke-opacity:1"
       d="m 245.24761,278.74361 c 53.23872,-33.60673 53.23872,-33.60673 53.23872,-33.60673"
       id="path3199-1"
       inkscape:connector-curvature="0" />
    <path
       style="fill:none;stroke:#000000;stroke-width:1px;stroke-linecap:butt;stroke-linejoin:miter;stroke-opacity:1"
       d="m 198.29555,313.01165 c 29.28572,-22.14284 29.28572,-22.14284 29.28572,-22.14284"
       id="path3201-9"
       inkscape:connector-curvature="0" />
    <path
       style="fill:none;stroke:#000000;stroke-width:1px;stroke-linecap:butt;stroke-linejoin:miter;stroke-opacity:1"
       d="m 241.86699,290.86881 c 30.71428,22.14284 30.71428,22.14284 30.71428,22.14284"
       id="path3203-2"
       inkscape:connector-curvature="0" />
    <path
       style="fill:none;stroke:#000000;stroke-width:1px;stroke-linecap:butt;stroke-linejoin:miter;stroke-opacity:1"
       d="m 319.00983,245.86881 c 47.85714,30 47.85714,30 47.85714,30"
       id="path3205-7"
       inkscape:connector-curvature="0" />
    <path
       style="fill:none;stroke:#000000;stroke-width:1px;stroke-linecap:butt;stroke-linejoin:miter;stroke-opacity:1"
       d="m 340.7252,314.37079 c 27.99784,-22.71827 27.99784,-22.71827 27.99784,-22.71827"
       id="path3207-7"
       inkscape:connector-curvature="0" />
    <path
       style="fill:none;stroke:#000000;stroke-width:1px;stroke-linecap:butt;stroke-linejoin:miter;stroke-opacity:1"
       d="m 379.84832,292.34273 c 29.0373,21.33785 29.0373,21.33785 29.0373,21.33785"
       id="path3209-0"
       inkscape:connector-curvature="0" />
    <path
       style="fill:none;stroke:#000000;stroke-width:1px;stroke-linecap:butt;stroke-linejoin:miter;stroke-opacity:1"
       d="m 499.00983,275.86881 c 45.71428,-27.14286 45.71428,-27.14286 45.71428,-27.14286"
       id="path3211-6"
       inkscape:connector-curvature="0" />
    <path
       style="fill:none;stroke:#000000;stroke-width:1px;stroke-linecap:butt;stroke-linejoin:miter;stroke-opacity:1"
       d="m 561.86696,250.15452 c 47.14286,27.14286 47.14286,27.14286 47.14286,27.14286"
       id="path3213-1"
       inkscape:connector-curvature="0" />
    <text
       xml:space="preserve"
       style="font-size:14px;font-style:normal;font-variant:normal;font-weight:bold;font-stretch:normal;line-height:125%;letter-spacing:0px;word-spacing:0px;fill:#800000;fill-opacity:1;stroke:none;font-family:Courier;-inkscape-font-specification:Courier Bold"
       x="370.85718"
       y="268.66113"
       id="text3452-3"
       sodipodi:linespacing="125%"><tspan
         sodipodi:role="line"
         id="tspan3454-7"
         x="370.85718"
         y="268.66113">5</tspan></text>
    <text
       xml:space="preserve"
       style="font-size:14px;font-style:normal;font-variant:normal;font-weight:bold;font-stretch:normal;line-height:125%;letter-spacing:0px;word-spacing:0px;fill:#800000;fill-opacity:1;stroke:none;font-family:Courier;-inkscape-font-specification:Courier Bold"
       x="305.25372"
       y="227.35347"
       id="text3452-3-6"
       sodipodi:linespacing="125%"><tspan
         sodipodi:role="line"
         id="tspan3454-7-8"
         x="305.25372"
         y="227.35347">2</tspan></text>
    <text
       xml:space="preserve"
       style="font-size:14px;font-style:normal;font-variant:normal;font-weight:bold;font-stretch:normal;line-height:125%;letter-spacing:0px;word-spacing:0px;fill:#800000;fill-opacity:1;stroke:none;font-family:Courier;-inkscape-font-specification:Courier Bold"
       x="425.25372"
       y="200.21062"
       id="text3452-3-0"
       sodipodi:linespacing="125%"><tspan
         sodipodi:role="line"
         id="tspan3454-7-3"
         x="425.25372"
         y="200.21062">1</tspan></text>
    <text
       xml:space="preserve"
       style="font-size:14px;font-style:normal;font-variant:normal;font-weight:normal;font-stretch:normal;line-height:125%;letter-spacing:0px;word-spacing:0px;fill:#000000;fill-opacity:1;stroke:none;font-family:Courier;-inkscape-font-specification:Courier"
       x="377.85715"
       y="286.64789"
       id="text3636"
       sodipodi:linespacing="125%"><tspan
         sodipodi:role="line"
         id="tspan3638"
         x="377.85715"
         y="286.64789"></tspan></text>
  </g>
</svg>
