<?xml version="1.0" encoding="UTF-8" standalone="no"?>
<!-- Created with Inkscape (http://www.inkscape.org/) -->

<svg
   xmlns:dc="http://purl.org/dc/elements/1.1/"
   xmlns:cc="http://creativecommons.org/ns#"
   xmlns:rdf="http://www.w3.org/1999/02/22-rdf-syntax-ns#"
   xmlns:svg="http://www.w3.org/2000/svg"
   xmlns="http://www.w3.org/2000/svg"
   xmlns:sodipodi="http://sodipodi.sourceforge.net/DTD/sodipodi-0.dtd"
   xmlns:inkscape="http://www.inkscape.org/namespaces/inkscape"
   width="446.08038"
   height="290.375"
   id="svg3784"
   version="1.1"
   inkscape:version="0.48.4 r9939"
   sodipodi:docname="heapify_sink.svg">
  <defs
     id="defs3786" />
  <sodipodi:namedview
     id="base"
     pagecolor="#ffffff"
     bordercolor="#666666"
     borderopacity="1.0"
     inkscape:pageopacity="0.0"
     inkscape:pageshadow="2"
     inkscape:zoom="1.4"
     inkscape:cx="234.38972"
     inkscape:cy="160.69389"
     inkscape:document-units="px"
     inkscape:current-layer="layer1"
     showgrid="false"
     inkscape:window-width="1364"
     inkscape:window-height="710"
     inkscape:window-x="1"
     inkscape:window-y="1"
     inkscape:window-maximized="1"
     fit-margin-top="0"
     fit-margin-left="0"
     fit-margin-right="0"
     fit-margin-bottom="0" />
  <metadata
     id="metadata3789">
    <rdf:RDF>
      <cc:Work
         rdf:about="">
        <dc:format>image/svg+xml</dc:format>
        <dc:type
           rdf:resource="http://purl.org/dc/dcmitype/StillImage" />
        <dc:title></dc:title>
      </cc:Work>
    </rdf:RDF>
  </metadata>
  <g
     inkscape:label="Layer 1"
     inkscape:groupmode="layer"
     id="layer1"
     transform="translate(-140.61028,-22.289403)">
    <path
       transform="translate(17.450453,-82.679347)"
       sodipodi:type="arc"
       style="fill:#ffffff;fill-opacity:1;stroke:#000000;stroke-width:1.94500005;stroke-linecap:butt;stroke-miterlimit:4;stroke-opacity:1;stroke-dasharray:none"
       id="path3020"
       sodipodi:cx="369.28571"
       sodipodi:cy="116.6479"
       sodipodi:rx="10"
       sodipodi:ry="10.714286"
       d="m 379.28571,116.6479 c 0,5.91734 -4.47716,10.71429 -10,10.71429 -5.52285,0 -10,-4.79695 -10,-10.71429 0,-5.91733 4.47715,-10.71428 10,-10.71428 5.52284,0 10,4.79695 10,10.71428 z" />
    <text
       xml:space="preserve"
       style="font-size:14px;font-style:normal;font-variant:normal;font-weight:bold;font-stretch:normal;line-height:125%;letter-spacing:0px;word-spacing:0px;fill:#000000;fill-opacity:1;stroke:none;font-family:Courier;-inkscape-font-specification:Courier Bold"
       x="382.45047"
       y="37.968555"
       id="text3022"
       sodipodi:linespacing="125%"><tspan
         sodipodi:role="line"
         id="tspan3024"
         x="382.45047"
         y="37.968555">T</tspan></text>
    <path
       transform="translate(-103.55937,-55.121177)"
       sodipodi:type="arc"
       style="fill:#ffffff;fill-opacity:1;stroke:#808000;stroke-width:1.94500005;stroke-linecap:butt;stroke-miterlimit:4;stroke-opacity:1;stroke-dasharray:none"
       id="path3020-7"
       sodipodi:cx="369.28571"
       sodipodi:cy="116.6479"
       sodipodi:rx="10"
       sodipodi:ry="10.714286"
       d="m 379.28571,116.6479 c 0,5.91734 -4.47716,10.71429 -10,10.71429 -5.52285,0 -10,-4.79695 -10,-10.71429 0,-5.91733 4.47715,-10.71428 10,-10.71428 5.52284,0 10,4.79695 10,10.71428 z" />
    <text
       xml:space="preserve"
       style="font-size:14px;font-style:normal;font-variant:normal;font-weight:bold;font-stretch:normal;line-height:125%;letter-spacing:0px;word-spacing:0px;fill:#800000;fill-opacity:1;stroke:none;font-family:Courier;-inkscape-font-specification:Courier Bold"
       x="261.44064"
       y="65.526718"
       id="text3022-4"
       sodipodi:linespacing="125%"><tspan
         sodipodi:role="line"
         id="tspan3024-1"
         x="261.44064"
         y="65.526718">H</tspan></text>
    <path
       transform="translate(140.44065,-55.121177)"
       sodipodi:type="arc"
       style="fill:#ffffff;fill-opacity:1;stroke:#000000;stroke-width:1.94500005;stroke-linecap:butt;stroke-miterlimit:4;stroke-opacity:1;stroke-dasharray:none"
       id="path3020-0"
       sodipodi:cx="369.28571"
       sodipodi:cy="116.6479"
       sodipodi:rx="10"
       sodipodi:ry="10.714286"
       d="m 379.28571,116.6479 c 0,5.91734 -4.47716,10.71429 -10,10.71429 -5.52285,0 -10,-4.79695 -10,-10.71429 0,-5.91733 4.47715,-10.71428 10,-10.71428 5.52284,0 10,4.79695 10,10.71428 z" />
    <text
       xml:space="preserve"
       style="font-size:14px;font-style:normal;font-variant:normal;font-weight:bold;font-stretch:normal;line-height:125%;letter-spacing:0px;word-spacing:0px;fill:#000000;fill-opacity:1;stroke:none;font-family:Courier;-inkscape-font-specification:Courier Bold"
       x="505.44061"
       y="65.526718"
       id="text3022-5"
       sodipodi:linespacing="125%"><tspan
         sodipodi:role="line"
         id="tspan3024-2"
         x="505.44061"
         y="65.526718">R</tspan></text>
    <path
       transform="translate(-177.55936,-15.121174)"
       sodipodi:type="arc"
       style="fill:#ffffff;fill-opacity:1;stroke:#000000;stroke-width:1.94500005;stroke-linecap:butt;stroke-miterlimit:4;stroke-opacity:1;stroke-dasharray:none"
       id="path3020-04"
       sodipodi:cx="369.28571"
       sodipodi:cy="116.6479"
       sodipodi:rx="10"
       sodipodi:ry="10.714286"
       d="m 379.28571,116.6479 c 0,5.91734 -4.47716,10.71429 -10,10.71429 -5.52285,0 -10,-4.79695 -10,-10.71429 0,-5.91733 4.47715,-10.71428 10,-10.71428 5.52284,0 10,4.79695 10,10.71428 z" />
    <text
       xml:space="preserve"
       style="font-size:14px;font-style:normal;font-variant:normal;font-weight:bold;font-stretch:normal;line-height:125%;letter-spacing:0px;word-spacing:0px;fill:#800000;fill-opacity:1;stroke:none;font-family:Courier;-inkscape-font-specification:Courier Bold"
       x="187.44064"
       y="105.52673"
       id="text3022-1"
       sodipodi:linespacing="125%"><tspan
         sodipodi:role="line"
         id="tspan3024-3"
         x="187.44064"
         y="105.52673">P</tspan></text>
    <path
       transform="translate(-37.559367,-15.121174)"
       sodipodi:type="arc"
       style="fill:#ffffff;fill-opacity:1;stroke:#000000;stroke-width:1.94500005;stroke-linecap:butt;stroke-miterlimit:4;stroke-opacity:1;stroke-dasharray:none"
       id="path3020-2"
       sodipodi:cx="369.28571"
       sodipodi:cy="116.6479"
       sodipodi:rx="10"
       sodipodi:ry="10.714286"
       d="m 379.28571,116.6479 c 0,5.91734 -4.47716,10.71429 -10,10.71429 -5.52285,0 -10,-4.79695 -10,-10.71429 0,-5.91733 4.47715,-10.71428 10,-10.71428 5.52284,0 10,4.79695 10,10.71428 z" />
    <text
       xml:space="preserve"
       style="font-size:14px;font-style:normal;font-variant:normal;font-weight:bold;font-stretch:normal;line-height:125%;letter-spacing:0px;word-spacing:0px;fill:#800000;fill-opacity:1;stroke:none;font-family:Courier;-inkscape-font-specification:Courier Bold"
       x="327.44064"
       y="105.52673"
       id="text3022-6"
       sodipodi:linespacing="125%"><tspan
         sodipodi:role="line"
         id="tspan3024-7"
         x="327.44064"
         y="105.52673">S</tspan></text>
    <path
       transform="translate(80.297787,-14.978318)"
       sodipodi:type="arc"
       style="fill:#ffffff;fill-opacity:1;stroke:#000000;stroke-width:1.94500005;stroke-linecap:butt;stroke-miterlimit:4;stroke-opacity:1;stroke-dasharray:none"
       id="path3020-00"
       sodipodi:cx="369.28571"
       sodipodi:cy="116.6479"
       sodipodi:rx="10"
       sodipodi:ry="10.714286"
       d="m 379.28571,116.6479 c 0,5.91734 -4.47716,10.71429 -10,10.71429 -5.52285,0 -10,-4.79695 -10,-10.71429 0,-5.91733 4.47715,-10.71428 10,-10.71428 5.52284,0 10,4.79695 10,10.71428 z" />
    <text
       xml:space="preserve"
       style="font-size:14px;font-style:normal;font-variant:normal;font-weight:bold;font-stretch:normal;line-height:125%;letter-spacing:0px;word-spacing:0px;fill:#000000;fill-opacity:1;stroke:none;font-family:Courier;-inkscape-font-specification:Courier Bold"
       x="445.29782"
       y="105.66959"
       id="text3022-7"
       sodipodi:linespacing="125%"><tspan
         sodipodi:role="line"
         id="tspan3024-30"
         x="445.29782"
         y="105.66959">O</tspan></text>
    <path
       transform="translate(206.29779,-14.978318)"
       sodipodi:type="arc"
       style="fill:#ffffff;fill-opacity:1;stroke:#000000;stroke-width:1.94500005;stroke-linecap:butt;stroke-miterlimit:4;stroke-opacity:1;stroke-dasharray:none"
       id="path3020-9"
       sodipodi:cx="369.28571"
       sodipodi:cy="116.6479"
       sodipodi:rx="10"
       sodipodi:ry="10.714286"
       d="m 379.28571,116.6479 c 0,5.91734 -4.47716,10.71429 -10,10.71429 -5.52285,0 -10,-4.79695 -10,-10.71429 0,-5.91733 4.47715,-10.71428 10,-10.71428 5.52284,0 10,4.79695 10,10.71428 z" />
    <text
       xml:space="preserve"
       style="font-size:14px;font-style:normal;font-variant:normal;font-weight:bold;font-stretch:normal;line-height:125%;letter-spacing:0px;word-spacing:0px;fill:#000000;fill-opacity:1;stroke:none;font-family:Courier;-inkscape-font-specification:Courier Bold"
       x="571.29773"
       y="105.66959"
       id="text3022-16"
       sodipodi:linespacing="125%"><tspan
         sodipodi:role="line"
         id="tspan3024-79"
         x="571.29773"
         y="105.66959">A</tspan></text>
    <path
       transform="translate(-217.70222,25.021682)"
       sodipodi:type="arc"
       style="fill:#ffffff;fill-opacity:1;stroke:#000000;stroke-width:1.94500005;stroke-linecap:butt;stroke-miterlimit:4;stroke-opacity:1;stroke-dasharray:none"
       id="path3020-6"
       sodipodi:cx="369.28571"
       sodipodi:cy="116.6479"
       sodipodi:rx="10"
       sodipodi:ry="10.714286"
       d="m 379.28571,116.6479 c 0,5.91734 -4.47716,10.71429 -10,10.71429 -5.52285,0 -10,-4.79695 -10,-10.71429 0,-5.91733 4.47715,-10.71428 10,-10.71428 5.52284,0 10,4.79695 10,10.71428 z" />
    <text
       xml:space="preserve"
       style="font-size:14px;font-style:normal;font-variant:normal;font-weight:bold;font-stretch:normal;line-height:125%;letter-spacing:0px;word-spacing:0px;fill:#000000;fill-opacity:1;stroke:none;font-family:Courier;-inkscape-font-specification:Courier Bold"
       x="147.29779"
       y="145.6696"
       id="text3022-2"
       sodipodi:linespacing="125%"><tspan
         sodipodi:role="line"
         id="tspan3024-33"
         x="147.29779"
         y="145.6696">E</tspan></text>
    <path
       transform="translate(-137.70223,25.021682)"
       sodipodi:type="arc"
       style="fill:#ffffff;fill-opacity:1;stroke:#000000;stroke-width:1.94500005;stroke-linecap:butt;stroke-miterlimit:4;stroke-opacity:1;stroke-dasharray:none"
       id="path3020-93"
       sodipodi:cx="369.28571"
       sodipodi:cy="116.6479"
       sodipodi:rx="10"
       sodipodi:ry="10.714286"
       d="m 379.28571,116.6479 c 0,5.91734 -4.47716,10.71429 -10,10.71429 -5.52285,0 -10,-4.79695 -10,-10.71429 0,-5.91733 4.47715,-10.71428 10,-10.71428 5.52284,0 10,4.79695 10,10.71428 z" />
    <text
       xml:space="preserve"
       style="font-size:14px;font-style:normal;font-variant:normal;font-weight:bold;font-stretch:normal;line-height:125%;letter-spacing:0px;word-spacing:0px;fill:#000000;fill-opacity:1;stroke:none;font-family:Courier;-inkscape-font-specification:Courier Bold"
       x="227.29779"
       y="145.6696"
       id="text3022-9"
       sodipodi:linespacing="125%"><tspan
         sodipodi:role="line"
         id="tspan3024-9"
         x="227.29779"
         y="145.6696">I</tspan></text>
    <path
       transform="translate(-77.702227,25.164542)"
       sodipodi:type="arc"
       style="fill:#ffffff;fill-opacity:1;stroke:#000000;stroke-width:1.94500005;stroke-linecap:butt;stroke-miterlimit:4;stroke-opacity:1;stroke-dasharray:none"
       id="path3020-1"
       sodipodi:cx="369.28571"
       sodipodi:cy="116.6479"
       sodipodi:rx="10"
       sodipodi:ry="10.714286"
       d="m 379.28571,116.6479 c 0,5.91734 -4.47716,10.71429 -10,10.71429 -5.52285,0 -10,-4.79695 -10,-10.71429 0,-5.91733 4.47715,-10.71428 10,-10.71428 5.52284,0 10,4.79695 10,10.71428 z" />
    <text
       xml:space="preserve"
       style="font-size:14px;font-style:normal;font-variant:normal;font-weight:bold;font-stretch:normal;line-height:125%;letter-spacing:0px;word-spacing:0px;fill:#000000;fill-opacity:1;stroke:none;font-family:Courier;-inkscape-font-specification:Courier Bold"
       x="287.29779"
       y="145.81245"
       id="text3022-91"
       sodipodi:linespacing="125%"><tspan
         sodipodi:role="line"
         id="tspan3024-0"
         x="287.29779"
         y="145.81245">N</tspan></text>
    <path
       transform="translate(2.2977735,25.164542)"
       sodipodi:type="arc"
       style="fill:#ffffff;fill-opacity:1;stroke:#000000;stroke-width:1.94500005;stroke-linecap:butt;stroke-miterlimit:4;stroke-opacity:1;stroke-dasharray:none"
       id="path3020-94"
       sodipodi:cx="369.28571"
       sodipodi:cy="116.6479"
       sodipodi:rx="10"
       sodipodi:ry="10.714286"
       d="m 379.28571,116.6479 c 0,5.91734 -4.47716,10.71429 -10,10.71429 -5.52285,0 -10,-4.79695 -10,-10.71429 0,-5.91733 4.47715,-10.71428 10,-10.71428 5.52284,0 10,4.79695 10,10.71428 z" />
    <text
       xml:space="preserve"
       style="font-size:14px;font-style:normal;font-variant:normal;font-weight:bold;font-stretch:normal;line-height:125%;letter-spacing:0px;word-spacing:0px;fill:#000000;fill-opacity:1;stroke:none;font-family:Courier;-inkscape-font-specification:Courier Bold"
       x="367.29779"
       y="145.81245"
       id="text3022-15"
       sodipodi:linespacing="125%"><tspan
         sodipodi:role="line"
         id="tspan3024-13"
         x="367.29779"
         y="145.81245">G</tspan></text>
    <path
       style="fill:none;stroke:#000000;stroke-width:1px;stroke-linecap:butt;stroke-linejoin:miter;stroke-opacity:1"
       d="M 274.59332,56.111401 377.45046,34.682832"
       id="path3195"
       inkscape:connector-curvature="0" />
    <path
       style="fill:none;stroke:#000000;stroke-width:1px;stroke-linecap:butt;stroke-linejoin:miter;stroke-opacity:1"
       d="M 397.45046,34.682832 C 498.87903,59.682831 498.87903,59.682831 498.87903,59.682831"
       id="path3197"
       inkscape:connector-curvature="0" />
    <path
       style="fill:none;stroke:#000000;stroke-width:1px;stroke-linecap:butt;stroke-linejoin:miter;stroke-opacity:1"
       d="M 202.25967,96.843352 C 255.49839,63.236621 255.49839,63.236621 255.49839,63.236621"
       id="path3199"
       inkscape:connector-curvature="0" />
    <path
       style="fill:none;stroke:#000000;stroke-width:1px;stroke-linecap:butt;stroke-linejoin:miter;stroke-opacity:1"
       d="m 155.30761,131.1114 c 29.28572,-22.14285 29.28572,-22.14285 29.28572,-22.14285"
       id="path3201"
       inkscape:connector-curvature="0" />
    <path
       style="fill:none;stroke:#000000;stroke-width:1px;stroke-linecap:butt;stroke-linejoin:miter;stroke-opacity:1"
       d="m 198.87905,108.96855 c 30.71428,22.14285 30.71428,22.14285 30.71428,22.14285"
       id="path3203"
       inkscape:connector-curvature="0" />
    <path
       style="fill:none;stroke:#000000;stroke-width:1px;stroke-linecap:butt;stroke-linejoin:miter;stroke-opacity:1"
       d="m 276.02189,63.968551 c 47.85714,30.000001 47.85714,30.000001 47.85714,30.000001"
       id="path3205"
       inkscape:connector-curvature="0" />
    <path
       style="fill:none;stroke:#000000;stroke-width:1px;stroke-linecap:butt;stroke-linejoin:miter;stroke-opacity:1"
       d="M 297.73726,132.47054 C 325.7351,109.75226 325.7351,109.75226 325.7351,109.75226"
       id="path3207"
       inkscape:connector-curvature="0" />
    <path
       style="fill:none;stroke:#000000;stroke-width:1px;stroke-linecap:butt;stroke-linejoin:miter;stroke-opacity:1"
       d="m 336.86038,110.44247 c 29.0373,21.33786 29.0373,21.33786 29.0373,21.33786"
       id="path3209"
       inkscape:connector-curvature="0" />
    <path
       style="fill:none;stroke:#000000;stroke-width:1px;stroke-linecap:butt;stroke-linejoin:miter;stroke-opacity:1"
       d="m 456.02189,93.968552 c 45.71428,-27.14286 45.71428,-27.14286 45.71428,-27.14286"
       id="path3211"
       inkscape:connector-curvature="0" />
    <path
       style="fill:none;stroke:#000000;stroke-width:1px;stroke-linecap:butt;stroke-linejoin:miter;stroke-opacity:1"
       d="m 518.87902,68.254262 c 47.14286,27.14286 47.14286,27.14286 47.14286,27.14286"
       id="path3213"
       inkscape:connector-curvature="0" />
    <text
       xml:space="preserve"
       style="font-size:14px;font-style:normal;font-variant:normal;font-weight:bold;font-stretch:normal;line-height:125%;letter-spacing:0px;word-spacing:0px;fill:#800000;fill-opacity:1;stroke:none;font-family:Courier;-inkscape-font-specification:Courier Bold"
       x="327.8692"
       y="86.760895"
       id="text3452"
       sodipodi:linespacing="125%"><tspan
         sodipodi:role="line"
         id="tspan3454"
         x="327.8692"
         y="86.760895">5</tspan></text>
    <path
       transform="translate(17.593323,76.476755)"
       sodipodi:type="arc"
       style="fill:#ffffff;fill-opacity:1;stroke:#000000;stroke-width:1.94500005;stroke-linecap:butt;stroke-miterlimit:4;stroke-opacity:1;stroke-dasharray:none"
       id="path3020-8"
       sodipodi:cx="369.28571"
       sodipodi:cy="116.6479"
       sodipodi:rx="10"
       sodipodi:ry="10.714286"
       d="m 379.28571,116.6479 c 0,5.91734 -4.47716,10.71429 -10,10.71429 -5.52285,0 -10,-4.79695 -10,-10.71429 0,-5.91733 4.47715,-10.71428 10,-10.71428 5.52284,0 10,4.79695 10,10.71428 z" />
    <text
       xml:space="preserve"
       style="font-size:14px;font-style:normal;font-variant:normal;font-weight:bold;font-stretch:normal;line-height:125%;letter-spacing:0px;word-spacing:0px;fill:#800000;fill-opacity:1;stroke:none;font-family:Courier;-inkscape-font-specification:Courier Bold"
       x="382.59332"
       y="197.12465"
       id="text3022-22"
       sodipodi:linespacing="125%"><tspan
         sodipodi:role="line"
         id="tspan3024-25"
         x="382.59332"
         y="197.12465">T</tspan></text>
    <path
       transform="translate(-103.4165,104.03493)"
       sodipodi:type="arc"
       style="fill:#ffffff;fill-opacity:1;stroke:#808000;stroke-width:1.94500005;stroke-linecap:butt;stroke-miterlimit:4;stroke-opacity:1;stroke-dasharray:none"
       id="path3020-7-7"
       sodipodi:cx="369.28571"
       sodipodi:cy="116.6479"
       sodipodi:rx="10"
       sodipodi:ry="10.714286"
       d="m 379.28571,116.6479 c 0,5.91734 -4.47716,10.71429 -10,10.71429 -5.52285,0 -10,-4.79695 -10,-10.71429 0,-5.91733 4.47715,-10.71428 10,-10.71428 5.52284,0 10,4.79695 10,10.71428 z" />
    <text
       xml:space="preserve"
       style="font-size:14px;font-style:normal;font-variant:normal;font-weight:bold;font-stretch:normal;line-height:125%;letter-spacing:0px;word-spacing:0px;fill:#800000;fill-opacity:1;stroke:none;font-family:Courier;-inkscape-font-specification:Courier Bold"
       x="261.5835"
       y="224.68282"
       id="text3022-4-3"
       sodipodi:linespacing="125%"><tspan
         sodipodi:role="line"
         id="tspan3024-1-6"
         x="261.5835"
         y="224.68282">S</tspan></text>
    <path
       transform="translate(140.58351,104.03493)"
       sodipodi:type="arc"
       style="fill:#ffffff;fill-opacity:1;stroke:#000000;stroke-width:1.94500005;stroke-linecap:butt;stroke-miterlimit:4;stroke-opacity:1;stroke-dasharray:none"
       id="path3020-0-9"
       sodipodi:cx="369.28571"
       sodipodi:cy="116.6479"
       sodipodi:rx="10"
       sodipodi:ry="10.714286"
       d="m 379.28571,116.6479 c 0,5.91734 -4.47716,10.71429 -10,10.71429 -5.52285,0 -10,-4.79695 -10,-10.71429 0,-5.91733 4.47715,-10.71428 10,-10.71428 5.52284,0 10,4.79695 10,10.71428 z" />
    <text
       xml:space="preserve"
       style="font-size:14px;font-style:normal;font-variant:normal;font-weight:bold;font-stretch:normal;line-height:125%;letter-spacing:0px;word-spacing:0px;fill:#000000;fill-opacity:1;stroke:none;font-family:Courier;-inkscape-font-specification:Courier Bold"
       x="505.5835"
       y="224.68282"
       id="text3022-5-6"
       sodipodi:linespacing="125%"><tspan
         sodipodi:role="line"
         id="tspan3024-2-5"
         x="505.5835"
         y="224.68282">R</tspan></text>
    <path
       transform="translate(-177.4165,144.03493)"
       sodipodi:type="arc"
       style="fill:#ffffff;fill-opacity:1;stroke:#000000;stroke-width:1.94500005;stroke-linecap:butt;stroke-miterlimit:4;stroke-opacity:1;stroke-dasharray:none"
       id="path3020-04-8"
       sodipodi:cx="369.28571"
       sodipodi:cy="116.6479"
       sodipodi:rx="10"
       sodipodi:ry="10.714286"
       d="m 379.28571,116.6479 c 0,5.91734 -4.47716,10.71429 -10,10.71429 -5.52285,0 -10,-4.79695 -10,-10.71429 0,-5.91733 4.47715,-10.71428 10,-10.71428 5.52284,0 10,4.79695 10,10.71428 z" />
    <text
       xml:space="preserve"
       style="font-size:14px;font-style:normal;font-variant:normal;font-weight:bold;font-stretch:normal;line-height:125%;letter-spacing:0px;word-spacing:0px;fill:#000000;fill-opacity:1;stroke:none;font-family:Courier;-inkscape-font-specification:Courier Bold"
       x="187.58351"
       y="264.68286"
       id="text3022-1-7"
       sodipodi:linespacing="125%"><tspan
         sodipodi:role="line"
         id="tspan3024-3-4"
         x="187.58351"
         y="264.68286">P</tspan></text>
    <path
       transform="translate(-37.416497,144.03493)"
       sodipodi:type="arc"
       style="fill:#ffffff;fill-opacity:1;stroke:#808000;stroke-width:1.94500005;stroke-linecap:butt;stroke-miterlimit:4;stroke-opacity:1;stroke-dasharray:none"
       id="path3020-2-1"
       sodipodi:cx="369.28571"
       sodipodi:cy="116.6479"
       sodipodi:rx="10"
       sodipodi:ry="10.714286"
       d="m 379.28571,116.6479 c 0,5.91734 -4.47716,10.71429 -10,10.71429 -5.52285,0 -10,-4.79695 -10,-10.71429 0,-5.91733 4.47715,-10.71428 10,-10.71428 5.52284,0 10,4.79695 10,10.71428 z" />
    <text
       xml:space="preserve"
       style="font-size:14px;font-style:normal;font-variant:normal;font-weight:bold;font-stretch:normal;line-height:125%;letter-spacing:0px;word-spacing:0px;fill:#800000;fill-opacity:1;stroke:none;font-family:Courier;-inkscape-font-specification:Courier Bold"
       x="327.5835"
       y="264.68286"
       id="text3022-6-0"
       sodipodi:linespacing="125%"><tspan
         sodipodi:role="line"
         id="tspan3024-7-3"
         x="327.5835"
         y="264.68286">N</tspan></text>
    <path
       transform="translate(80.440647,144.17778)"
       sodipodi:type="arc"
       style="fill:#ffffff;fill-opacity:1;stroke:#000000;stroke-width:1.94500005;stroke-linecap:butt;stroke-miterlimit:4;stroke-opacity:1;stroke-dasharray:none"
       id="path3020-00-4"
       sodipodi:cx="369.28571"
       sodipodi:cy="116.6479"
       sodipodi:rx="10"
       sodipodi:ry="10.714286"
       d="m 379.28571,116.6479 c 0,5.91734 -4.47716,10.71429 -10,10.71429 -5.52285,0 -10,-4.79695 -10,-10.71429 0,-5.91733 4.47715,-10.71428 10,-10.71428 5.52284,0 10,4.79695 10,10.71428 z" />
    <text
       xml:space="preserve"
       style="font-size:14px;font-style:normal;font-variant:normal;font-weight:bold;font-stretch:normal;line-height:125%;letter-spacing:0px;word-spacing:0px;fill:#000000;fill-opacity:1;stroke:none;font-family:Courier;-inkscape-font-specification:Courier Bold"
       x="445.4407"
       y="264.82571"
       id="text3022-7-1"
       sodipodi:linespacing="125%"><tspan
         sodipodi:role="line"
         id="tspan3024-30-7"
         x="445.4407"
         y="264.82571">O</tspan></text>
    <path
       transform="translate(206.44065,144.17778)"
       sodipodi:type="arc"
       style="fill:#ffffff;fill-opacity:1;stroke:#000000;stroke-width:1.94500005;stroke-linecap:butt;stroke-miterlimit:4;stroke-opacity:1;stroke-dasharray:none"
       id="path3020-9-8"
       sodipodi:cx="369.28571"
       sodipodi:cy="116.6479"
       sodipodi:rx="10"
       sodipodi:ry="10.714286"
       d="m 379.28571,116.6479 c 0,5.91734 -4.47716,10.71429 -10,10.71429 -5.52285,0 -10,-4.79695 -10,-10.71429 0,-5.91733 4.47715,-10.71428 10,-10.71428 5.52284,0 10,4.79695 10,10.71428 z" />
    <text
       xml:space="preserve"
       style="font-size:14px;font-style:normal;font-variant:normal;font-weight:bold;font-stretch:normal;line-height:125%;letter-spacing:0px;word-spacing:0px;fill:#000000;fill-opacity:1;stroke:none;font-family:Courier;-inkscape-font-specification:Courier Bold"
       x="571.44061"
       y="264.82571"
       id="text3022-16-4"
       sodipodi:linespacing="125%"><tspan
         sodipodi:role="line"
         id="tspan3024-79-7"
         x="571.44061"
         y="264.82571">A</tspan></text>
    <path
       transform="translate(-217.55936,184.17779)"
       sodipodi:type="arc"
       style="fill:#ffffff;fill-opacity:1;stroke:#000000;stroke-width:1.94500005;stroke-linecap:butt;stroke-miterlimit:4;stroke-opacity:1;stroke-dasharray:none"
       id="path3020-6-9"
       sodipodi:cx="369.28571"
       sodipodi:cy="116.6479"
       sodipodi:rx="10"
       sodipodi:ry="10.714286"
       d="m 379.28571,116.6479 c 0,5.91734 -4.47716,10.71429 -10,10.71429 -5.52285,0 -10,-4.79695 -10,-10.71429 0,-5.91733 4.47715,-10.71428 10,-10.71428 5.52284,0 10,4.79695 10,10.71428 z" />
    <text
       xml:space="preserve"
       style="font-size:14px;font-style:normal;font-variant:normal;font-weight:bold;font-stretch:normal;line-height:125%;letter-spacing:0px;word-spacing:0px;fill:#000000;fill-opacity:1;stroke:none;font-family:Courier;-inkscape-font-specification:Courier Bold"
       x="147.44066"
       y="304.82571"
       id="text3022-2-0"
       sodipodi:linespacing="125%"><tspan
         sodipodi:role="line"
         id="tspan3024-33-1"
         x="147.44066"
         y="304.82571">E</tspan></text>
    <path
       transform="translate(-137.55936,184.17779)"
       sodipodi:type="arc"
       style="fill:#ffffff;fill-opacity:1;stroke:#000000;stroke-width:1.94500005;stroke-linecap:butt;stroke-miterlimit:4;stroke-opacity:1;stroke-dasharray:none"
       id="path3020-93-7"
       sodipodi:cx="369.28571"
       sodipodi:cy="116.6479"
       sodipodi:rx="10"
       sodipodi:ry="10.714286"
       d="m 379.28571,116.6479 c 0,5.91734 -4.47716,10.71429 -10,10.71429 -5.52285,0 -10,-4.79695 -10,-10.71429 0,-5.91733 4.47715,-10.71428 10,-10.71428 5.52284,0 10,4.79695 10,10.71428 z" />
    <text
       xml:space="preserve"
       style="font-size:14px;font-style:normal;font-variant:normal;font-weight:bold;font-stretch:normal;line-height:125%;letter-spacing:0px;word-spacing:0px;fill:#000000;fill-opacity:1;stroke:none;font-family:Courier;-inkscape-font-specification:Courier Bold"
       x="227.44067"
       y="304.82571"
       id="text3022-9-2"
       sodipodi:linespacing="125%"><tspan
         sodipodi:role="line"
         id="tspan3024-9-4"
         x="227.44067"
         y="304.82571">I</tspan></text>
    <path
       transform="translate(-77.559357,184.32065)"
       sodipodi:type="arc"
       style="fill:#ffffff;fill-opacity:1;stroke:#808000;stroke-width:1.94500005;stroke-linecap:butt;stroke-miterlimit:4;stroke-opacity:1;stroke-dasharray:none"
       id="path3020-1-1"
       sodipodi:cx="369.28571"
       sodipodi:cy="116.6479"
       sodipodi:rx="10"
       sodipodi:ry="10.714286"
       d="m 379.28571,116.6479 c 0,5.91734 -4.47716,10.71429 -10,10.71429 -5.52285,0 -10,-4.79695 -10,-10.71429 0,-5.91733 4.47715,-10.71428 10,-10.71428 5.52284,0 10,4.79695 10,10.71428 z" />
    <text
       xml:space="preserve"
       style="font-size:14px;font-style:normal;font-variant:normal;font-weight:bold;font-stretch:normal;line-height:125%;letter-spacing:0px;word-spacing:0px;fill:#000000;fill-opacity:1;stroke:none;font-family:Courier;-inkscape-font-specification:Courier Bold"
       x="287.44067"
       y="304.96857"
       id="text3022-91-2"
       sodipodi:linespacing="125%"><tspan
         sodipodi:role="line"
         id="tspan3024-0-2"
         x="287.44067"
         y="304.96857">H</tspan></text>
    <path
       transform="translate(2.4406435,184.32065)"
       sodipodi:type="arc"
       style="fill:#ffffff;fill-opacity:1;stroke:#000000;stroke-width:1.94500005;stroke-linecap:butt;stroke-miterlimit:4;stroke-opacity:1;stroke-dasharray:none"
       id="path3020-94-5"
       sodipodi:cx="369.28571"
       sodipodi:cy="116.6479"
       sodipodi:rx="10"
       sodipodi:ry="10.714286"
       d="m 379.28571,116.6479 c 0,5.91734 -4.47716,10.71429 -10,10.71429 -5.52285,0 -10,-4.79695 -10,-10.71429 0,-5.91733 4.47715,-10.71428 10,-10.71428 5.52284,0 10,4.79695 10,10.71428 z" />
    <text
       xml:space="preserve"
       style="font-size:14px;font-style:normal;font-variant:normal;font-weight:bold;font-stretch:normal;line-height:125%;letter-spacing:0px;word-spacing:0px;fill:#000000;fill-opacity:1;stroke:none;font-family:Courier;-inkscape-font-specification:Courier Bold"
       x="367.44067"
       y="304.96857"
       id="text3022-15-4"
       sodipodi:linespacing="125%"><tspan
         sodipodi:role="line"
         id="tspan3024-13-6"
         x="367.44067"
         y="304.96857">G</tspan></text>
    <path
       style="fill:none;stroke:#000000;stroke-width:1px;stroke-linecap:butt;stroke-linejoin:miter;stroke-opacity:1"
       d="M 274.73618,215.26751 377.59332,193.83894"
       id="path3195-1"
       inkscape:connector-curvature="0" />
    <path
       style="fill:none;stroke:#000000;stroke-width:1px;stroke-linecap:butt;stroke-linejoin:miter;stroke-opacity:1"
       d="m 397.59332,193.83894 c 101.42857,25 101.42857,25 101.42857,25"
       id="path3197-3"
       inkscape:connector-curvature="0" />
    <path
       style="fill:none;stroke:#000000;stroke-width:1px;stroke-linecap:butt;stroke-linejoin:miter;stroke-opacity:1"
       d="m 202.40253,255.99946 c 53.23872,-33.60673 53.23872,-33.60673 53.23872,-33.60673"
       id="path3199-1"
       inkscape:connector-curvature="0" />
    <path
       style="fill:none;stroke:#000000;stroke-width:1px;stroke-linecap:butt;stroke-linejoin:miter;stroke-opacity:1"
       d="m 155.45047,290.2675 c 29.28572,-22.14284 29.28572,-22.14284 29.28572,-22.14284"
       id="path3201-9"
       inkscape:connector-curvature="0" />
    <path
       style="fill:none;stroke:#000000;stroke-width:1px;stroke-linecap:butt;stroke-linejoin:miter;stroke-opacity:1"
       d="m 199.02191,268.12466 c 30.71428,22.14284 30.71428,22.14284 30.71428,22.14284"
       id="path3203-2"
       inkscape:connector-curvature="0" />
    <path
       style="fill:none;stroke:#000000;stroke-width:1px;stroke-linecap:butt;stroke-linejoin:miter;stroke-opacity:1"
       d="m 276.16475,223.12466 c 47.85714,30 47.85714,30 47.85714,30"
       id="path3205-7"
       inkscape:connector-curvature="0" />
    <path
       style="fill:none;stroke:#000000;stroke-width:1px;stroke-linecap:butt;stroke-linejoin:miter;stroke-opacity:1"
       d="m 297.88012,291.62664 c 27.99784,-22.71827 27.99784,-22.71827 27.99784,-22.71827"
       id="path3207-7"
       inkscape:connector-curvature="0" />
    <path
       style="fill:none;stroke:#000000;stroke-width:1px;stroke-linecap:butt;stroke-linejoin:miter;stroke-opacity:1"
       d="m 337.00324,269.59858 c 29.0373,21.33785 29.0373,21.33785 29.0373,21.33785"
       id="path3209-0"
       inkscape:connector-curvature="0" />
    <path
       style="fill:none;stroke:#000000;stroke-width:1px;stroke-linecap:butt;stroke-linejoin:miter;stroke-opacity:1"
       d="M 456.16475,253.12466 C 501.87903,225.9818 501.87903,225.9818 501.87903,225.9818"
       id="path3211-6"
       inkscape:connector-curvature="0" />
    <path
       style="fill:none;stroke:#000000;stroke-width:1px;stroke-linecap:butt;stroke-linejoin:miter;stroke-opacity:1"
       d="m 519.02188,227.41037 c 47.14286,27.14286 47.14286,27.14286 47.14286,27.14286"
       id="path3213-1"
       inkscape:connector-curvature="0" />
    <text
       xml:space="preserve"
       style="font-size:14px;font-style:normal;font-variant:normal;font-weight:bold;font-stretch:normal;line-height:125%;letter-spacing:0px;word-spacing:0px;fill:#800000;fill-opacity:1;stroke:none;font-family:Courier;-inkscape-font-specification:Courier Bold"
       x="328.01208"
       y="245.91698"
       id="text3452-3"
       sodipodi:linespacing="125%"><tspan
         sodipodi:role="line"
         id="tspan3454-7"
         x="328.01208"
         y="245.91698">5</tspan></text>
    <text
       xml:space="preserve"
       style="font-size:14px;font-style:normal;font-variant:normal;font-weight:bold;font-stretch:normal;line-height:125%;letter-spacing:0px;word-spacing:0px;fill:#800000;fill-opacity:1;stroke:none;font-family:Courier;-inkscape-font-specification:Courier Bold"
       x="262.40863"
       y="204.60931"
       id="text3452-3-6"
       sodipodi:linespacing="125%"><tspan
         sodipodi:role="line"
         id="tspan3454-7-8"
         x="262.40863"
         y="204.60931">2</tspan></text>
    <text
       xml:space="preserve"
       style="font-size:14px;font-style:normal;font-variant:normal;font-weight:normal;font-stretch:normal;line-height:125%;letter-spacing:0px;word-spacing:0px;fill:#000000;fill-opacity:1;stroke:none;font-family:Courier;-inkscape-font-specification:Courier"
       x="335.01205"
       y="263.90375"
       id="text3636"
       sodipodi:linespacing="125%"><tspan
         sodipodi:role="line"
         id="tspan3638"
         x="335.01205"
         y="263.90375" /></text>
    <text
       xml:space="preserve"
       style="font-size:14px;font-style:normal;font-variant:normal;font-weight:bold;font-stretch:normal;line-height:125%;letter-spacing:0px;word-spacing:0px;fill:#800000;fill-opacity:1;stroke:none;font-family:Courier;-inkscape-font-specification:Courier Bold"
       x="261.68228"
       y="46.639187"
       id="text3452-8"
       sodipodi:linespacing="125%"><tspan
         sodipodi:role="line"
         id="tspan3454-6"
         x="261.68228"
         y="46.639187">2</tspan></text>
    <text
       xml:space="preserve"
       style="font-size:14px;font-style:normal;font-variant:normal;font-weight:bold;font-stretch:normal;line-height:125%;letter-spacing:0px;word-spacing:0px;fill:#800000;fill-opacity:1;stroke:none;font-family:Courier;-inkscape-font-specification:Courier Bold"
       x="283.25369"
       y="285.35345"
       id="text3452-3-2"
       sodipodi:linespacing="125%"><tspan
         sodipodi:role="line"
         id="tspan3454-7-86"
         x="283.25369"
         y="285.35345">11</tspan></text>
  </g>
</svg>
